<?xml version="1.0" standalone="no"?>
<!DOCTYPE svg PUBLIC "-//W3C//DTD SVG 20010904//EN"
 "http://www.w3.org/TR/2001/REC-SVG-20010904/DTD/svg10.dtd">
<svg version="1.0" xmlns="http://www.w3.org/2000/svg"
 width="235.230000pt" height="432.750000pt" viewBox="163.500000 78.000000 235.230000 432.750000"
 preserveAspectRatio="xMidYMid meet">
<g transform="translate(0.000000,600.000000) scale(0.100000,-0.100000)"
fill="#000000" stroke="none">
<path d="M2307 5173 c-8 -16 -18 -38 -21 -50 -7 -21 -4 -23 26 -23 29 0 37 6
61 45 15 25 27 48 27 50 0 3 -18 5 -40 5 -33 0 -42 -4 -53 -27z"/>
<path d="M1876 5065 c-80 -28 -126 -98 -126 -189 0 -136 121 -231 250 -196 37
10 110 62 110 79 0 4 -14 15 -30 25 -30 17 -31 17 -61 -8 -36 -31 -101 -35
-138 -10 -66 47 -66 172 1 218 36 25 107 21 137 -8 l26 -24 30 23 29 24 -27
29 c-47 49 -127 64 -201 37z"/>
<path d="M2247 5066 c-137 -51 -175 -228 -72 -332 98 -98 264 -74 326 48 17
33 20 55 17 109 -3 58 -8 74 -34 106 -17 21 -45 46 -62 56 -42 25 -127 31
-175 13z m118 -70 c65 -27 92 -107 61 -180 -19 -46 -52 -66 -106 -66 -54 0
-87 20 -106 66 -32 75 -1 158 66 181 45 15 45 15 85 -1z"/>
<path d="M3207 5070 c-80 -24 -137 -104 -137 -192 0 -162 153 -249 319 -182
l41 16 0 89 0 89 -86 0 -85 0 3 -32 c3 -32 5 -33 51 -36 44 -3 47 -5 47 -31 0
-17 -7 -31 -16 -35 -29 -11 -105 -6 -133 9 -31 16 -61 69 -61 109 0 39 24 91
51 110 30 21 108 21 138 0 22 -16 24 -15 48 9 31 30 25 43 -31 68 -43 20 -102
23 -149 9z"/>
<path d="M3595 5065 c-55 -19 -111 -84 -124 -143 -29 -140 87 -269 222 -248
91 15 157 74 176 156 36 160 -116 291 -274 235z m138 -77 c27 -14 57 -69 57
-106 0 -44 -23 -96 -51 -116 -30 -20 -108 -21 -137 0 -52 36 -68 123 -32 182
34 55 102 72 163 40z"/>
<path d="M2560 4874 l0 -196 108 4 c99 3 112 5 151 31 76 50 105 171 62 255
-40 78 -92 102 -226 102 l-95 0 0 -196z m201 110 c40 -20 63 -74 54 -129 -10
-67 -57 -105 -131 -105 l-34 0 0 125 0 125 40 0 c23 0 55 -7 71 -16z"/>
<path d="M2940 4875 l0 -195 45 0 45 0 0 195 0 195 -45 0 -45 0 0 -195z"/>
<path d="M1734 4566 c-43 -19 -64 -53 -64 -102 0 -55 22 -81 101 -119 58 -27
64 -33 64 -60 0 -28 -3 -30 -42 -33 -32 -2 -47 2 -63 18 -35 35 -94 2 -69 -38
42 -66 184 -79 238 -21 29 32 35 84 14 127 -14 29 -33 44 -88 72 -57 29 -70
39 -70 59 0 38 28 49 70 27 36 -20 36 -20 57 2 19 18 20 23 7 38 -17 21 -71
44 -101 44 -13 -1 -37 -7 -54 -14z"/>
<path d="M2385 4568 c-113 -40 -167 -171 -116 -284 37 -81 141 -128 229 -105
38 11 112 63 112 80 0 4 -14 15 -30 25 -30 17 -31 17 -61 -8 -95 -80 -221 25
-178 148 8 21 26 48 40 58 36 27 104 26 133 -1 27 -26 34 -26 66 -1 l25 19
-28 29 c-45 47 -125 63 -192 40z"/>
<path d="M3699 4566 c-92 -33 -134 -92 -134 -191 0 -80 27 -131 90 -170 41
-25 58 -30 109 -29 71 1 110 18 154 68 97 111 44 285 -99 326 -44 13 -76 12
-120 -4z m137 -82 c30 -20 44 -57 44 -115 0 -45 -4 -55 -34 -85 -28 -28 -42
-34 -76 -34 -69 0 -101 25 -121 94 -19 68 22 142 86 159 27 7 75 -3 101 -19z"/>
<path d="M1960 4375 l0 -195 135 0 135 0 0 35 0 35 -90 0 -90 0 0 45 0 45 76
0 75 0 -3 38 -3 37 -72 3 -73 3 0 39 0 40 85 0 85 0 0 35 0 35 -130 0 -130 0
0 -195z"/>
<path d="M2631 4375 l-1 -195 45 0 45 0 0 70 c0 67 1 70 23 70 18 0 32 -15 63
-70 l39 -70 48 0 48 0 -27 48 c-15 26 -36 59 -46 74 -18 26 -18 26 12 48 64
46 59 151 -9 197 -30 20 -46 23 -137 23 l-103 0 0 -195z m193 109 c19 -19 21
-68 4 -81 -19 -15 -61 -23 -86 -16 -19 5 -22 12 -22 59 l0 54 44 0 c27 0 51
-6 60 -16z"/>
<path d="M2970 4375 l0 -195 135 0 135 0 0 35 0 35 -95 0 -95 0 0 45 0 44 78
3 77 3 0 35 0 35 -77 3 -78 3 0 39 0 40 90 0 90 0 0 35 0 35 -130 0 -130 0 0
-195z"/>
<path d="M3260 4535 l0 -35 55 0 55 0 0 -160 0 -160 40 0 40 0 0 160 0 160 55
0 55 0 0 35 0 35 -150 0 -150 0 0 -35z"/>
<path d="M3270 3922 c-8 -2 -32 -15 -52 -29 -31 -21 -38 -32 -43 -72 -4 -25
-11 -56 -17 -69 -9 -17 -8 -34 5 -76 9 -29 17 -71 17 -92 0 -44 27 -76 104
-128 48 -32 63 -33 72 -3 4 12 15 27 24 34 10 7 23 27 30 45 7 18 23 56 35 83
30 67 43 236 20 255 -51 42 -145 67 -195 52z"/>
<path d="M2208 3835 c-54 -34 -80 -66 -59 -73 5 -2 7 -10 4 -19 -4 -9 -2 -14
3 -11 12 8 15 -41 4 -72 -6 -16 -5 -46 3 -85 13 -60 13 -60 52 -65 47 -6 52
-20 32 -82 -9 -24 -13 -45 -11 -47 5 -5 43 42 44 54 0 6 16 20 35 33 33 21 36
21 42 5 3 -10 12 -25 19 -33 10 -12 7 -25 -16 -70 l-28 -55 -11 28 c-6 16 -11
33 -11 38 0 16 -10 10 -96 -61 -46 -39 -84 -68 -84 -65 0 3 9 24 21 46 23 47
20 56 -13 38 l-23 -12 20 24 c11 13 30 36 44 51 30 34 25 40 -21 28 -45 -13
-62 -32 -88 -103 -12 -32 -31 -63 -41 -70 -11 -7 -45 -43 -76 -82 l-56 -69 11
-54 c13 -63 25 -80 70 -99 l32 -13 -5 -138 c-15 -430 -16 -480 -1 -485 9 -4
17 -28 21 -64 12 -103 34 -195 51 -214 16 -18 39 -67 85 -182 10 -26 33 -109
51 -185 25 -107 32 -161 32 -247 1 -109 1 -110 -36 -176 -31 -53 -48 -71 -88
-93 -27 -15 -50 -31 -50 -36 0 -13 83 -23 130 -15 33 6 46 14 59 37 9 17 26
42 38 57 l22 26 1 -55 1 -55 24 75 c29 89 30 114 9 166 -14 34 -15 52 -5 137
18 163 15 225 -20 329 -16 50 -28 103 -26 117 2 21 16 0 64 -99 65 -134 80
-184 114 -385 26 -154 22 -283 -11 -388 -19 -61 -26 -71 -70 -100 -27 -18 -50
-35 -50 -39 0 -15 50 -20 112 -11 l63 8 29 63 c16 34 33 62 37 62 5 0 9 -26
11 -58 2 -31 6 -50 9 -42 21 54 49 152 49 169 0 10 -8 39 -19 63 -28 65 -35
173 -21 302 16 141 6 204 -52 329 -23 51 -47 116 -54 146 -11 48 -11 56 3 66
14 11 15 31 10 155 -5 125 -4 145 10 155 15 11 14 18 -2 86 -33 141 -87 304
-121 365 -32 58 -33 64 -24 119 5 31 17 69 27 84 10 15 42 63 71 107 61 92 82
151 89 251 5 67 4 74 -20 103 -31 36 -57 116 -57 174 0 23 -6 64 -14 91 -30
115 -73 155 -166 155 -46 0 -65 -6 -112 -35z m192 -387 c0 -6 -7 -5 -15 2 -8
7 -15 17 -15 22 0 6 7 5 15 -2 8 -7 15 -17 15 -22z m-290 -373 l-34 -35 24
-25 c13 -14 21 -27 19 -30 -3 -2 -23 -7 -46 -11 -36 -5 -42 -4 -47 14 -14 44
42 122 88 122 l30 0 -34 -35z m-66 -150 c-4 -8 -10 -12 -15 -9 -14 8 -10 24 6
24 9 0 12 -6 9 -15z"/>
<path d="M3145 3500 c-27 -30 -59 -45 -135 -65 -36 -9 -69 -20 -74 -25 -5 -5
-13 -60 -18 -122 -5 -62 -12 -162 -17 -223 -5 -60 -13 -125 -20 -144 -9 -29
-7 -43 15 -95 14 -34 37 -94 50 -134 13 -40 42 -96 63 -125 40 -52 40 -52 47
-172 4 -66 12 -126 18 -134 8 -10 10 -88 8 -255 -5 -339 -8 -407 -26 -521 -18
-113 -20 -225 -6 -332 9 -73 42 -163 60 -163 5 0 22 -14 38 -31 23 -25 40 -32
98 -41 79 -12 177 5 182 32 1 9 -20 29 -52 49 -29 19 -59 44 -66 54 -12 19
-11 19 24 -1 32 -19 53 -22 140 -22 97 0 166 12 166 29 0 18 -39 40 -92 54
-71 19 -122 47 -126 72 -2 10 -17 40 -34 66 -28 46 -28 49 -12 73 15 24 15 30
-1 90 -16 59 -16 70 -1 157 9 52 25 125 36 164 11 38 20 89 20 111 0 23 14 94
30 157 17 64 30 136 30 160 0 24 8 59 17 78 15 30 17 70 16 347 -1 183 2 312
8 312 5 0 29 -5 54 -12 38 -10 50 -10 80 5 57 27 62 52 32 149 -27 84 -63 178
-83 211 -9 16 -15 13 -61 -33 -55 -55 -67 -59 -82 -31 -9 16 -4 21 29 36 22
10 47 26 57 37 15 17 15 22 3 41 -8 12 -22 38 -32 59 -27 55 -65 81 -108 73
-19 -4 -38 -11 -41 -16 -3 -5 -13 -7 -21 -4 -21 8 -33 -27 -19 -52 13 -23 41
-125 41 -149 0 -10 -18 19 -40 64 -24 49 -62 106 -97 145 -32 35 -63 71 -68
81 -10 17 -11 17 -30 -4z m103 -261 c47 -12 70 -24 61 -34 -3 -2 -30 5 -60 16
-81 31 -82 37 -1 18z m189 -41 c-3 -8 -6 -5 -6 6 -1 11 2 17 5 13 3 -3 4 -12
1 -19z m-200 -654 c4 -10 -13 -35 -52 -74 -89 -90 -98 -57 -11 41 45 52 54 56
63 33z"/>
</g>
</svg>
