<?xml version="1.0" standalone="no"?>
<!DOCTYPE svg PUBLIC "-//W3C//DTD SVG 20010904//EN"
 "http://www.w3.org/TR/2001/REC-SVG-20010904/DTD/svg10.dtd">
<svg version="1.0" xmlns="http://www.w3.org/2000/svg"
 width="955.760000pt" height="307.160000pt" viewBox="0 0 955.760000 307.160000"
 preserveAspectRatio="xMidYMid meet">

<g transform="translate(-50.820000,652.780000) scale(0.100000,-0.100000)"
fill="#000000" stroke="none">
<path d="M8436 6341 c-2 -3 -45 -152 -96 -331 -51 -179 -97 -329 -102 -335 -5
-6 -8 71 -8 178 l2 188 -234 0 c-128 -1 -358 -4 -510 -8 -273 -6 -278 -6 -278
-27 0 -12 -3 -72 -7 -133 -4 -83 -3 -113 6 -113 6 0 27 -6 45 -14 l34 -14 -9
-48 c-92 -506 -99 -557 -106 -772 l-6 -213 389 1 c457 1 417 2 410 -9 -3 -5
-28 -87 -56 -182 -28 -96 -53 -181 -55 -190 -4 -12 7 -20 47 -31 29 -9 251
-77 493 -153 814 -253 827 -257 835 -245 9 15 652 2072 648 2075 -2 1 -203 55
-448 119 -245 65 -568 151 -718 190 -150 40 -274 70 -276 67z m279 -535 c460
-134 650 -190 654 -193 4 -3 -65 -262 -71 -269 -2 -1 -22 3 -46 9 -37 10 -42
15 -47 47 -26 170 -30 174 -233 234 -85 25 -156 46 -158 46 -9 0 -134 -429
-125 -434 20 -13 191 -56 219 -56 36 0 84 40 97 81 4 13 13 18 23 15 9 -3 30
-8 45 -12 24 -6 28 -11 24 -33 -5 -30 -87 -314 -92 -319 -2 -2 -21 2 -43 9
-38 11 -40 13 -45 61 -10 81 -23 93 -139 128 -57 17 -108 33 -114 35 -7 2 -19
-22 -29 -58 -10 -34 -41 -143 -71 -241 -29 -99 -52 -181 -51 -182 1 -1 64 -20
141 -43 218 -65 257 -57 338 62 22 34 43 64 44 66 7 8 94 -22 94 -33 0 -23
-98 -290 -107 -293 -6 -2 -133 33 -284 77 -556 163 -519 151 -519 174 0 27 15
50 27 43 6 -4 26 -2 45 4 45 12 56 33 113 227 24 81 80 271 125 422 44 151 82
293 83 314 1 33 -4 43 -34 70 -32 28 -35 34 -27 59 5 15 10 27 11 27 1 0 70
-20 152 -44z m-1107 2 c-2 -13 -11 -24 -23 -26 -43 -8 -58 -33 -51 -87 5 -46
159 -602 169 -612 3 -2 16 29 30 69 14 40 60 165 102 278 84 225 99 298 70
330 -10 11 -26 20 -37 20 -13 0 -18 7 -18 25 l0 25 145 0 c139 0 145 -1 145
-20 0 -12 -10 -24 -24 -30 -51 -19 -58 -35 -270 -580 l-122 -315 -50 0 -49 0
-47 155 c-25 85 -76 254 -113 375 -37 121 -74 244 -82 273 -16 52 -54 102 -79
102 -8 0 -14 9 -14 20 0 19 7 20 161 20 l160 0 -3 -22z"/>
<path d="M2955 6159 c-253 -9 -496 -18 -539 -18 l-79 -1 6 -157 c3 -87 11
-318 18 -513 l11 -355 64 -213 c35 -117 65 -223 65 -235 1 -15 3 -17 6 -6 3
13 24 17 106 23 56 3 163 11 237 16 74 5 207 14 295 20 88 5 192 13 231 16
l71 6 6 -39 7 -39 147 22 c82 13 165 25 186 29 l37 5 0 -514 c0 -310 4 -525
10 -540 l10 -26 1330 0 1330 0 9 23 c5 12 9 253 10 535 l2 512 -46 0 -45 0 -2
-487 -3 -488 -1257 -3 c-1219 -2 -1257 -2 -1263 17 -7 24 2 968 10 981 22 35
25 -26 25 -475 l0 -485 1225 0 1225 0 0 471 0 471 -57 -6 c-32 -3 -166 -7
-298 -8 l-240 -3 -3 43 -3 42 -840 0 c-832 0 -839 0 -839 20 0 20 7 20 308 21
l307 1 -165 34 c-141 28 -187 33 -312 33 -145 1 -148 1 -153 24 -8 38 -34 200
-37 237 -4 42 -32 43 267 -12 121 -22 236 -42 256 -45 l36 -5 27 111 c15 61
24 115 21 121 -3 5 -19 10 -35 10 -24 0 -33 -7 -49 -39 -11 -21 -32 -52 -46
-70 -32 -38 -61 -40 -213 -14 -95 16 -103 19 -98 38 2 11 17 92 32 180 15 88
30 164 34 168 11 12 160 -20 181 -39 10 -9 20 -33 24 -54 6 -33 11 -40 36 -45
17 -4 31 -5 33 -3 1 1 12 59 24 127 18 100 20 126 10 133 -23 14 -56 9 -62
-10 -4 -11 -17 -29 -31 -42 -24 -23 -26 -23 -110 -10 -47 7 -88 16 -90 20 -9
14 58 330 70 330 6 0 61 -9 121 -20 96 -17 112 -23 136 -49 19 -21 29 -47 34
-81 6 -43 10 -50 30 -51 13 -1 30 -2 37 -3 13 -1 50 184 38 196 -3 3 -109 25
-236 48 -126 22 -252 45 -278 50 -68 14 -87 13 -87 -6 0 -9 11 -27 25 -40 14
-13 25 -34 25 -48 0 -26 -49 -309 -98 -564 -17 -84 -35 -159 -42 -167 -27 -32
-38 -16 -50 73 -23 167 -58 383 -62 388 -3 2 -45 -3 -94 -11 -214 -35 -417
-65 -420 -63 -1 2 -7 116 -14 253 -12 256 -14 276 -27 274 -4 -1 -215 -10
-468 -20z m255 -314 c0 -75 -3 -95 -14 -95 -8 0 -20 -2 -28 -5 -8 -3 -24 15
-42 50 -42 81 -62 89 -207 80 l-119 -7 0 -67 c0 -36 3 -110 7 -164 l6 -99 86
7 c95 8 114 18 131 71 10 28 16 34 41 34 28 0 29 -2 29 -48 0 -27 3 -83 6
-125 l7 -77 -35 0 c-30 0 -35 4 -47 36 -17 46 -43 55 -142 47 l-82 -6 7 -90
c3 -50 6 -130 6 -179 l0 -88 93 0 c175 1 210 19 243 124 16 50 20 54 51 58
l34 4 -3 -115 -3 -116 -115 -6 c-63 -4 -199 -9 -302 -13 -185 -6 -188 -6 -188
14 0 13 10 24 25 30 14 5 30 21 35 34 5 15 4 153 -4 364 -13 360 -14 364 -63
383 -13 5 -23 17 -23 28 0 22 -3 22 458 29 l152 2 0 -95z m653 -392 c3 -5 8
-34 12 -65 7 -55 6 -58 -14 -58 -15 0 -25 9 -33 30 -5 17 -18 35 -28 40 -24
13 -67 13 -75 1 -4 -8 34 -282 50 -358 3 -14 15 -25 30 -29 41 -10 29 -31 -22
-38 -27 -4 -63 -10 -80 -13 -37 -6 -45 11 -16 32 16 12 15 25 -12 204 -30 200
-30 200 -79 181 -19 -7 -28 -21 -37 -55 -8 -33 -16 -45 -30 -45 -11 0 -19 6
-20 13 0 6 -4 34 -8 60 -6 33 -5 50 3 53 19 7 290 52 323 53 17 0 34 -2 36 -6z
m500 -860 c-75 -26 -114 -99 -121 -227 -8 -154 25 -253 95 -286 25 -12 33 -21
33 -42 0 -32 -15 -35 -71 -17 -55 19 -97 56 -126 112 -24 46 -28 66 -31 167
-3 100 -1 123 19 174 29 80 80 133 149 156 l55 19 3 -27 c2 -14 0 -28 -5 -29z
m185 32 c8 -3 12 -27 12 -70 0 -62 -1 -65 -24 -65 -18 0 -29 10 -43 38 -11 22
-31 43 -50 52 -24 11 -33 22 -33 41 l0 26 63 -9 c34 -4 68 -10 75 -13z m292 0
c0 -8 -11 -25 -25 -39 l-25 -25 0 -271 0 -270 -69 0 c-80 0 -96 12 -55 45 l28
22 0 242 c1 240 1 243 -21 261 -39 31 -28 39 65 43 48 1 90 4 95 5 4 1 7 -5 7
-13z m1188 0 c18 -3 48 -20 67 -36 64 -56 57 -150 -16 -212 l-40 -35 36 -21
c46 -27 79 -97 72 -152 -13 -95 -75 -141 -199 -147 -77 -4 -78 -4 -78 21 0 22
5 25 56 30 71 7 100 27 115 77 27 90 -27 160 -123 160 -47 0 -48 1 -48 30 0
29 1 30 49 30 87 0 138 69 110 148 -14 39 -54 62 -109 62 -41 0 -58 15 -47 43
5 14 85 15 155 2z m-738 -6 c0 -6 -10 -19 -22 -29 -23 -18 -23 -22 -22 -227 1
-236 8 -263 70 -289 26 -11 34 -20 34 -39 0 -17 -6 -25 -17 -25 -37 0 -94 22
-124 47 -54 46 -59 71 -59 302 0 177 -2 212 -16 225 -8 9 -20 16 -25 16 -5 0
-9 7 -9 15 0 12 17 15 95 15 62 0 95 -4 95 -11z m320 1 c0 -5 -11 -20 -25 -34
l-25 -26 0 -199 c2 -249 -11 -289 -105 -332 -56 -26 -75 -24 -75 6 0 19 8 28
35 40 60 24 66 53 63 298 -3 209 -3 212 -25 222 -13 5 -23 15 -23 22 0 10 24
13 90 13 50 0 90 -4 90 -10z m230 -295 l0 -305 -75 0 c-68 0 -75 2 -75 20 0
11 7 20 15 20 30 0 35 39 35 270 l0 231 -25 25 c-14 14 -25 29 -25 34 0 6 34
10 75 10 l75 0 0 -305z m-780 -210 l0 -95 -115 0 -115 0 0 25 c0 23 4 25 48
25 81 0 101 19 128 128 2 6 15 12 29 12 25 0 25 0 25 -95z m-500 -5 c0 -80 -3
-83 -100 -96 l-50 -7 0 29 c0 23 7 32 33 44 21 10 39 30 52 58 14 31 25 42 42
42 22 0 23 -4 23 -70z"/>
<path d="M1241 5965 c-34 -8 -102 -25 -150 -39 -47 -13 -151 -41 -231 -61 -80
-20 -149 -40 -154 -45 -14 -14 2 -60 22 -60 9 0 34 -5 54 -11 61 -16 47 25
243 -747 52 -205 95 -391 95 -413 0 -31 -7 -47 -28 -68 -15 -15 -33 -30 -40
-32 -9 -3 -10 -15 -6 -38 6 -29 10 -32 33 -28 47 8 475 125 531 145 235 82
380 236 426 453 23 109 14 272 -24 419 -79 306 -238 487 -467 529 -79 15 -226
13 -304 -4z m159 -116 c180 -29 320 -194 390 -459 42 -161 53 -301 33 -412
-29 -165 -114 -258 -290 -319 -60 -20 -184 -51 -188 -47 -2 4 -85 324 -204
795 l-99 393 36 9 c21 5 57 15 82 22 41 10 123 25 160 28 8 0 44 -4 80 -10z"/>
<path d="M5930 5805 l0 -125 39 0 c37 0 40 2 46 38 17 98 64 143 155 150 l60
4 0 -399 c0 -384 -1 -401 -20 -426 -11 -13 -31 -28 -45 -31 -16 -4 -25 -13
-25 -26 0 -19 7 -20 160 -20 150 0 160 1 160 19 0 11 -12 23 -30 31 -61 25
-60 17 -60 452 l0 398 45 0 c93 0 141 -41 166 -142 12 -47 14 -48 51 -48 l38
0 0 125 0 125 -370 0 -370 0 0 -125z"/>
<path d="M5318 5737 c-97 -28 -174 -104 -214 -211 -30 -79 -27 -289 5 -370 27
-69 78 -129 135 -159 36 -19 56 -22 166 -21 81 0 139 6 165 15 l40 14 3 81 c3
85 -2 96 -44 90 -19 -3 -24 -9 -51 -71 -21 -47 -68 -75 -126 -75 -65 0 -131
49 -161 120 -25 62 -38 188 -27 282 20 173 79 249 193 250 62 0 95 -21 123
-80 17 -36 24 -41 53 -42 l32 0 0 80 0 79 -37 11 c-64 18 -203 21 -255 7z"/>
<path d="M6964 5645 c-3 -25 -5 -47 -3 -49 2 -2 23 -7 46 -11 45 -7 44 -8 58
61 6 29 4 32 -26 38 -62 12 -67 9 -75 -39z"/>
<path d="M6890 5505 c0 -9 10 -25 22 -34 l21 -18 -28 -147 c-26 -142 -40 -176
-71 -176 -8 0 -14 -8 -14 -18 0 -15 13 -21 68 -31 37 -7 77 -15 90 -18 17 -4
22 -1 22 15 0 11 -7 22 -15 26 -23 8 -19 66 15 228 17 78 30 148 30 155 0 11
-16 16 -97 28 -36 6 -43 4 -43 -10z"/>
<path d="M4806 4874 c-3 -8 -6 -24 -6 -35 0 -18 14 -19 501 -19 l500 0 -3 33
-3 32 -491 3 c-442 2 -492 1 -498 -14z"/>
</g>
</svg>
