<?xml version="1.0" standalone="no"?>
<!DOCTYPE svg PUBLIC "-//W3C//DTD SVG 20010904//EN"
 "http://www.w3.org/TR/2001/REC-SVG-20010904/DTD/svg10.dtd">
<svg version="1.0" xmlns="http://www.w3.org/2000/svg"
 width="489.008000pt" height="146.308000pt" viewBox="0 0 489.008000 146.308000"
 preserveAspectRatio="xMidYMid meet">

<g transform="translate(8.304000,136.304000) scale(0.100000,-0.100000)"
fill="#000000" stroke="none">
<path d="M81 1248 c-13 -7 -34 -26 -45 -41 -21 -28 -21 -39 -24 -520 -1 -271
0 -516 4 -545 11 -99 89 -148 162 -102 56 35 62 63 62 309 0 266 -8 251 142
251 143 0 138 8 138 -232 0 -106 5 -210 10 -230 23 -82 111 -133 192 -109 41
13 74 40 114 96 l22 30 17 -43 c10 -23 29 -51 43 -62 31 -25 98 -26 131 -4 49
35 51 55 51 477 0 292 3 396 12 405 19 19 133 15 149 -5 11 -13 15 -96 17
-417 4 -438 4 -441 63 -472 42 -21 88 -11 125 27 l29 30 5 459 c4 349 8 462
18 472 19 19 133 23 156 5 17 -13 20 -28 20 -123 1 -98 4 -115 29 -169 44 -94
115 -157 212 -187 16 -5 91 -13 165 -17 191 -12 230 -37 230 -150 0 -42 -5
-56 -30 -85 -42 -47 -91 -56 -319 -56 -179 0 -190 -1 -222 -23 -67 -45 -60
-145 12 -182 27 -15 64 -16 273 -13 263 4 281 8 374 70 167 114 187 404 38
554 -74 73 -135 94 -306 104 -147 8 -184 19 -215 66 -22 34 -23 109 -2 150 29
55 74 69 227 69 l135 0 45 -36 c25 -20 54 -39 65 -44 11 -4 81 -11 155 -14
131 -6 135 -7 147 -31 10 -19 13 -121 13 -415 0 -369 1 -392 20 -422 27 -45
84 -62 133 -38 67 32 67 31 67 522 0 364 2 443 14 459 12 16 27 19 96 19 61 0
83 -4 90 -15 5 -8 10 -50 10 -93 0 -54 6 -95 21 -135 37 -98 36 -110 -15 -176
-54 -72 -78 -143 -78 -233 0 -160 85 -278 239 -336 52 -19 83 -22 283 -25 151
-3 243 0 279 8 41 9 63 9 97 0 37 -11 48 -10 81 6 65 32 73 62 73 267 0 104 4
186 10 198 11 20 54 26 79 10 7 -5 66 -107 130 -227 93 -175 123 -223 151
-242 46 -31 94 -24 133 18 48 53 40 88 -63 286 -49 94 -90 182 -90 193 0 13
23 43 59 76 174 164 159 449 -29 577 -88 60 -149 71 -368 64 -215 -7 -178 -7
-478 0 -215 5 -236 4 -292 -15 -76 -26 -92 -26 -140 -1 -38 20 -52 21 -438 16
-438 -6 -417 -5 -659 -3 -152 1 -176 -1 -228 -21 l-59 -21 -48 24 -49 25 -380
0 c-217 0 -390 -4 -405 -10 -14 -5 -43 -26 -66 -46 l-41 -37 -42 41 c-50 49
-91 61 -136 38 -59 -31 -65 -51 -71 -245 l-5 -176 -159 -3 c-218 -4 -206 -14
-206 179 0 157 -8 197 -47 232 -27 24 -82 31 -112 15z m59 -308 l0 -220 205 0
c308 0 298 11 305 -330 l5 -235 25 0 25 0 5 499 c4 387 8 500 18 504 9 3 12
-101 12 -499 0 -453 -2 -504 -17 -521 -21 -24 -58 -23 -83 2 -19 19 -20 33
-20 244 0 124 -4 236 -10 250 -20 55 -45 61 -280 66 l-215 5 -3 215 c-2 217
-1 240 18 240 6 0 10 -76 10 -220z m1600 210 c0 -6 -128 -10 -364 -10 -386 0
-393 -1 -384 -47 3 -17 20 -18 206 -21 l202 -2 0 -476 c0 -376 -3 -475 -12
-471 -10 3 -12 59 -10 248 2 134 0 340 -4 457 l-6 212 -182 0 c-148 0 -186 3
-204 16 -26 18 -29 60 -5 86 15 17 40 18 390 18 242 0 373 -4 373 -10z m540 1
c0 -5 -62 -11 -137 -14 -76 -3 -156 -11 -178 -19 -22 -7 -61 -33 -86 -58 -39
-37 -49 -55 -60 -104 -16 -72 -2 -151 37 -207 32 -47 112 -89 168 -89 48 0 78
-15 58 -28 -19 -13 -113 3 -158 26 -89 46 -137 126 -137 232 0 122 68 222 173
255 50 15 320 21 320 6z m900 -1 c0 -6 -128 -10 -364 -10 -386 0 -393 -1 -384
-47 3 -17 20 -18 206 -21 l202 -2 0 -476 c0 -376 -3 -475 -12 -471 -10 3 -12
81 -9 358 2 195 0 400 -4 457 l-7 102 -182 0 c-148 0 -186 3 -204 16 -26 18
-29 60 -5 86 15 17 40 18 390 18 242 0 373 -4 373 -10z m670 1 c0 -6 -91 -11
-212 -13 -212 -3 -213 -3 -260 -31 -84 -49 -128 -162 -98 -251 6 -20 27 -59
46 -87 19 -28 34 -53 34 -55 0 -13 -24 0 -46 24 -89 97 -90 257 -1 351 62 65
87 71 325 71 124 0 212 -4 212 -9z m536 -6 c107 -32 174 -126 174 -244 0 -83
-15 -132 -58 -181 -62 -74 -93 -83 -292 -89 l-175 -6 -3 -252 c-2 -216 -5
-253 -17 -253 -13 0 -15 37 -15 265 l0 265 158 0 c232 0 304 26 353 127 32 65
32 170 1 230 -26 49 -79 95 -130 112 -21 7 -113 15 -209 18 -95 3 -173 9 -173
14 0 16 331 11 386 -6z m-241 -104 c201 -7 243 -19 272 -75 21 -39 20 -118 -1
-151 -33 -50 -67 -59 -262 -64 -255 -8 -254 -7 -254 -295 0 -180 -1 -185 -22
-200 -18 -13 -56 -16 -210 -16 -219 0 -277 10 -325 54 -67 61 -51 168 31 210
32 16 67 21 189 25 l149 6 29 33 c40 45 40 99 0 144 -29 32 -29 32 -152 38
l-123 7 -38 44 c-70 81 -72 163 -5 213 26 19 45 21 247 26 120 3 222 9 227 13
4 5 21 6 38 2 16 -4 111 -10 210 -14z m-3255 -41 c8 -15 8 -27 -2 -47 -18 -36
-36 -40 -44 -9 -14 58 21 102 46 56z m108 -496 c-2 -246 -6 -378 -13 -377 -10
3 -18 750 -8 766 19 31 23 -50 21 -389z m2667 138 c0 -10 -30 -14 -130 -15
-79 -2 -147 -8 -173 -16 -56 -19 -120 -75 -143 -125 -41 -90 -10 -223 63 -279
69 -53 105 -60 346 -65 122 -2 222 -8 222 -13 0 -5 -97 -9 -218 -9 -247 0
-290 8 -364 65 -110 84 -128 266 -36 371 57 65 117 87 253 95 156 8 180 7 180
-9z m-1374 -7 c100 -34 159 -114 167 -226 6 -90 -17 -159 -73 -215 -66 -66
-107 -74 -362 -74 -135 0 -213 4 -213 10 0 6 70 10 190 10 205 0 274 10 332
46 75 48 115 151 97 249 -21 112 -92 174 -217 191 -29 3 -52 10 -52 15 0 14
83 10 131 -6z m-2151 -271 c0 -192 -3 -245 -12 -242 -10 4 -14 64 -16 246 -2
211 0 242 13 242 13 0 15 -33 15 -246z m4319 -20 c107 -205 111 -214 96 -220
-6 -3 -26 26 -44 63 -18 38 -66 129 -107 204 -70 129 -95 194 -59 159 7 -8 59
-101 114 -206z"/>
</g>
</svg>
