<?xml version="1.0" standalone="no"?>
<!DOCTYPE svg PUBLIC "-//W3C//DTD SVG 20010904//EN"
 "http://www.w3.org/TR/2001/REC-SVG-20010904/DTD/svg10.dtd">
<svg version="1.0" xmlns="http://www.w3.org/2000/svg"
 width="1024.000000pt" height="1024.000000pt" viewBox="0 0 1024.000000 1024.000000"
 preserveAspectRatio="xMidYMid meet">

<g transform="translate(0.000000,1024.000000) scale(0.100000,-0.100000)"
fill="#000000" stroke="none">
<path d="M4900 9804 c-408 -28 -727 -79 -1029 -164 -649 -184 -1199 -471
-1736 -907 -153 -125 -493 -463 -621 -618 -457 -554 -783 -1204 -954 -1905
-40 -164 -86 -444 -106 -650 -21 -205 -24 -661 -6 -845 72 -737 286 -1400 645
-2000 134 -225 367 -545 508 -699 l51 -56 -11 -98 c-18 -158 7 -303 77 -437
46 -87 170 -215 262 -268 183 -106 415 -119 612 -35 47 20 47 20 75 0 52 -36
307 -175 413 -225 519 -243 1008 -383 1560 -444 216 -23 732 -23 955 0 688 74
1364 299 1936 643 l116 70 37 -32 c57 -49 95 -54 415 -54 343 0 376 5 435 64
56 56 71 110 71 256 -1 125 -14 168 -69 219 -22 20 -24 27 -13 45 7 13 12 64
12 127 l1 106 75 84 c214 238 449 570 607 854 679 1225 777 2685 267 3995
-365 937 -1043 1751 -1897 2275 -76 47 -96 64 -92 78 5 15 1 17 -19 12 -19 -5
-52 8 -136 55 -357 199 -843 375 -1282 464 -151 30 -362 61 -519 76 -121 11
-546 20 -640 14z m500 -154 c427 -27 832 -109 1225 -248 137 -48 306 -116 358
-143 l26 -14 -61 -100 c-34 -55 -63 -102 -65 -104 -2 -3 -62 56 -134 130
l-130 134 6 -55 c3 -30 9 -72 12 -92 l5 -37 -108 39 c-485 170 -1006 252
-1523 237 -388 -11 -657 -51 -1029 -153 -574 -157 -1068 -412 -1557 -802 -165
-132 -507 -476 -639 -642 -527 -665 -835 -1416 -928 -2265 -17 -159 -17 -703
0 -849 100 -831 384 -1541 875 -2186 44 -58 93 -119 110 -137 l30 -32 -51 -58
c-27 -32 -64 -80 -80 -106 l-31 -49 -88 107 c-348 420 -632 932 -803 1445
-409 1227 -285 2547 346 3675 203 363 438 671 748 981 252 251 447 410 731
596 813 534 1780 789 2755 728z m185 -424 c274 -33 539 -92 805 -178 195 -63
280 -98 280 -114 0 -12 -9 -14 -42 -10 -93 11 -228 17 -228 9 0 -4 43 -51 95
-103 l96 -96 -43 -31 c-71 -51 -176 -163 -236 -251 -39 -57 -61 -81 -71 -77
-208 63 -394 70 -497 20 -67 -33 -96 -70 -144 -186 -20 -50 -46 -102 -56 -116
l-19 -26 -174 13 c-419 31 -857 -28 -1230 -166 -332 -123 -692 -362 -952 -631
-508 -526 -881 -1374 -973 -2210 -9 -78 -16 -149 -16 -158 0 -13 -6 -15 -30
-10 -51 11 -55 -4 -10 -50 l41 -42 -7 -75 -7 -76 -41 19 c-65 29 -188 26 -253
-6 -74 -37 -74 -49 5 -70 98 -26 174 -68 233 -127 63 -65 75 -92 84 -191 l7
-79 -83 66 c-97 77 -211 136 -324 168 -120 34 -306 31 -430 -6 -99 -30 -178
-73 -227 -123 l-32 -33 55 0 c246 0 573 -140 690 -295 92 -122 98 -197 39
-483 -76 -370 -75 -521 1 -699 32 -76 122 -204 190 -271 54 -53 60 -62 43 -68
-10 -4 -42 -17 -71 -29 l-51 -23 -24 26 c-106 116 -275 351 -395 550 -303 501
-494 1063 -570 1674 -25 202 -25 703 0 908 116 948 507 1767 1162 2439 700
718 1608 1141 2640 1231 147 13 617 4 770 -14z m1703 -121 c-2 -3 -50 -25
-107 -49 -69 -31 -103 -41 -106 -33 -2 7 -6 37 -9 67 -4 30 -9 74 -12 98 l-6
43 122 -61 c67 -34 120 -63 118 -65z m-471 -120 c37 -41 71 -75 75 -75 4 0 26
32 50 72 39 65 43 69 49 47 4 -13 8 -42 8 -64 2 -74 7 -74 137 -17 64 29 118
51 120 49 1 -1 -31 -47 -71 -102 -41 -55 -75 -105 -75 -110 0 -6 31 -22 69
-35 39 -13 68 -27 66 -30 -2 -4 -34 -15 -70 -25 -36 -9 -65 -22 -65 -28 0 -5
25 -43 55 -84 31 -40 54 -73 51 -73 -2 0 -47 16 -99 35 -53 19 -98 31 -101 27
-2 -4 -8 -37 -12 -72 -10 -95 -15 -99 -57 -39 -34 49 -35 53 -22 79 74 144
-45 289 -206 252 l-53 -13 -33 33 -33 33 80 -3 80 -4 0 28 c0 16 -6 66 -14
112 -7 45 -10 82 -5 82 4 0 38 -34 76 -75z m655 17 c321 -198 551 -377 822
-642 243 -239 430 -462 601 -720 726 -1093 946 -2430 609 -3700 -95 -359 -262
-762 -454 -1096 -86 -149 -261 -406 -367 -539 l-88 -110 -6 66 c-8 80 -38 142
-82 171 l-33 21 92 123 c443 593 717 1296 816 2094 18 144 18 737 0 885 -45
368 -107 644 -216 961 -289 843 -856 1595 -1588 2107 -69 48 -103 78 -97 84 6
6 -10 18 -48 32 -93 35 -185 91 -179 107 3 8 24 40 48 72 23 31 52 72 65 90
13 17 28 32 33 32 5 0 38 -17 72 -38z m-716 -314 c-4 -13 -10 -58 -13 -100 -5
-73 -8 -79 -37 -97 -17 -11 -43 -30 -59 -41 l-27 -22 -15 36 c-9 20 -18 62
-21 95 l-7 58 47 32 c49 34 102 60 125 61 9 0 11 -7 7 -22z m94 -17 c22 -42
-1 -111 -36 -111 -13 0 -14 10 -8 58 3 31 8 60 11 65 8 13 22 8 33 -12z m566
-119 c303 -204 626 -491 850 -757 564 -668 898 -1475 975 -2354 17 -195 6
-644 -20 -836 -77 -567 -251 -1083 -527 -1561 -75 -131 -235 -366 -326 -481
l-73 -92 -248 -1 -249 0 31 37 c81 97 133 170 157 222 79 167 72 294 -30 549
-56 139 -76 205 -76 251 0 44 29 109 70 161 69 87 263 203 362 216 26 4 48 10
48 15 0 12 -52 45 -90 57 -56 17 -141 23 -203 13 l-59 -8 6 29 c41 206 50 318
51 638 0 364 -10 476 -70 775 -143 709 -475 1398 -878 1822 -47 48 -126 124
-176 168 -105 91 -101 75 -45 210 41 100 54 192 35 261 -23 85 -136 203 -288
301 -34 21 -53 41 -53 53 0 41 199 220 245 220 7 0 54 -61 106 -135 52 -74 96
-135 99 -135 3 0 13 62 23 137 9 75 19 138 21 140 2 2 78 -24 170 -58 92 -33
170 -59 172 -57 2 3 -40 65 -95 139 -95 130 -103 148 -61 149 9 0 74 -39 146
-88z m-861 -153 c14 -26 12 -31 -28 -91 -23 -36 -47 -73 -53 -84 -11 -18 -12
-18 -32 -1 -11 10 -34 45 -52 78 l-32 61 37 54 c21 29 56 75 78 100 l41 46 14
-68 c7 -37 20 -80 27 -95z m-470 -89 c28 -6 67 -16 87 -22 l36 -11 -16 -33
c-14 -30 -20 -34 -57 -34 -105 0 -78 -83 54 -165 110 -68 287 -122 357 -109
19 3 39 15 45 26 9 17 4 26 -35 64 -41 39 -45 46 -36 69 5 14 14 25 20 25 15
0 155 -95 202 -138 49 -44 91 -114 86 -144 -2 -18 -15 -27 -58 -42 -49 -16
-63 -17 -129 -6 -41 6 -79 14 -86 16 -7 3 -17 -13 -24 -38 -21 -68 -106 -241
-129 -262 -91 -80 -427 8 -704 186 -86 55 -119 98 -120 155 0 23 22 94 55 179
105 269 122 289 257 307 23 4 139 -10 195 -23z m257 -67 c12 -21 38 -55 56
-75 32 -36 33 -39 21 -73 -7 -19 -19 -35 -26 -35 -13 0 -109 42 -131 58 -10 7
-8 22 12 76 26 68 34 86 41 86 2 0 14 -17 27 -37z m-890 -289 c35 -6 37 -8 30
-33 -13 -49 -6 -135 16 -184 28 -62 186 -251 271 -323 286 -241 670 -386 991
-371 63 3 131 11 150 17 49 18 99 57 111 88 10 26 10 25 49 -29 94 -130 274
-535 359 -804 190 -606 214 -1260 67 -1773 -62 -215 -153 -418 -292 -651 -44
-75 -49 -79 -88 -84 -22 -3 -42 -4 -44 -2 -3 2 3 25 12 51 9 26 14 49 12 51
-2 2 -21 -15 -42 -39 -46 -50 -89 -92 -137 -133 l-35 -30 -31 32 c-58 61 -90
64 -543 61 l-403 -3 -45 -27 c-25 -14 -52 -38 -59 -51 l-13 -25 -37 38 c-49
52 -125 74 -256 75 -130 0 -201 -21 -254 -75 l-38 -39 -14 25 c-7 14 -34 38
-59 52 l-45 27 -398 3 c-451 3 -479 0 -540 -63 l-34 -35 -28 30 c-63 66 -234
96 -374 66 -94 -20 -128 -40 -168 -100 l-33 -48 0 55 c0 68 -24 209 -52 302
-44 152 -112 265 -236 397 -70 74 -195 179 -243 203 -29 15 -29 15 21 -79 85
-158 122 -352 101 -531 -17 -138 -32 -189 -57 -193 -19 -3 -22 3 -29 55 -11
87 -51 234 -95 347 -34 87 -39 109 -34 156 4 47 1 62 -23 105 -30 53 -102 115
-134 115 -11 0 -50 31 -89 69 -72 72 -194 154 -288 193 l-54 23 6 85 c40 498
206 1077 441 1527 158 303 323 533 539 748 341 340 693 542 1151 660 113 29
320 65 450 79 55 6 521 -3 567 -10z m2308 -3254 c42 -23 29 -134 -18 -159 -57
-30 -83 98 -31 150 22 22 24 22 49 9z m-5406 -90 c99 -147 128 -254 129 -468
0 -89 -4 -157 -9 -162 -11 -11 -118 202 -148 292 -25 76 -47 408 -27 408 4 0
29 -31 55 -70z m-236 14 c56 -28 96 -81 108 -143 7 -32 6 -33 -14 -22 -12 6
-51 38 -87 70 -37 32 -91 70 -121 85 -30 15 -54 29 -54 31 0 3 26 5 58 5 42 0
72 -7 110 -26z m551 -574 c33 -64 72 -146 85 -182 l25 -65 -62 -7 c-34 -3 -90
-12 -124 -20 -35 -7 -63 -9 -63 -5 0 5 9 64 20 133 11 68 21 165 23 215 2 87
3 90 19 69 9 -12 44 -74 77 -138z m5104 13 c4 -3 -9 -16 -30 -27 -20 -12 -56
-45 -80 -74 -47 -58 -56 -63 -61 -31 -5 26 14 72 38 94 33 30 118 54 133 38z
m-5635 -167 c57 -55 135 -143 175 -195 l72 -96 -5 -63 c-8 -97 5 -1005 15
-1026 15 -33 -82 40 -163 121 -82 85 -142 195 -163 301 -14 74 -8 219 17 422
24 200 16 357 -25 478 -29 86 -52 134 -99 202 -27 40 56 -28 176 -144z m1137
19 c30 -60 63 -142 74 -181 l19 -71 -57 38 c-31 20 -76 45 -99 55 -39 15 -43
19 -38 43 4 14 9 80 13 145 7 140 5 141 88 -29z m4535 -307 c-26 -60 -35 -169
-21 -253 7 -37 32 -129 56 -204 24 -75 46 -161 50 -191 7 -60 -12 -167 -41
-222 l-16 -31 -54 139 c-29 76 -82 213 -117 304 l-64 165 43 85 c43 83 171
267 180 258 2 -3 -5 -25 -16 -50z m-4767 22 c132 -21 232 -93 284 -205 25 -55
28 -70 28 -170 -1 -90 -5 -121 -23 -166 -60 -153 -202 -229 -424 -229 l-77 0
-3 -146 c-4 -182 1 -177 -151 -172 -76 2 -110 7 -116 16 -14 23 -25 996 -12
1020 6 12 28 26 49 31 102 28 338 39 445 21z m921 -21 c12 -14 35 -61 50 -105
23 -64 204 -542 311 -820 19 -49 22 -65 12 -78 -15 -20 -214 -78 -240 -70 -20
6 -35 36 -82 162 l-27 72 -168 0 -169 0 -29 -77 c-16 -43 -34 -91 -39 -107
-18 -57 -37 -57 -210 -4 -53 16 -63 22 -63 42 0 12 22 79 49 147 26 68 108
282 181 474 73 193 140 358 148 367 20 23 42 27 156 24 92 -2 100 -4 120 -27z
m1665 6 c11 -11 104 -240 206 -509 150 -396 183 -492 173 -502 -13 -12 -141
-55 -204 -68 -42 -9 -55 6 -89 96 -15 40 -34 88 -41 106 l-13 32 -172 -2 -171
-3 -33 -92 c-46 -125 -51 -133 -83 -132 -47 1 -214 53 -225 70 -7 12 17 86
101 300 60 156 142 367 181 469 39 102 77 196 84 210 22 42 52 51 164 48 87
-3 106 -7 122 -23z m1670 0 c11 -11 85 -191 164 -400 80 -209 164 -429 188
-488 37 -95 40 -110 27 -123 -8 -8 -61 -28 -118 -44 -122 -36 -137 -31 -166
47 -9 26 -27 73 -39 103 l-21 55 -171 3 -171 2 -31 -81 c-17 -45 -34 -92 -37
-105 -13 -53 -40 -55 -189 -9 -74 22 -85 29 -85 48 0 13 34 110 76 217 42 107
123 319 180 470 58 151 111 285 119 297 19 28 39 31 157 30 83 -2 100 -5 117
-22z m-2241 -104 c2 -75 -1 -118 -9 -127 -9 -11 -41 -14 -130 -14 l-119 0 0
-397 c0 -355 -2 -398 -17 -415 -14 -15 -32 -18 -118 -18 -72 0 -107 4 -121 14
-18 14 -19 33 -24 413 l-5 398 -119 3 c-67 1 -126 7 -133 14 -18 14 -18 219
-1 236 9 9 107 12 403 10 l390 -3 3 -114z m1680 0 c2 -72 -1 -118 -8 -125 -6
-6 -66 -13 -133 -16 l-122 -5 -5 -402 c-3 -221 -9 -405 -13 -410 -15 -15 -220
-16 -240 -1 -17 13 -19 43 -24 416 l-6 402 -117 0 c-77 0 -120 4 -128 12 -13
13 -18 229 -5 241 4 4 185 6 402 5 l396 -3 3 -114z m-1728 -309 c0 -5 -11 -35
-25 -68 l-24 -59 -1 62 c0 60 5 70 38 72 6 1 12 -3 12 -7z m-660 -54 c0 -60
-2 -59 -23 5 -15 45 -15 47 4 47 16 0 19 -7 19 -52z m1680 -5 c0 -31 -2 -54
-4 -52 -2 2 -14 28 -25 57 l-21 52 25 0 c24 0 25 -3 25 -57z m-3002 -527 c3
-15 -52 -146 -61 -146 -3 0 1 17 9 38 7 20 13 51 14 69 0 41 10 65 24 60 6 -2
12 -11 14 -21z m4103 -88 c10 -29 18 -54 19 -55 0 -2 -18 -3 -40 -3 -22 0 -40
3 -40 7 0 16 34 112 38 108 3 -2 13 -28 23 -57z m-3945 -46 c-7 -6 -66 -20
-66 -16 0 3 5 25 11 50 l12 45 23 -38 c12 -21 21 -39 20 -41z m-233 -34 c-5
-7 -38 -51 -73 -97 l-63 -83 -30 31 c-30 29 -30 31 -13 49 9 11 43 29 75 41
31 11 68 32 81 46 24 26 40 34 23 13z m-482 -149 c117 -33 217 -116 273 -226
9 -18 16 -39 16 -47 0 -16 -185 -116 -213 -116 -8 0 -28 22 -44 49 -78 124
-244 141 -345 34 -51 -54 -73 -118 -73 -218 0 -80 3 -97 30 -150 42 -84 93
-118 185 -123 37 -2 84 1 103 7 41 14 100 70 118 113 15 37 30 35 152 -21 103
-47 106 -56 51 -147 -67 -112 -163 -181 -292 -210 -284 -63 -556 113 -617 401
-53 253 56 510 262 618 128 66 252 78 394 36z m932 0 c29 -13 32 -18 109 -224
33 -88 111 -294 174 -457 63 -163 114 -302 114 -308 0 -15 -50 -35 -155 -61
l-88 -22 -22 25 c-12 14 -34 60 -49 104 -16 43 -33 85 -38 92 -8 9 -51 12
-171 10 l-160 -3 -37 -98 c-51 -137 -45 -134 -170 -101 -160 43 -156 25 -67
254 41 107 112 292 157 410 45 118 95 249 111 291 30 78 39 86 104 103 31 8
160 -2 188 -15z m722 2 l30 -6 5 -390 5 -390 184 -3 c124 -2 189 -6 199 -14
11 -10 13 -35 10 -116 -3 -89 -6 -106 -23 -119 -17 -12 -71 -13 -322 -11 -196
2 -306 7 -313 14 -7 7 -12 180 -17 514 -6 482 -6 503 12 516 20 15 171 18 230
5z m786 -1 c18 -10 19 -27 19 -511 0 -326 -4 -507 -10 -520 -10 -17 -22 -19
-128 -19 -79 0 -122 4 -130 12 -9 9 -12 138 -12 520 l0 509 23 9 c31 12 214
12 238 0z m809 -10 c17 -17 20 -33 19 -97 -1 -43 -4 -89 -8 -103 l-7 -25 -184
-5 -185 -5 -3 -72 -3 -73 148 0 c81 0 155 -5 163 -10 11 -7 16 -33 18 -104 5
-136 5 -136 -183 -136 l-146 0 3 -77 3 -78 192 -5 c105 -3 195 -9 200 -13 11
-12 4 -209 -9 -224 -8 -10 -81 -13 -324 -13 -288 0 -314 1 -323 18 -14 27 -26
983 -12 1009 6 12 21 24 33 26 13 2 150 5 306 6 270 1 283 0 302 -19z m389 10
c10 -5 94 -119 186 -252 92 -134 175 -251 184 -261 16 -17 17 -3 14 235 -3
161 0 258 6 268 15 21 228 28 255 7 17 -13 18 -36 17 -517 -1 -342 -5 -508
-13 -517 -7 -9 -43 -13 -124 -13 l-114 0 -27 39 c-16 22 -100 147 -188 277
l-160 238 -3 -264 c-1 -177 -6 -268 -14 -277 -8 -10 -39 -13 -132 -11 l-121 3
-6 110 c-9 158 -10 908 -1 921 4 6 14 14 22 17 25 9 200 8 219 -3z m1535 0
c26 -9 26 -11 26 -118 0 -71 -4 -112 -12 -120 -8 -8 -51 -12 -129 -12 l-118 0
-3 -390 c-2 -303 -6 -392 -16 -402 -20 -20 -239 -18 -252 2 -6 9 -10 170 -10
387 0 204 -3 378 -6 387 -5 13 -25 16 -118 16 -61 0 -118 5 -126 10 -11 7 -16
34 -18 109 -6 153 -38 141 397 141 210 0 370 -4 385 -10z m766 -10 c17 -17 20
-33 20 -97 0 -43 -6 -89 -13 -103 -13 -25 -13 -25 -192 -30 l-180 -5 -3 -72
-3 -73 150 0 c185 0 181 3 181 -119 0 -128 4 -125 -177 -131 l-148 -5 0 -75 0
-75 195 -6 c107 -3 196 -6 198 -7 7 -6 0 -207 -8 -223 -10 -18 -25 -19 -326
-19 l-314 0 -10 25 c-15 40 -26 975 -12 1002 15 28 29 29 360 31 250 2 263 1
282 -18z m-5500 -140 c0 -5 -4 -10 -10 -10 -5 0 -10 5 -10 10 0 6 5 10 10 10
6 0 10 -4 10 -10z m788 -39 c8 -5 12 -22 10 -45 l-3 -37 -16 45 c-17 46 -15
53 9 37z m-1331 -265 l58 -54 -32 -59 c-37 -68 -68 -85 -106 -60 -33 21 -51
77 -43 132 7 42 38 95 56 95 5 0 35 -24 67 -54z m2046 17 l67 -17 0 -83 0 -83
-75 0 -75 0 0 100 c0 55 3 100 8 100 4 0 37 -8 75 -17z m2547 -212 c0 -143 -4
-232 -10 -236 -7 -4 -10 75 -10 229 0 151 4 236 10 236 6 0 10 -83 10 -229z
m630 220 c0 -6 -4 -13 -10 -16 -5 -3 -10 1 -10 9 0 9 5 16 10 16 6 0 10 -4 10
-9z m-4810 -45 c0 -12 -23 -66 -28 -66 -4 1 -18 7 -30 14 l-24 13 34 21 c31
20 48 27 48 18z m4808 -511 c-17 -19 -18 -14 -18 157 0 132 3 177 13 181 9 3
13 -35 18 -157 5 -146 3 -163 -13 -181z m-4270 -89 c29 -15 59 -40 74 -64 15
-22 43 -49 62 -61 42 -27 124 -37 184 -23 39 9 56 6 158 -28 378 -127 788
-197 1221 -207 494 -12 913 47 1401 197 113 35 144 40 225 40 151 0 227 33
267 115 12 25 23 45 25 45 2 0 10 2 18 6 10 3 16 -4 20 -25 7 -35 59 -96 99
-117 16 -8 48 -18 71 -22 l41 -7 -125 -59 c-788 -373 -1644 -509 -2519 -400
-440 55 -890 185 -1323 385 l-159 72 38 19 c55 26 70 43 100 113 31 71 26 70
122 21z m3017 0 c14 -21 24 -40 21 -43 -10 -11 -96 -31 -96 -23 0 5 5 12 10
15 6 3 15 26 21 51 6 25 13 43 15 42 1 -2 15 -21 29 -42z m-896 -142 c179 3
342 6 361 7 19 1 67 -2 105 -6 l70 -9 -125 -22 c-278 -50 -386 -59 -730 -58
-244 0 -358 4 -460 17 -162 21 -377 56 -405 68 -12 4 47 8 140 9 88 1 169 5
179 9 10 4 42 1 70 -6 66 -18 276 -13 325 8 31 13 40 13 89 -4 50 -17 82 -18
381 -13z"/>
<path d="M1356 3953 c14 -32 30 -93 36 -137 17 -120 33 -137 212 -216 145 -64
176 -25 114 145 -31 83 -86 136 -163 158 -37 10 -83 34 -120 62 -33 25 -70 45
-82 45 l-23 0 26 -57z m99 -63 c3 -5 33 -19 66 -31 34 -12 73 -35 88 -50 32
-32 69 -135 54 -150 -15 -15 -170 47 -188 74 -11 17 -45 140 -45 163 0 8 19 4
25 -6z"/>
<path d="M8197 3682 c-23 -21 -63 -53 -88 -70 -51 -34 -76 -77 -85 -145 -7
-49 7 -87 33 -87 20 0 133 72 159 101 14 16 19 38 20 87 0 37 4 86 8 110 4 23
5 42 2 42 -4 0 -25 -17 -49 -38z m-6 -155 c-9 -24 -91 -87 -113 -87 -4 0 -8
11 -8 24 0 49 23 87 74 125 l51 38 3 -36 c2 -21 -2 -49 -7 -64z"/>
<path d="M4887 7592 c-24 -26 -21 -47 9 -71 47 -37 104 -21 104 29 0 52 -78
81 -113 42z"/>
<path d="M4165 7514 c-230 -56 -499 -291 -459 -401 36 -102 235 -95 462 18 84
41 118 65 182 127 97 96 123 152 96 208 -10 23 -29 40 -51 50 -43 18 -151 17
-230 -2z"/>
<path d="M4314 6934 c-146 -122 -319 -184 -572 -205 -160 -13 -185 -20 -180
-52 4 -26 51 -45 141 -54 l59 -6 -65 -34 c-259 -137 -417 -414 -417 -732 0
-151 29 -279 92 -404 31 -62 31 -60 -31 -71 -48 -9 -73 -33 -60 -58 10 -18 19
-19 157 -12 295 13 595 -46 880 -175 51 -23 103 -41 115 -39 32 4 34 42 3 69
l-26 23 55 49 c101 89 185 228 222 367 25 92 24 343 -1 460 -66 307 -223 508
-454 580 l-54 17 89 42 c201 97 287 211 209 277 -45 39 -74 32 -162 -42z
m-131 -523 c95 -33 168 -80 244 -157 57 -57 81 -92 116 -166 59 -123 72 -180
71 -313 -2 -173 -52 -303 -163 -426 -28 -32 -71 -71 -97 -87 l-45 -31 -43 19
c-170 72 -401 126 -621 143 l-150 12 -46 91 c-56 112 -74 190 -73 314 3 233
142 459 345 559 46 22 109 48 139 56 77 21 245 14 323 -14z"/>
<path d="M4067 6140 c-114 -20 -214 -98 -265 -208 -23 -49 -27 -70 -27 -152 1
-76 5 -105 22 -143 30 -66 115 -151 182 -184 49 -25 68 -28 151 -28 85 0 101
3 153 30 120 60 195 172 205 304 16 232 -192 420 -421 381z m-8 -141 c34 -34
41 -85 19 -134 -27 -60 -117 -73 -170 -26 -29 26 -33 35 -33 81 0 46 4 55 33
81 47 42 108 41 151 -2z m303 -365 c8 -18 7 -29 -6 -49 -31 -46 -101 -22 -94
34 6 50 79 61 100 15z"/>
<path d="M5523 6945 c-48 -34 -60 -163 -23 -241 39 -79 106 -85 73 -7 -26 63
-32 121 -18 186 17 80 11 92 -32 62z"/>
<path d="M3402 6910 c-62 -26 -122 -97 -122 -145 0 -50 21 -70 73 -69 106 2
205 129 154 197 -15 21 -73 30 -105 17z"/>
<path d="M5675 6868 c-33 -17 -45 -40 -45 -80 0 -46 43 -99 121 -149 28 -17
47 -35 42 -38 -4 -4 -34 -27 -67 -51 -153 -115 -254 -312 -290 -567 -28 -196
-17 -330 38 -478 35 -91 83 -163 169 -253 l71 -72 -22 -20 c-30 -28 -28 -58 2
-66 17 -4 54 8 123 39 156 71 305 117 503 154 71 13 148 17 307 18 228 0 254
5 219 44 -10 11 -32 23 -50 26 -70 14 -69 13 -48 48 66 110 102 265 102 440 0
152 -23 256 -86 385 -37 77 -61 110 -133 184 -79 81 -86 91 -69 101 21 14 24
40 6 54 -7 6 -59 13 -115 17 -191 13 -368 53 -488 111 -38 19 -105 63 -148 99
-78 66 -103 76 -142 54z m590 -443 c198 -51 337 -169 429 -366 88 -187 84
-367 -13 -562 l-46 -92 -151 -12 c-195 -15 -325 -42 -504 -104 -80 -27 -153
-52 -162 -55 -12 -4 -43 20 -106 82 -68 69 -97 106 -125 164 -97 200 -100 403
-8 595 47 100 102 169 180 229 152 117 343 163 506 121z"/>
<path d="M5930 6139 c-109 -22 -217 -107 -263 -207 -18 -38 -22 -66 -22 -147
0 -88 3 -107 27 -157 33 -71 101 -138 176 -175 49 -24 69 -28 147 -28 76 0 98
4 146 26 112 53 186 151 209 277 29 165 -72 341 -228 396 -55 20 -139 26 -192
15z m-21 -123 c33 -17 51 -54 51 -102 0 -54 -53 -104 -110 -104 -34 0 -48 6
-76 34 -28 28 -34 42 -34 76 0 34 6 48 34 76 38 38 85 45 135 20z m315 -389
c19 -53 -50 -90 -89 -47 -36 39 8 99 60 80 11 -4 24 -19 29 -33z"/>
<path d="M6846 6858 c-21 -29 -20 -57 3 -118 51 -135 207 -237 255 -168 21 30
20 56 -4 120 -50 134 -206 235 -254 166z"/>
<path d="M7220 5921 c-24 -46 5 -147 51 -171 60 -32 109 16 89 89 -22 82 -112
134 -140 82z"/>
<path d="M2810 5704 c-44 -38 -72 -99 -74 -160 -4 -159 168 -100 199 69 19
101 -52 152 -125 91z"/>
<path d="M7337 5392 c-22 -24 -22 -66 -1 -87 23 -22 46 -15 63 20 12 25 12 32
0 54 -18 33 -40 37 -62 13z"/>
<path d="M3445 5133 c-95 -21 -175 -79 -175 -128 0 -35 43 -79 102 -106 47
-21 67 -24 183 -24 115 0 136 3 182 23 69 32 97 63 97 109 0 76 -125 134 -283
132 -47 -1 -95 -3 -106 -6z"/>
<path d="M6447 5129 c-87 -20 -157 -76 -157 -125 0 -44 55 -92 132 -115 58
-18 88 -21 178 -17 94 4 115 8 166 34 137 68 115 165 -48 215 -64 20 -202 24
-271 8z"/>
<path d="M2468 5085 c-16 -9 -28 -18 -28 -20 0 -2 36 -23 81 -46 116 -61 191
-138 252 -261 47 -97 83 -138 118 -138 32 0 44 39 44 150 0 90 -3 111 -23 147
-26 51 -105 116 -182 152 -70 32 -218 41 -262 16z m264 -75 c66 -24 126 -73
144 -116 14 -34 19 -139 8 -168 -14 -36 -37 -13 -79 78 -42 91 -82 143 -155
198 l-35 27 32 1 c18 0 56 -9 85 -20z"/>
<path d="M5863 4963 c-6 -16 19 -43 62 -68 32 -19 -490 -166 -725 -205 -317
-52 -655 -41 -919 30 l-44 11 32 33 c91 94 -44 85 -149 -11 -52 -46 -90 -123
-90 -181 0 -45 14 -82 30 -82 5 0 26 33 46 72 l37 73 26 -35 c153 -203 400
-343 716 -406 66 -13 138 -18 270 -18 155 -1 193 3 273 23 300 75 488 234 592
504 16 39 33 73 38 75 9 3 47 -50 85 -118 14 -27 20 -30 32 -20 20 16 19 75
-2 136 -11 33 -34 67 -73 106 -47 46 -68 60 -124 77 -82 25 -105 26 -113 4z
m77 -185 c0 -14 -44 -91 -79 -137 -33 -44 -115 -81 -277 -126 -131 -36 -142
-40 -130 -52 13 -14 219 -5 271 11 27 8 51 14 53 12 9 -10 -131 -111 -197
-142 -122 -59 -205 -76 -383 -81 -287 -9 -527 53 -741 189 -66 43 -177 148
-177 169 0 3 26 0 58 -7 255 -61 665 -58 977 6 134 27 333 81 480 129 134 44
145 46 145 29z"/>
<path d="M7265 4861 c-97 -44 -161 -184 -111 -240 63 -69 216 61 216 182 0 64
-42 87 -105 58z"/>
<path d="M3380 4364 c1 -5 22 -26 49 -46 70 -54 101 -104 113 -185 6 -37 15
-85 20 -106 11 -46 71 -115 115 -134 55 -23 213 -14 213 12 0 18 -40 51 -92
73 -60 26 -76 52 -87 140 -14 114 -67 177 -185 221 -61 22 -146 37 -146 25z
m242 -141 c34 -35 48 -73 48 -125 0 -46 36 -117 72 -142 12 -9 19 -18 16 -21
-9 -9 -79 12 -107 31 -34 24 -61 91 -61 154 0 37 -8 72 -25 108 l-24 52 27
-14 c15 -8 39 -27 54 -43z"/>
<path d="M7270 4281 c-46 -14 -85 -39 -122 -78 -51 -53 -71 -105 -63 -162 22
-144 81 -150 122 -11 25 88 51 129 122 197 l66 63 -50 -1 c-27 0 -61 -4 -75
-8z m-49 -115 c-22 -32 -43 -77 -50 -111 -14 -62 -30 -68 -44 -15 -13 50 -1
92 36 127 74 70 108 70 58 -1z"/>
<path d="M6602 4140 c-109 -79 -126 -230 -25 -230 41 0 92 36 131 94 80 119 5
217 -106 136z"/>
<path d="M5355 4023 c-118 -36 -249 -41 -397 -14 -144 26 -148 26 -148 1 0
-46 150 -107 285 -117 177 -12 375 60 375 137 0 25 -13 24 -115 -7z"/>
<path d="M2824 3367 c-2 -7 -3 -65 -2 -128 l3 -114 77 -3 c118 -4 169 32 170
121 2 96 -49 137 -170 137 -51 0 -74 -4 -78 -13z"/>
<path d="M3815 3249 c-54 -150 -75 -213 -75 -224 0 -12 17 -15 78 -15 43 0 81
3 84 6 6 5 -66 231 -77 242 -2 3 -7 -1 -10 -9z"/>
<path d="M5447 3142 c-21 -64 -38 -120 -37 -124 0 -13 160 -9 160 3 0 20 -73
239 -79 239 -3 0 -23 -53 -44 -118z"/>
<path d="M7121 3148 c-23 -68 -41 -126 -41 -131 0 -4 39 -7 86 -7 65 0 85 3
81 13 -2 6 -21 64 -42 127 -20 63 -38 116 -40 118 -2 2 -21 -52 -44 -120z"/>
<path d="M3273 1920 c-43 -114 -75 -212 -71 -216 3 -3 42 -4 86 -2 l80 3 -43
120 c-38 106 -44 117 -52 95z"/>
</g>
</svg>
