<?xml version="1.0" standalone="no"?>
<!DOCTYPE svg PUBLIC "-//W3C//DTD SVG 20010904//EN"
 "http://www.w3.org/TR/2001/REC-SVG-20010904/DTD/svg10.dtd">
<svg version="1.0" xmlns="http://www.w3.org/2000/svg" width="395.650000pt" height="196.050000pt" viewBox="102.170000 24.450000 395.650000 196.050000" preserveAspectRatio="xMidYMid meet">
  <g transform="translate(0.000000,293.000000) scale(0.100000,-0.100000)" fill="#000000" stroke="none">
    <path d="M3001 2651 c-29 -10 -62 -27 -73 -38 -18 -19 -22 -19 -61 -5 -80 29
-169 -10 -197 -86 -10 -27 -28 -50 -48 -62 -66 -40 -87 -152 -43 -223 18 -30
21 -48 20 -148 -1 -63 -4 -139 -7 -169 l-7 -55 -75 -13 c-54 -9 -85 -10 -111
-2 -55 15 -120 11 -159 -10 -35 -18 -35 -18 -58 3 -46 43 -170 33 -212 -18
-19 -23 -6 -29 29 -11 38 20 71 20 97 1 10 -8 28 -15 40 -15 23 0 51 -28 79
-77 10 -18 22 -30 27 -27 4 3 2 15 -6 27 -31 48 -29 65 6 87 40 24 95 26 127
4 19 -14 30 -15 60 -6 20 6 67 16 105 21 38 6 73 16 77 23 4 6 8 28 8 48 0 19
2 71 4 115 2 44 5 100 6 124 1 38 3 42 17 30 13 -11 15 -36 14 -158 -3 -178
-4 -168 20 -174 19 -5 20 0 20 174 0 150 2 179 15 179 15 0 65 48 65 63 0 4
-9 3 -19 -3 -32 -16 -103 -12 -138 9 -63 39 -50 138 25 179 27 15 42 30 42 43
0 34 28 76 60 89 38 16 95 2 138 -35 37 -31 46 -31 38 -1 -8 31 24 56 72 56
68 0 116 -87 82 -150 -8 -15 -6 -20 10 -25 23 -7 50 -54 50 -86 0 -13 -17 -38
-40 -60 -22 -21 -40 -45 -40 -53 0 -8 -10 -22 -22 -30 -27 -19 -117 -22 -122
-3 -3 6 -7 26 -11 42 l-7 30 -14 -39 c-17 -48 -31 -65 -64 -79 l-25 -11 29 -4
c20 -2 36 4 55 22 23 22 28 23 45 10 25 -18 103 -18 138 0 26 14 29 13 57 -15
22 -21 39 -29 65 -29 l36 0 0 -110 c0 -91 3 -110 15 -110 8 0 29 -13 47 -30
17 -16 37 -30 45 -30 8 0 31 -9 53 -20 49 -25 62 -25 33 -1 l-22 18 39 18 c49
22 86 11 117 -34 12 -17 24 -27 28 -21 3 5 17 10 31 10 31 0 30 10 -3 42 -34
32 -73 48 -119 48 l-34 0 0 68 c-1 94 -24 142 -84 171 -52 26 -57 36 -21 45
45 11 70 90 41 132 -11 16 -12 28 -4 60 14 52 -11 109 -58 131 -18 9 -35 26
-38 39 -9 34 -54 82 -96 104 -58 29 -126 34 -189 11z m249 -232 c14 -25 12
-45 -6 -63 -23 -24 -31 -19 -26 14 3 20 -2 37 -12 49 -13 15 -14 20 -4 23 19
7 37 -2 48 -23z m-22 -211 c7 -7 12 -21 12 -33 0 -29 -19 -45 -51 -45 -34 0
-46 16 -19 23 13 3 22 17 26 36 7 34 14 37 32 19z m104 -238 c3 -56 1 -61 -17
-58 -17 3 -20 12 -23 61 -3 51 -1 57 17 57 17 0 20 -8 23 -60z"/>
    <path d="M2910 2432 c0 -15 -7 -38 -16 -50 -17 -25 -62 -30 -70 -7 -4 8 -13
15 -20 15 -11 0 -12 -4 -4 -19 5 -11 10 -31 10 -45 0 -25 3 -26 55 -26 116 0
163 66 94 131 -39 36 -49 36 -49 1z"/>
    <path d="M2800 2067 c-24 -12 -25 -16 -28 -125 -2 -89 1 -117 13 -135 8 -12
15 -29 15 -39 0 -11 7 -18 20 -18 11 0 25 -8 32 -19 11 -17 15 -16 71 25 32
24 81 52 108 61 31 11 48 22 44 30 -2 7 2 13 9 13 8 0 16 -5 18 -11 2 -7 16
-6 43 3 l40 13 2 88 c1 48 1 87 -1 87 -2 0 -20 -7 -39 -15 -60 -25 -106 -19
-167 20 -44 27 -65 35 -105 35 -27 0 -61 -6 -75 -13z m80 -112 c0 -28 -30 -38
-46 -16 -8 11 -9 20 -1 32 14 23 47 12 47 -16z m114 -18 c17 -17 -2 -47 -24
-38 -20 8 -24 32 -8 42 17 11 17 11 32 -4z m126 -17 c0 -5 -4 -10 -10 -10 -5
0 -10 5 -10 10 0 6 5 10 10 10 6 0 10 -4 10 -10z"/>
    <path d="M3090 1814 c-92 -25 -205 -101 -251 -169 -13 -19 -27 -35 -30 -35 -3
0 -11 37 -18 82 -19 123 -12 118 -144 118 -173 0 -271 -30 -369 -111 -26 -21
-49 -39 -52 -39 -3 0 -17 23 -31 50 -17 33 -35 55 -53 61 -38 15 -310 7 -341
-10 -23 -13 -24 -16 -17 -98 l6 -86 -39 36 c-87 78 -184 108 -349 109 -122 0
-220 -12 -309 -38 -62 -17 -61 -10 -33 -169 18 -107 20 -111 59 -145 l40 -35
26 -240 c15 -134 32 -245 38 -252 7 -6 57 -31 112 -54 l100 -43 153 -1 c116 0
155 3 161 13 4 7 2 50 -5 95 -8 45 -14 85 -14 88 0 4 17 9 38 12 20 3 45 8 55
12 12 5 17 2 17 -8 0 -18 75 -74 150 -112 54 -27 57 -28 179 -22 69 4 130 12
135 17 6 6 9 39 8 75 l-4 64 66 -44 c91 -61 175 -86 313 -92 137 -7 143 -4
143 76 l0 57 49 -47 c73 -70 140 -92 266 -87 83 3 111 9 161 32 34 15 77 43
95 62 18 19 36 34 39 34 3 0 4 -34 2 -75 -4 -73 -4 -74 22 -81 15 -3 122 -4
239 -2 164 4 220 9 248 21 35 16 37 15 59 -8 73 -77 243 -91 452 -37 153 40
237 82 320 160 115 109 186 287 175 441 -14 192 -153 319 -358 329 -150 7
-252 -41 -424 -200 -113 -104 -168 -167 -208 -240 -25 -44 -37 -58 -55 -58
-26 0 -26 -37 -2 379 7 118 7 168 -1 178 -13 14 -133 18 -252 6 l-68 -6 -26
-51 c-14 -28 -26 -52 -28 -54 -1 -1 -21 16 -44 38 -50 48 -120 85 -198 105
-71 18 -131 18 -203 -1z m197 -28 c125 -33 206 -97 254 -201 76 -160 29 -380
-105 -503 -69 -62 -142 -91 -251 -99 -243 -17 -405 131 -405 371 0 201 119
366 308 427 69 22 130 23 199 5z m-537 -98 c0 -51 3 -123 7 -161 l6 -67 -70 6
c-89 8 -134 0 -172 -31 -38 -32 -46 -67 -25 -110 24 -51 81 -70 184 -61 l80 6
0 -145 0 -145 -100 0 c-119 0 -185 13 -265 50 -158 75 -246 249 -215 427 14
82 39 132 98 195 84 90 186 126 360 127 l112 1 0 -92z m1140 65 c0 -5 -7 -120
-15 -258 -8 -137 -15 -263 -15 -279 l0 -29 125 5 125 6 0 -57 c-1 -31 -6 -85
-13 -121 l-12 -65 -50 -7 c-55 -7 -449 -11 -456 -4 -2 2 2 118 8 258 7 139 16
319 19 400 l6 147 47 4 c91 7 231 7 231 0z m-1753 -15 c16 -20 34 -771 20
-780 -7 -4 -74 -8 -149 -8 -111 0 -138 3 -138 14 0 8 -6 76 -14 152 -16 151
-33 398 -38 534 l-3 85 35 6 c69 12 277 10 287 -3z m-505 -86 c111 -54 170
-148 169 -269 0 -172 -75 -245 -282 -278 l-35 -5 14 -110 c8 -61 13 -112 11
-115 -10 -9 -256 -17 -262 -9 -3 5 -17 122 -32 259 -34 324 -28 299 -70 292
-19 -3 -35 -5 -35 -3 0 1 -9 53 -20 116 -12 62 -18 115 -15 118 3 3 44 13 93
23 65 14 125 18 242 16 154 -2 156 -2 222 -35z m3108 7 c123 -57 181 -144 188
-285 9 -165 -68 -330 -193 -420 -79 -56 -165 -77 -293 -72 -114 4 -142 13
-214 70 -51 40 -97 135 -104 218 -8 80 21 208 63 279 58 99 157 182 264 222
78 28 213 23 289 -12z"/>
    <path d="M3165 1483 c-32 -8 -74 -42 -90 -73 -24 -46 -19 -88 14 -121 24 -24
38 -29 76 -29 57 0 100 21 120 60 30 57 10 127 -45 155 -30 15 -40 16 -75 8z"/>
    <path d="M1440 1391 c0 -39 5 -73 11 -76 17 -11 79 5 100 26 27 27 24 56 -10
90 -22 21 -39 29 -65 29 l-36 0 0 -69z"/>
    <path d="M4502 1363 c-19 -9 -44 -32 -58 -52 -43 -64 -25 -131 41 -150 101
-28 200 59 174 153 -5 19 -20 42 -32 51 -28 20 -83 19 -125 -2z"/>
    <path d="M4095 1743 c-10 -3 -28 -11 -40 -18 -11 -7 -41 -16 -67 -20 -41 -5
-48 -10 -48 -28 0 -12 -3 -32 -6 -44 -4 -15 -1 -24 7 -26 8 -3 32 -10 53 -17
34 -11 40 -10 48 5 6 9 24 23 42 30 l31 14 -32 11 c-41 15 -42 35 -3 55 54 28
99 -6 60 -45 -20 -20 -20 -20 8 -20 15 0 41 -9 59 -19 31 -19 31 -19 49 0 10
11 12 19 6 19 -7 0 -18 15 -26 34 -21 52 -86 83 -141 69z m-79 -78 c-4 -11 2
-15 20 -15 19 0 25 -4 22 -17 -2 -10 -11 -16 -19 -14 -8 2 -21 4 -30 5 -9 0
-15 6 -12 12 2 7 -1 15 -6 19 -15 8 -4 25 16 25 9 0 13 -6 9 -15z"/>
    <path d="M4047 1577 c-3 -8 -1 -20 4 -28 17 -27 10 -77 -13 -99 -22 -20 -48
-23 -98 -9 -11 3 -16 -6 -18 -30 -3 -26 2 -40 21 -57 l25 -23 28 37 c16 20 53
63 83 95 30 31 49 57 43 57 -7 0 -12 5 -12 11 0 7 10 9 24 5 41 -10 39 12 -3
34 -46 23 -77 26 -84 7z"/>
  </g>
</svg>