<svg xmlns="http://www.w3.org/2000/svg" viewBox="0 12.800000190734863 265.79998779296875 84.33599853515625" data-asc="0.974" width="265.79998779296875" height="84.33599853515625"><defs/><g fill="#000000"><g transform="translate(0, 0)"><path d="M10.85 35.55Q12.60 35.55 13.33 36.00Q14.05 36.45 14.20 37.20Q14.35 37.95 14.35 38.85L14.35 40.65Q14.35 42.05 13.80 42.87Q13.25 43.70 12.40 44.22Q11.55 44.75 10.60 45.15Q9.65 45.55 8.80 46.02Q7.95 46.50 7.40 47.25Q6.85 48.00 6.85 49.30Q6.85 51.15 7.90 52.10Q8.95 53.05 11.15 53.05Q12.20 53.05 12.93 52.75Q13.65 52.45 14.10 51.97Q14.55 51.50 14.75 51.00Q15.20 49.75 15.70 49.05Q16.20 48.35 17.03 48.25Q17.85 48.15 19.15 48.60Q20.50 49.15 21.15 49.70Q21.80 50.25 21.88 51.00Q21.95 51.75 21.55 52.95Q21.45 53.35 21.08 54.15Q20.70 54.95 19.95 55.95Q19.20 56.95 18 57.88Q16.80 58.80 15.13 59.38Q13.45 59.95 11.15 59.95Q7.90 59.95 5.38 58.57Q2.85 57.20 1.43 54.82Q0 52.45 0 49.40Q0 47.40 0.60 45.85Q1.20 44.30 2.18 43.22Q3.15 42.15 4.20 41.45Q5.25 40.75 6.18 40.37Q7.10 40.00 7.60 39.90L7.30 40.45L7.30 38.55Q7.30 37.70 7.47 37.02Q7.65 36.35 8.43 35.95Q9.20 35.55 10.85 35.55M10.95 24.15Q13.45 24.15 14.23 25.07Q15 26.00 15 28.25Q15 29.20 14.83 30.12Q14.65 31.05 13.80 31.67Q12.95 32.30 10.90 32.30Q8.40 32.30 7.63 31.35Q6.85 30.40 6.85 28.20Q6.85 27.20 7 26.27Q7.15 25.35 8.03 24.75Q8.90 24.15 10.95 24.15ZM59.40 42.10Q61.15 43.25 61.38 44.40Q61.60 45.55 60.30 47.35Q59.40 48.65 58.65 49.10Q57.90 49.55 57.05 49.30Q56.20 49.05 55.05 48.30L51.35 45.90Q49.20 47.65 46.60 48.65Q44 49.65 41.10 49.65Q37.50 49.65 34.33 48.27Q31.15 46.90 28.77 44.47Q26.40 42.05 25.02 38.82Q23.65 35.60 23.65 32.00Q23.65 28.20 24.98 24.92Q26.30 21.65 28.63 19.15Q30.95 16.65 34.05 15.25Q37.15 13.85 40.70 13.85Q44.30 13.85 47.48 15.22Q50.65 16.60 53.03 19.05Q55.40 21.50 56.75 24.75Q58.10 28.00 58.10 31.80Q58.10 33.95 57.58 36.00Q57.05 38.05 56.10 39.90L59.40 42.10M40.85 42.05Q42.85 42.05 44.60 41.25Q46.35 40.45 47.67 39.07Q49 37.70 49.73 35.80Q50.45 33.90 50.45 31.75Q50.45 29.65 49.70 27.77Q48.95 25.90 47.63 24.47Q46.30 23.05 44.58 22.25Q42.85 21.45 40.90 21.45Q38.90 21.45 37.15 22.25Q35.40 23.05 34.08 24.47Q32.75 25.90 32 27.77Q31.25 29.65 31.25 31.80Q31.25 33.90 32.02 35.77Q32.80 37.65 34.13 39.05Q35.45 40.45 37.17 41.25Q38.90 42.05 40.85 42.05ZM73.65 49.10Q71.35 49.10 69.33 48.20Q67.30 47.30 65.80 45.67Q64.30 44.05 63.48 41.82Q62.65 39.60 62.65 36.95L62.65 27.90Q62.65 26.90 62.85 26.05Q63.05 25.20 63.83 24.65Q64.60 24.10 66.45 24.10Q68.30 24.10 69.08 24.65Q69.85 25.20 70.03 26.07Q70.20 26.95 70.20 27.95L70.20 36.95Q70.20 38.40 70.72 39.47Q71.25 40.55 72.28 41.10Q73.30 41.65 74.70 41.65Q76.15 41.65 77.17 41.07Q78.20 40.50 78.78 39.45Q79.35 38.40 79.35 36.95L79.35 27.85Q79.35 26.85 79.55 26.00Q79.75 25.15 80.53 24.62Q81.30 24.10 83.15 24.10Q85 24.10 85.78 24.65Q86.55 25.20 86.72 26.07Q86.90 26.95 86.90 27.90L86.90 45.50Q86.90 46.45 86.72 47.27Q86.55 48.10 85.75 48.60Q84.95 49.10 83.15 49.10Q81.80 49.10 81.05 48.80Q80.30 48.50 79.95 48.05Q79.60 47.60 79.53 47.10Q79.45 46.60 79.45 46.20L80.10 45.65Q79.95 45.85 79.45 46.40Q78.95 46.95 78.13 47.57Q77.30 48.20 76.20 48.65Q75.10 49.10 73.65 49.10ZM103.30 49.60Q99.80 49.60 97.27 48.45Q94.75 47.30 93.15 45.42Q91.55 43.55 90.77 41.25Q90 38.95 90 36.65Q90 32.90 91.70 30.00Q93.40 27.10 96.40 25.42Q99.40 23.75 103.30 23.75Q106.20 23.75 108.32 24.67Q110.45 25.60 111.82 27.07Q113.20 28.55 113.88 30.25Q114.55 31.95 114.55 33.50Q114.55 36.25 113.22 37.57Q111.90 38.90 109.85 38.90L97.95 38.90Q98.05 40.20 98.88 41.10Q99.70 42.00 100.95 42.50Q102.20 43.00 103.60 43.00Q104.80 43.00 105.70 42.87Q106.60 42.75 107.25 42.52Q107.90 42.30 108.45 42.07Q109 41.85 109.42 41.70Q109.85 41.55 110.25 41.50Q111 41.45 111.63 41.92Q112.25 42.40 112.75 43.35Q113.10 43.90 113.22 44.40Q113.35 44.90 113.35 45.40Q113.35 46.60 112.13 47.55Q110.90 48.50 108.67 49.05Q106.45 49.60 103.30 49.60M97.95 34.80L105.85 34.80Q106.65 34.80 107.02 34.52Q107.40 34.25 107.40 33.45Q107.40 32.55 106.85 31.87Q106.30 31.20 105.38 30.82Q104.45 30.45 103.25 30.45Q101.70 30.45 100.50 31.05Q99.30 31.65 98.63 32.65Q97.95 33.65 97.95 34.80M100.35 22.35Q99.45 22.40 98.88 21.80Q98.30 21.20 97.85 19.85Q97.30 18.10 97.65 17.25Q98 16.40 99.50 15.90L108.30 13.20Q109.15 13.15 109.75 13.77Q110.35 14.40 110.75 15.75Q111.30 17.40 110.92 18.27Q110.55 19.15 109.10 19.65L100.35 22.35ZM133.35 49.15Q131.55 49.15 130.75 48.62Q129.95 48.10 129.77 47.22Q129.60 46.35 129.60 45.35L129.60 16.55Q129.60 15.55 129.80 14.70Q130 13.85 130.80 13.32Q131.60 12.80 133.40 12.80Q135.25 12.80 136.02 13.35Q136.80 13.90 136.97 14.75Q137.15 15.60 137.15 16.60L137.15 26.80Q138.05 25.85 139.47 25.00Q140.90 24.15 142.85 24.15Q145.95 24.15 148.42 25.72Q150.90 27.30 152.38 30.05Q153.85 32.80 153.85 36.35L153.85 45.40Q153.85 46.40 153.65 47.25Q153.45 48.10 152.70 48.62Q151.95 49.15 150.05 49.15Q148.30 49.15 147.47 48.62Q146.65 48.10 146.47 47.22Q146.30 46.35 146.30 45.35L146.30 36.30Q146.30 34.85 145.80 33.82Q145.30 32.80 144.32 32.20Q143.35 31.60 141.95 31.60Q140.10 31.60 138.72 32.72Q137.35 33.85 137.15 35.45L137.15 45.40Q137.15 46.40 136.95 47.25Q136.75 48.10 135.97 48.62Q135.20 49.15 133.35 49.15ZM177.90 49.10Q176.05 49.10 175.17 48.45Q174.30 47.80 174.30 46.85L174.80 46.00Q174.50 46.50 173.65 47.22Q172.80 47.95 171.45 48.52Q170.10 49.10 168.10 49.10Q165.80 49.10 163.72 48.10Q161.65 47.10 160.05 45.32Q158.45 43.55 157.52 41.30Q156.60 39.05 156.60 36.55Q156.60 34.10 157.52 31.87Q158.45 29.65 160.07 27.92Q161.70 26.20 163.75 25.20Q165.80 24.20 168.10 24.20Q169.95 24.20 171.25 24.72Q172.55 25.25 173.42 25.95Q174.30 26.65 174.75 27.30L174.35 26.60Q174.30 25.40 175.17 24.77Q176.05 24.15 177.95 24.15Q179.75 24.15 180.52 24.70Q181.30 25.25 181.47 26.15Q181.65 27.05 181.65 28.05L181.65 45.30Q181.65 46.25 181.47 47.15Q181.30 48.05 180.52 48.57Q179.75 49.10 177.90 49.10M169.20 41.65Q170.50 41.65 171.57 40.97Q172.65 40.30 173.27 39.15Q173.90 38.00 173.90 36.60Q173.90 35.15 173.25 34.02Q172.60 32.90 171.50 32.22Q170.40 31.55 169.10 31.55Q167.65 31.55 166.52 32.25Q165.40 32.95 164.72 34.10Q164.05 35.25 164.05 36.70Q164.05 38.05 164.72 39.17Q165.40 40.30 166.57 40.97Q167.75 41.65 169.20 41.65ZM189.40 49.15Q187.55 49.15 186.78 48.62Q186 48.10 185.82 47.20Q185.65 46.30 185.65 45.35L185.65 27.90Q185.65 26.90 185.85 26.05Q186.05 25.20 186.82 24.67Q187.60 24.15 189.45 24.15Q191.20 24.15 191.97 24.62Q192.75 25.10 192.95 25.72Q193.15 26.35 193.15 26.80L192.55 27.10Q192.65 26.90 193.07 26.37Q193.50 25.85 194.25 25.27Q195 24.70 196.07 24.30Q197.15 23.90 198.55 23.90Q199.10 23.90 199.78 23.97Q200.45 24.05 201.17 24.27Q201.90 24.50 202.50 24.87Q203.10 25.25 203.47 25.80Q203.85 26.35 203.85 27.15Q203.85 29.20 202.90 30.62Q201.95 32.05 200.50 32.05Q199.65 32.05 199.30 31.90Q198.95 31.75 198.72 31.60Q198.50 31.45 198.20 31.32Q197.90 31.20 197.10 31.20Q196.35 31.20 195.67 31.40Q195 31.60 194.42 32.02Q193.85 32.45 193.53 33.07Q193.20 33.70 193.20 34.45L193.20 45.45Q193.20 46.40 193.03 47.27Q192.85 48.15 192.05 48.65Q191.25 49.15 189.40 49.15ZM210.35 49.15Q208.55 49.15 207.75 48.62Q206.95 48.10 206.78 47.22Q206.60 46.35 206.60 45.40L206.60 27.95Q206.60 26.95 206.80 26.10Q207 25.25 207.78 24.72Q208.55 24.20 210.40 24.20Q212.20 24.20 212.97 24.75Q213.75 25.30 213.93 26.15Q214.10 27.00 214.10 28.05L214.10 45.45Q214.10 46.40 213.93 47.27Q213.75 48.15 212.97 48.65Q212.20 49.15 210.35 49.15M208.45 22.35Q207.55 22.40 206.97 21.80Q206.40 21.20 205.95 19.85Q205.40 18.10 205.75 17.25Q206.10 16.40 207.60 15.90L216.40 13.20Q217.25 13.15 217.85 13.77Q218.45 14.40 218.85 15.75Q219.40 17.40 219.03 18.27Q218.65 19.15 217.20 19.65L208.45 22.35ZM238.45 49.10Q236.60 49.10 235.72 48.45Q234.85 47.80 234.85 46.85L235.35 46.00Q235.05 46.50 234.20 47.22Q233.35 47.95 232 48.52Q230.65 49.10 228.65 49.10Q226.35 49.10 224.28 48.10Q222.20 47.10 220.60 45.32Q219 43.55 218.07 41.30Q217.15 39.05 217.15 36.55Q217.15 34.10 218.07 31.87Q219 29.65 220.63 27.92Q222.25 26.20 224.30 25.20Q226.35 24.20 228.65 24.20Q230.50 24.20 231.80 24.72Q233.10 25.25 233.97 25.95Q234.85 26.65 235.30 27.30L234.90 26.60Q234.85 25.40 235.72 24.77Q236.60 24.15 238.50 24.15Q240.30 24.15 241.07 24.70Q241.85 25.25 242.03 26.15Q242.20 27.05 242.20 28.05L242.20 45.30Q242.20 46.25 242.03 47.15Q241.85 48.05 241.07 48.57Q240.30 49.10 238.45 49.10M229.75 41.65Q231.05 41.65 232.13 40.97Q233.20 40.30 233.82 39.15Q234.45 38.00 234.45 36.60Q234.45 35.15 233.80 34.02Q233.15 32.90 232.05 32.22Q230.95 31.55 229.65 31.55Q228.20 31.55 227.07 32.25Q225.95 32.95 225.28 34.10Q224.60 35.25 224.60 36.70Q224.60 38.05 225.28 39.17Q225.95 40.30 227.13 40.97Q228.30 41.65 229.75 41.65ZM255.20 49.55Q253.85 49.55 252.28 49.25Q250.70 48.95 249.20 48.37Q247.70 47.80 246.70 47.02Q245.70 46.25 245.55 45.25Q245.45 44.75 245.58 44.17Q245.70 43.60 246.05 42.97Q246.40 42.35 246.90 41.65Q247.30 41.10 247.80 40.95Q248.30 40.80 248.95 41.00Q249.75 41.15 250.58 41.52Q251.40 41.90 252.22 42.32Q253.05 42.75 253.95 43.07Q254.85 43.40 255.80 43.40Q257.20 43.40 257.98 42.97Q258.75 42.55 258.75 41.80Q258.75 41.25 258.43 40.90Q258.10 40.55 257.52 40.27Q256.95 40.00 256.20 39.80Q255.45 39.60 254.58 39.37Q253.70 39.15 252.80 38.90Q251.55 38.55 250.40 38.00Q249.25 37.45 248.30 36.57Q247.35 35.70 246.80 34.42Q246.25 33.15 246.25 31.30Q246.25 28.85 247.40 27.20Q248.55 25.55 250.75 24.67Q252.95 23.80 256.10 23.80Q257 23.80 257.90 23.90Q258.80 24.00 259.68 24.25Q260.55 24.50 261.40 24.85Q262.25 25.20 263.10 25.70Q264.60 26.40 264.65 27.60Q264.70 28.80 263.80 30.05Q263.25 30.90 262.65 31.27Q262.05 31.65 261.40 31.50Q260.60 31.30 259.68 30.85Q258.75 30.40 257.73 30.00Q256.70 29.60 255.70 29.60Q254.85 29.60 254.25 29.82Q253.65 30.05 253.35 30.42Q253.05 30.80 253.05 31.30Q253.05 31.95 253.43 32.32Q253.80 32.70 254.45 32.95Q255.10 33.20 255.95 33.40Q256.80 33.60 257.80 33.80Q259.15 34.05 260.57 34.47Q262 34.90 263.18 35.70Q264.35 36.50 265.07 37.85Q265.80 39.20 265.80 41.40Q265.80 45.35 263.05 47.45Q260.30 49.55 255.20 49.55Z"/></g><g transform="translate(0, 47.586)"><path d="M9.75 49.55Q8.40 49.55 6.83 49.25Q5.25 48.95 3.75 48.37Q2.25 47.80 1.25 47.02Q0.25 46.25 0.10 45.25Q0 44.75 0.13 44.17Q0.25 43.60 0.60 42.97Q0.95 42.35 1.45 41.65Q1.85 41.10 2.35 40.95Q2.85 40.80 3.50 41.00Q4.30 41.15 5.13 41.52Q5.95 41.90 6.78 42.32Q7.60 42.75 8.50 43.07Q9.40 43.40 10.35 43.40Q11.75 43.40 12.53 42.97Q13.30 42.55 13.30 41.80Q13.30 41.25 12.97 40.90Q12.65 40.55 12.07 40.27Q11.50 40.00 10.75 39.80Q10 39.60 9.13 39.37Q8.25 39.15 7.35 38.90Q6.10 38.55 4.95 38.00Q3.80 37.45 2.85 36.57Q1.90 35.70 1.35 34.42Q0.80 33.15 0.80 31.30Q0.80 28.85 1.95 27.20Q3.10 25.55 5.30 24.67Q7.50 23.80 10.65 23.80Q11.55 23.80 12.45 23.90Q13.35 24.00 14.22 24.25Q15.10 24.50 15.95 24.85Q16.80 25.20 17.65 25.70Q19.15 26.40 19.20 27.60Q19.25 28.80 18.35 30.05Q17.80 30.90 17.20 31.27Q16.60 31.65 15.95 31.50Q15.15 31.30 14.22 30.85Q13.30 30.40 12.28 30.00Q11.25 29.60 10.25 29.60Q9.40 29.60 8.80 29.82Q8.20 30.05 7.90 30.42Q7.60 30.80 7.60 31.30Q7.60 31.95 7.98 32.32Q8.35 32.70 9 32.95Q9.65 33.20 10.50 33.40Q11.35 33.60 12.35 33.80Q13.70 34.05 15.13 34.47Q16.55 34.90 17.73 35.70Q18.90 36.50 19.63 37.85Q20.35 39.20 20.35 41.40Q20.35 45.35 17.60 47.45Q14.85 49.55 9.75 49.55ZM27.65 49.15Q25.80 49.15 25.03 48.62Q24.25 48.10 24.08 47.22Q23.90 46.35 23.90 45.40L23.90 27.95Q23.90 26.95 24.08 26.10Q24.25 25.25 25.05 24.72Q25.85 24.20 27.70 24.20Q29.50 24.20 30.28 24.75Q31.05 25.30 31.23 26.15Q31.40 27.00 31.40 28.05L31.40 45.45Q31.40 46.40 31.23 47.27Q31.05 48.15 30.28 48.65Q29.50 49.15 27.65 49.15M27.65 20.55Q25.75 20.55 24.95 20.00Q24.15 19.45 23.98 18.55Q23.80 17.65 23.80 16.65Q23.80 15.60 24 14.72Q24.20 13.85 25 13.32Q25.80 12.80 27.70 12.80Q29.55 12.80 30.35 13.35Q31.15 13.90 31.33 14.80Q31.50 15.70 31.50 16.70Q31.50 17.70 31.33 18.60Q31.15 19.50 30.35 20.02Q29.55 20.55 27.65 20.55ZM39.15 49.20Q36.85 49.20 35.95 48.30Q35.05 47.40 35.05 45.20Q35.05 43.65 35.45 42.75Q35.85 41.85 36.75 41.45Q37.65 41.05 39.15 41.05Q41.45 41.05 42.33 41.95Q43.20 42.85 43.20 45.15Q43.20 46.65 42.83 47.55Q42.45 48.45 41.55 48.82Q40.65 49.20 39.15 49.20ZM50.00 49.20Q47.70 49.20 46.80 48.30Q45.90 47.40 45.90 45.20Q45.90 43.65 46.30 42.75Q46.70 41.85 47.60 41.45Q48.50 41.05 50.00 41.05Q52.30 41.05 53.18 41.95Q54.05 42.85 54.05 45.15Q54.05 46.65 53.68 47.55Q53.30 48.45 52.40 48.82Q51.50 49.20 50.00 49.20ZM60.85 49.20Q58.55 49.20 57.65 48.30Q56.75 47.40 56.75 45.20Q56.75 43.65 57.15 42.75Q57.55 41.85 58.45 41.45Q59.35 41.05 60.85 41.05Q63.15 41.05 64.03 41.95Q64.90 42.85 64.90 45.15Q64.90 46.65 64.53 47.55Q64.15 48.45 63.25 48.82Q62.35 49.20 60.85 49.20ZM78.25 37.80Q76.55 37.80 75.83 37.32Q75.10 36.85 74.92 36.10Q74.75 35.35 74.75 34.50L74.75 32.70Q74.75 31.30 75.30 30.47Q75.85 29.65 76.70 29.12Q77.55 28.60 78.50 28.20Q79.45 27.80 80.30 27.32Q81.15 26.85 81.70 26.10Q82.25 25.35 82.25 24.05Q82.25 22.15 81.20 21.22Q80.15 20.30 78 20.30Q77 20.30 76.25 20.60Q75.50 20.90 75.05 21.35Q74.60 21.80 74.35 22.35Q73.95 23.55 73.42 24.25Q72.90 24.95 72.10 25.07Q71.30 25.20 70 24.70Q68.60 24.15 67.95 23.62Q67.30 23.10 67.25 22.35Q67.20 21.60 67.55 20.40Q67.65 20.00 68.05 19.17Q68.45 18.35 69.17 17.37Q69.90 16.40 71.10 15.47Q72.30 14.55 74 13.95Q75.70 13.35 78 13.35Q81.25 13.35 83.75 14.75Q86.25 16.15 87.67 18.50Q89.10 20.85 89.10 23.90Q89.10 25.95 88.50 27.50Q87.90 29.05 86.95 30.12Q86 31.20 84.92 31.87Q83.85 32.55 82.95 32.92Q82.05 33.30 81.50 33.45L81.85 32.85L81.85 34.80Q81.85 35.60 81.65 36.30Q81.45 37.00 80.70 37.40Q79.95 37.80 78.25 37.80M78.15 49.20Q75.70 49.20 74.90 48.25Q74.10 47.30 74.10 45.10Q74.10 44.15 74.28 43.20Q74.45 42.25 75.30 41.65Q76.15 41.05 78.20 41.05Q80.75 41.05 81.53 41.97Q82.30 42.90 82.30 45.15Q82.30 46.10 82.13 47.02Q81.95 47.95 81.08 48.57Q80.20 49.20 78.15 49.20Z"/></g></g></svg>