<svg xmlns="http://www.w3.org/2000/svg" viewBox="0 12.699999809265137 387.5 47.25" data-asc="0.974" width="387.5" height="47.25"><defs/><g fill="#000000"><g transform="translate(0, 0)"><path d="M10.85 35.55Q12.60 35.55 13.33 36.00Q14.05 36.45 14.20 37.20Q14.35 37.95 14.35 38.85L14.35 40.65Q14.35 42.05 13.80 42.87Q13.25 43.70 12.40 44.22Q11.55 44.75 10.60 45.15Q9.65 45.55 8.80 46.02Q7.95 46.50 7.40 47.25Q6.85 48.00 6.85 49.30Q6.85 51.15 7.90 52.10Q8.95 53.05 11.15 53.05Q12.20 53.05 12.93 52.75Q13.65 52.45 14.10 51.97Q14.55 51.50 14.75 51.00Q15.20 49.75 15.70 49.05Q16.20 48.35 17.03 48.25Q17.85 48.15 19.15 48.60Q20.50 49.15 21.15 49.70Q21.80 50.25 21.88 51.00Q21.95 51.75 21.55 52.95Q21.45 53.35 21.08 54.15Q20.70 54.95 19.95 55.95Q19.20 56.95 18 57.88Q16.80 58.80 15.13 59.38Q13.45 59.95 11.15 59.95Q7.90 59.95 5.38 58.57Q2.85 57.20 1.43 54.82Q0 52.45 0 49.40Q0 47.40 0.60 45.85Q1.20 44.30 2.18 43.22Q3.15 42.15 4.20 41.45Q5.25 40.75 6.18 40.37Q7.10 40.00 7.60 39.90L7.30 40.45L7.30 38.55Q7.30 37.70 7.47 37.02Q7.65 36.35 8.43 35.95Q9.20 35.55 10.85 35.55M10.95 24.15Q13.45 24.15 14.23 25.07Q15 26.00 15 28.25Q15 29.20 14.83 30.12Q14.65 31.05 13.80 31.67Q12.95 32.30 10.90 32.30Q8.40 32.30 7.63 31.35Q6.85 30.40 6.85 28.20Q6.85 27.20 7 26.27Q7.15 25.35 8.03 24.75Q8.90 24.15 10.95 24.15ZM59.40 42.10Q61.15 43.25 61.38 44.40Q61.60 45.55 60.30 47.35Q59.40 48.65 58.65 49.10Q57.90 49.55 57.05 49.30Q56.20 49.05 55.05 48.30L51.35 45.90Q49.20 47.65 46.60 48.65Q44 49.65 41.10 49.65Q37.50 49.65 34.33 48.27Q31.15 46.90 28.77 44.47Q26.40 42.05 25.02 38.82Q23.65 35.60 23.65 32.00Q23.65 28.20 24.98 24.92Q26.30 21.65 28.63 19.15Q30.95 16.65 34.05 15.25Q37.15 13.85 40.70 13.85Q44.30 13.85 47.48 15.22Q50.65 16.60 53.03 19.05Q55.40 21.50 56.75 24.75Q58.10 28.00 58.10 31.80Q58.10 33.95 57.58 36.00Q57.05 38.05 56.10 39.90L59.40 42.10M40.85 42.05Q42.85 42.05 44.60 41.25Q46.35 40.45 47.67 39.07Q49 37.70 49.73 35.80Q50.45 33.90 50.45 31.75Q50.45 29.65 49.70 27.77Q48.95 25.90 47.63 24.47Q46.30 23.05 44.58 22.25Q42.85 21.45 40.90 21.45Q38.90 21.45 37.15 22.25Q35.40 23.05 34.08 24.47Q32.75 25.90 32 27.77Q31.25 29.65 31.25 31.80Q31.25 33.90 32.02 35.77Q32.80 37.65 34.13 39.05Q35.45 40.45 37.17 41.25Q38.90 42.05 40.85 42.05ZM73.65 49.10Q71.35 49.10 69.33 48.20Q67.30 47.30 65.80 45.67Q64.30 44.05 63.48 41.82Q62.65 39.60 62.65 36.95L62.65 27.90Q62.65 26.90 62.85 26.05Q63.05 25.20 63.83 24.65Q64.60 24.10 66.45 24.10Q68.30 24.10 69.08 24.65Q69.85 25.20 70.03 26.07Q70.20 26.95 70.20 27.95L70.20 36.95Q70.20 38.40 70.72 39.47Q71.25 40.55 72.28 41.10Q73.30 41.65 74.70 41.65Q76.15 41.65 77.17 41.07Q78.20 40.50 78.78 39.45Q79.35 38.40 79.35 36.95L79.35 27.85Q79.35 26.85 79.55 26.00Q79.75 25.15 80.53 24.62Q81.30 24.10 83.15 24.10Q85 24.10 85.78 24.65Q86.55 25.20 86.72 26.07Q86.90 26.95 86.90 27.90L86.90 45.50Q86.90 46.45 86.72 47.27Q86.55 48.10 85.75 48.60Q84.95 49.10 83.15 49.10Q81.80 49.10 81.05 48.80Q80.30 48.50 79.95 48.05Q79.60 47.60 79.53 47.10Q79.45 46.60 79.45 46.20L80.10 45.65Q79.95 45.85 79.45 46.40Q78.95 46.95 78.13 47.57Q77.30 48.20 76.20 48.65Q75.10 49.10 73.65 49.10ZM103.30 49.60Q99.80 49.60 97.27 48.45Q94.75 47.30 93.15 45.42Q91.55 43.55 90.77 41.25Q90 38.95 90 36.65Q90 32.90 91.70 30.00Q93.40 27.10 96.40 25.42Q99.40 23.75 103.30 23.75Q106.20 23.75 108.32 24.67Q110.45 25.60 111.82 27.07Q113.20 28.55 113.88 30.25Q114.55 31.95 114.55 33.50Q114.55 36.25 113.22 37.57Q111.90 38.90 109.85 38.90L97.95 38.90Q98.05 40.20 98.88 41.10Q99.70 42.00 100.95 42.50Q102.20 43.00 103.60 43.00Q104.80 43.00 105.70 42.87Q106.60 42.75 107.25 42.52Q107.90 42.30 108.45 42.07Q109 41.85 109.42 41.70Q109.85 41.55 110.25 41.50Q111 41.45 111.63 41.92Q112.25 42.40 112.75 43.35Q113.10 43.90 113.22 44.40Q113.35 44.90 113.35 45.40Q113.35 46.60 112.13 47.55Q110.90 48.50 108.67 49.05Q106.45 49.60 103.30 49.60M97.95 34.80L105.85 34.80Q106.65 34.80 107.02 34.52Q107.40 34.25 107.40 33.45Q107.40 32.55 106.85 31.87Q106.30 31.20 105.38 30.82Q104.45 30.45 103.25 30.45Q101.70 30.45 100.50 31.05Q99.30 31.65 98.63 32.65Q97.95 33.65 97.95 34.80M100.35 22.35Q99.45 22.40 98.88 21.80Q98.30 21.20 97.85 19.85Q97.30 18.10 97.65 17.25Q98 16.40 99.50 15.90L108.30 13.20Q109.15 13.15 109.75 13.77Q110.35 14.40 110.75 15.75Q111.30 17.40 110.92 18.27Q110.55 19.15 109.10 19.65L100.35 22.35ZM142.90 48.70Q140.45 48.70 138.57 47.72Q136.70 46.75 135.47 45.07Q134.25 43.40 133.63 41.20Q133 39.00 133.05 36.45Q133.05 34.00 133.70 31.77Q134.35 29.55 135.57 27.82Q136.80 26.10 138.63 25.12Q140.45 24.15 142.90 24.15Q145.10 24.15 147.17 25.15Q149.25 26.15 150.85 27.87Q152.45 29.60 153.38 31.85Q154.30 34.10 154.30 36.60Q154.30 39.10 153.38 41.32Q152.45 43.55 150.85 45.20Q149.25 46.85 147.20 47.77Q145.15 48.70 142.90 48.70M133.25 59.50Q131.45 59.50 130.67 58.97Q129.90 58.45 129.72 57.63Q129.55 56.80 129.55 55.85L129.55 27.90Q129.55 26.90 129.70 26.07Q129.85 25.25 130.63 24.70Q131.40 24.15 133.20 24.15Q134.75 24.15 135.67 24.60Q136.60 25.05 137 26.00L137 55.80Q137.05 56.75 136.85 57.60Q136.65 58.45 135.88 58.97Q135.10 59.50 133.25 59.50M141.85 41.65Q143.25 41.65 144.35 40.97Q145.45 40.30 146.13 39.15Q146.80 38.00 146.80 36.60Q146.80 35.15 146.15 34.02Q145.50 32.90 144.40 32.25Q143.30 31.60 141.90 31.60Q140.55 31.60 139.42 32.27Q138.30 32.95 137.67 34.07Q137.05 35.20 137.05 36.60Q137.05 38.00 137.70 39.15Q138.35 40.30 139.45 40.97Q140.55 41.65 141.85 41.65ZM161.15 49.15Q159.30 49.15 158.53 48.62Q157.75 48.10 157.57 47.20Q157.40 46.30 157.40 45.35L157.40 27.90Q157.40 26.90 157.60 26.05Q157.80 25.20 158.57 24.67Q159.35 24.15 161.20 24.15Q162.95 24.15 163.72 24.62Q164.50 25.10 164.70 25.72Q164.90 26.35 164.90 26.80L164.30 27.10Q164.40 26.90 164.82 26.37Q165.25 25.85 166 25.27Q166.75 24.70 167.82 24.30Q168.90 23.90 170.30 23.90Q170.85 23.90 171.53 23.97Q172.20 24.05 172.92 24.27Q173.65 24.50 174.25 24.87Q174.85 25.25 175.22 25.80Q175.60 26.35 175.60 27.15Q175.60 29.20 174.65 30.62Q173.70 32.05 172.25 32.05Q171.40 32.05 171.05 31.90Q170.70 31.75 170.47 31.60Q170.25 31.45 169.95 31.32Q169.65 31.20 168.85 31.20Q168.10 31.20 167.42 31.40Q166.75 31.60 166.17 32.02Q165.60 32.45 165.28 33.07Q164.95 33.70 164.95 34.45L164.95 45.45Q164.95 46.40 164.78 47.27Q164.60 48.15 163.80 48.65Q163 49.15 161.15 49.15ZM189.45 49.60Q185.95 49.60 183.43 48.45Q180.90 47.30 179.30 45.42Q177.70 43.55 176.93 41.25Q176.15 38.95 176.15 36.65Q176.15 32.90 177.85 30.00Q179.55 27.10 182.55 25.42Q185.55 23.75 189.45 23.75Q192.35 23.75 194.47 24.67Q196.60 25.60 197.97 27.07Q199.35 28.55 200.03 30.25Q200.70 31.95 200.70 33.50Q200.70 36.25 199.38 37.57Q198.05 38.90 196 38.90L184.10 38.90Q184.20 40.20 185.03 41.10Q185.85 42.00 187.10 42.50Q188.35 43.00 189.75 43.00Q190.95 43.00 191.85 42.87Q192.75 42.75 193.40 42.52Q194.05 42.30 194.60 42.07Q195.15 41.85 195.57 41.70Q196 41.55 196.40 41.50Q197.15 41.45 197.78 41.92Q198.40 42.40 198.90 43.35Q199.25 43.90 199.38 44.40Q199.50 44.90 199.50 45.40Q199.50 46.60 198.28 47.55Q197.05 48.50 194.82 49.05Q192.60 49.60 189.45 49.60M184.10 34.80L192 34.80Q192.80 34.80 193.18 34.52Q193.55 34.25 193.55 33.45Q193.55 32.55 193 31.87Q192.45 31.20 191.53 30.82Q190.60 30.45 189.40 30.45Q187.85 30.45 186.65 31.05Q185.45 31.65 184.78 32.65Q184.10 33.65 184.10 34.80ZM210.05 49.20Q208.30 49.20 207.50 48.65Q206.70 48.10 206.53 47.22Q206.35 46.35 206.35 45.35L206.35 21.95Q206.35 20.25 206.90 18.60Q207.45 16.95 208.65 15.62Q209.85 14.30 211.70 13.50Q213.55 12.70 216.20 12.70Q217.15 12.70 218.03 12.87Q218.90 13.05 219.42 13.82Q219.95 14.60 219.95 16.45Q219.95 18.30 219.40 19.07Q218.85 19.85 217.97 20.02Q217.10 20.20 216.15 20.20Q215.50 20.20 215.07 20.27Q214.65 20.35 214.40 20.50Q214.15 20.65 214.03 21.00Q213.90 21.35 213.90 21.85L213.90 45.50Q213.90 46.45 213.70 47.30Q213.50 48.15 212.70 48.67Q211.90 49.20 210.05 49.20M204.80 24.55L210.30 24.55L217.20 24.35Q218.15 24.35 219 24.52Q219.85 24.70 220.40 25.50Q220.95 26.30 220.95 28.15Q220.95 29.85 220.42 30.65Q219.90 31.45 219.05 31.67Q218.20 31.90 217.20 31.90L210.65 31.75L204.60 31.75Q203.15 31.70 202.57 30.87Q202 30.05 202 28.10Q202 26.30 202.70 25.42Q203.40 24.55 204.80 24.55ZM235.55 49.60Q232.05 49.60 229.53 48.45Q227 47.30 225.40 45.42Q223.80 43.55 223.03 41.25Q222.25 38.95 222.25 36.65Q222.25 32.90 223.95 30.00Q225.65 27.10 228.65 25.42Q231.65 23.75 235.55 23.75Q238.45 23.75 240.57 24.67Q242.70 25.60 244.07 27.07Q245.45 28.55 246.13 30.25Q246.80 31.95 246.80 33.50Q246.80 36.25 245.47 37.57Q244.15 38.90 242.10 38.90L230.20 38.90Q230.30 40.20 231.13 41.10Q231.95 42.00 233.20 42.50Q234.45 43.00 235.85 43.00Q237.05 43.00 237.95 42.87Q238.85 42.75 239.50 42.52Q240.15 42.30 240.70 42.07Q241.25 41.85 241.68 41.70Q242.10 41.55 242.50 41.50Q243.25 41.45 243.88 41.92Q244.50 42.40 245 43.35Q245.35 43.90 245.47 44.40Q245.60 44.90 245.60 45.40Q245.60 46.60 244.38 47.55Q243.15 48.50 240.93 49.05Q238.70 49.60 235.55 49.60M230.20 34.80L238.10 34.80Q238.90 34.80 239.28 34.52Q239.65 34.25 239.65 33.45Q239.65 32.55 239.10 31.87Q238.55 31.20 237.63 30.82Q236.70 30.45 235.50 30.45Q233.95 30.45 232.75 31.05Q231.55 31.65 230.88 32.65Q230.20 33.65 230.20 34.80ZM253.75 49.15Q251.90 49.15 251.13 48.62Q250.35 48.10 250.17 47.20Q250 46.30 250 45.35L250 27.90Q250 26.90 250.20 26.05Q250.40 25.20 251.17 24.67Q251.95 24.15 253.80 24.15Q255.55 24.15 256.32 24.62Q257.10 25.10 257.30 25.72Q257.50 26.35 257.50 26.80L256.90 27.10Q257 26.90 257.43 26.37Q257.85 25.85 258.60 25.27Q259.35 24.70 260.43 24.30Q261.50 23.90 262.90 23.90Q263.45 23.90 264.13 23.97Q264.80 24.05 265.52 24.27Q266.25 24.50 266.85 24.87Q267.45 25.25 267.82 25.80Q268.20 26.35 268.20 27.15Q268.20 29.20 267.25 30.62Q266.30 32.05 264.85 32.05Q264 32.05 263.65 31.90Q263.30 31.75 263.07 31.60Q262.85 31.45 262.55 31.32Q262.25 31.20 261.45 31.20Q260.70 31.20 260.02 31.40Q259.35 31.60 258.77 32.02Q258.20 32.45 257.88 33.07Q257.55 33.70 257.55 34.45L257.55 45.45Q257.55 46.40 257.38 47.27Q257.20 48.15 256.40 48.65Q255.60 49.15 253.75 49.15ZM275.15 49.15Q273.30 49.15 272.52 48.62Q271.75 48.10 271.57 47.22Q271.40 46.35 271.40 45.40L271.40 27.95Q271.40 26.95 271.57 26.10Q271.75 25.25 272.55 24.72Q273.35 24.20 275.20 24.20Q277.00 24.20 277.77 24.75Q278.55 25.30 278.72 26.15Q278.90 27.00 278.90 28.05L278.90 45.45Q278.90 46.40 278.72 47.27Q278.55 48.15 277.77 48.65Q277.00 49.15 275.15 49.15M275.15 20.55Q273.25 20.55 272.45 20.00Q271.65 19.45 271.47 18.55Q271.30 17.65 271.30 16.65Q271.30 15.60 271.50 14.72Q271.70 13.85 272.50 13.32Q273.30 12.80 275.20 12.80Q277.05 12.80 277.85 13.35Q278.65 13.90 278.82 14.80Q279.00 15.70 279.00 16.70Q279.00 17.70 278.82 18.60Q278.65 19.50 277.85 20.02Q277.05 20.55 275.15 20.55ZM287 49.15Q285.15 49.15 284.38 48.62Q283.60 48.10 283.43 47.20Q283.25 46.30 283.25 45.35L283.25 27.90Q283.25 26.90 283.45 26.05Q283.65 25.20 284.43 24.67Q285.20 24.15 287.05 24.15Q288.80 24.15 289.57 24.62Q290.35 25.10 290.55 25.72Q290.75 26.35 290.75 26.80L290.15 27.10Q290.25 26.90 290.68 26.37Q291.10 25.85 291.85 25.27Q292.60 24.70 293.68 24.30Q294.75 23.90 296.15 23.90Q296.70 23.90 297.38 23.97Q298.05 24.05 298.77 24.27Q299.50 24.50 300.10 24.87Q300.70 25.25 301.07 25.80Q301.45 26.35 301.45 27.15Q301.45 29.20 300.50 30.62Q299.55 32.05 298.10 32.05Q297.25 32.05 296.90 31.90Q296.55 31.75 296.32 31.60Q296.10 31.45 295.80 31.32Q295.50 31.20 294.70 31.20Q293.95 31.20 293.27 31.40Q292.60 31.60 292.02 32.02Q291.45 32.45 291.13 33.07Q290.80 33.70 290.80 34.45L290.80 45.45Q290.80 46.40 290.63 47.27Q290.45 48.15 289.65 48.65Q288.85 49.15 287 49.15ZM307.95 49.15Q306.15 49.15 305.35 48.62Q304.55 48.10 304.37 47.22Q304.20 46.35 304.20 45.40L304.20 27.95Q304.20 26.95 304.40 26.10Q304.60 25.25 305.37 24.72Q306.15 24.20 308.00 24.20Q309.80 24.20 310.57 24.75Q311.35 25.30 311.52 26.15Q311.70 27.00 311.70 28.05L311.70 45.45Q311.70 46.40 311.52 47.27Q311.35 48.15 310.57 48.65Q309.80 49.15 307.95 49.15M306.05 22.35Q305.15 22.40 304.57 21.80Q304.00 21.20 303.55 19.85Q303.00 18.10 303.35 17.25Q303.70 16.40 305.20 15.90L314.00 13.20Q314.85 13.15 315.45 13.77Q316.05 14.40 316.45 15.75Q317.00 17.40 316.62 18.27Q316.25 19.15 314.80 19.65L306.05 22.35ZM336.05 49.10Q334.20 49.10 333.32 48.45Q332.45 47.80 332.45 46.85L332.95 46.00Q332.65 46.50 331.80 47.22Q330.95 47.95 329.60 48.52Q328.25 49.10 326.25 49.10Q323.95 49.10 321.87 48.10Q319.80 47.10 318.20 45.32Q316.60 43.55 315.67 41.30Q314.75 39.05 314.75 36.55Q314.75 34.10 315.67 31.87Q316.60 29.65 318.22 27.92Q319.85 26.20 321.90 25.20Q323.95 24.20 326.25 24.20Q328.10 24.20 329.40 24.72Q330.70 25.25 331.57 25.95Q332.45 26.65 332.90 27.30L332.50 26.60Q332.45 25.40 333.32 24.77Q334.20 24.15 336.10 24.15Q337.90 24.15 338.67 24.70Q339.45 25.25 339.62 26.15Q339.80 27.05 339.80 28.05L339.80 45.30Q339.80 46.25 339.62 47.15Q339.45 48.05 338.67 48.57Q337.90 49.10 336.05 49.10M327.35 41.65Q328.65 41.65 329.72 40.97Q330.80 40.30 331.42 39.15Q332.05 38.00 332.05 36.60Q332.05 35.15 331.40 34.02Q330.75 32.90 329.65 32.22Q328.55 31.55 327.25 31.55Q325.80 31.55 324.67 32.25Q323.55 32.95 322.87 34.10Q322.20 35.25 322.20 36.70Q322.20 38.05 322.87 39.17Q323.55 40.30 324.72 40.97Q325.90 41.65 327.35 41.65ZM352.80 49.55Q351.45 49.55 349.87 49.25Q348.30 48.95 346.80 48.37Q345.30 47.80 344.30 47.02Q343.30 46.25 343.15 45.25Q343.05 44.75 343.17 44.17Q343.30 43.60 343.65 42.97Q344.00 42.35 344.50 41.65Q344.90 41.10 345.40 40.95Q345.90 40.80 346.55 41.00Q347.35 41.15 348.17 41.52Q349.00 41.90 349.82 42.32Q350.65 42.75 351.55 43.07Q352.45 43.40 353.40 43.40Q354.80 43.40 355.57 42.97Q356.35 42.55 356.35 41.80Q356.35 41.25 356.02 40.90Q355.70 40.55 355.12 40.27Q354.55 40.00 353.80 39.80Q353.05 39.60 352.17 39.37Q351.30 39.15 350.40 38.90Q349.15 38.55 348.00 38.00Q346.85 37.45 345.90 36.57Q344.95 35.70 344.40 34.42Q343.85 33.15 343.85 31.30Q343.85 28.85 345.00 27.20Q346.15 25.55 348.35 24.67Q350.55 23.80 353.70 23.80Q354.60 23.80 355.50 23.90Q356.40 24.00 357.27 24.25Q358.15 24.50 359.00 24.85Q359.85 25.20 360.70 25.70Q362.20 26.40 362.25 27.60Q362.30 28.80 361.40 30.05Q360.85 30.90 360.25 31.27Q359.65 31.65 359.00 31.50Q358.20 31.30 357.27 30.85Q356.35 30.40 355.32 30.00Q354.30 29.60 353.30 29.60Q352.45 29.60 351.85 29.82Q351.25 30.05 350.95 30.42Q350.65 30.80 350.65 31.30Q350.65 31.95 351.02 32.32Q351.40 32.70 352.05 32.95Q352.70 33.20 353.55 33.40Q354.40 33.60 355.40 33.80Q356.75 34.05 358.17 34.47Q359.60 34.90 360.77 35.70Q361.95 36.50 362.67 37.85Q363.40 39.20 363.40 41.40Q363.40 45.35 360.65 47.45Q357.90 49.55 352.80 49.55ZM376.65 37.80Q374.95 37.80 374.22 37.32Q373.50 36.85 373.32 36.10Q373.15 35.35 373.15 34.50L373.15 32.70Q373.15 31.30 373.70 30.47Q374.25 29.65 375.10 29.12Q375.95 28.60 376.90 28.20Q377.85 27.80 378.70 27.32Q379.55 26.85 380.10 26.10Q380.65 25.35 380.65 24.05Q380.65 22.15 379.60 21.22Q378.55 20.30 376.40 20.30Q375.40 20.30 374.65 20.60Q373.90 20.90 373.45 21.35Q373.00 21.80 372.75 22.35Q372.35 23.55 371.82 24.25Q371.30 24.95 370.50 25.07Q369.70 25.20 368.40 24.70Q367.00 24.15 366.35 23.62Q365.70 23.10 365.65 22.35Q365.60 21.60 365.95 20.40Q366.05 20.00 366.45 19.17Q366.85 18.35 367.57 17.37Q368.30 16.40 369.50 15.47Q370.70 14.55 372.40 13.95Q374.10 13.35 376.40 13.35Q379.65 13.35 382.15 14.75Q384.65 16.15 386.07 18.50Q387.50 20.85 387.50 23.90Q387.50 25.95 386.90 27.50Q386.30 29.05 385.35 30.12Q384.40 31.20 383.32 31.87Q382.25 32.55 381.35 32.92Q380.45 33.30 379.90 33.45L380.25 32.85L380.25 34.80Q380.25 35.60 380.05 36.30Q379.85 37.00 379.10 37.40Q378.35 37.80 376.65 37.80M376.55 49.20Q374.10 49.20 373.30 48.25Q372.50 47.30 372.50 45.10Q372.50 44.15 372.67 43.20Q372.85 42.25 373.70 41.65Q374.55 41.05 376.60 41.05Q379.15 41.05 379.92 41.97Q380.70 42.90 380.70 45.15Q380.70 46.10 380.52 47.02Q380.35 47.95 379.47 48.57Q378.60 49.20 376.55 49.20Z"/></g></g></svg>