<?xml version="1.0" standalone="no"?>
<!DOCTYPE svg PUBLIC "-//W3C//DTD SVG 20010904//EN"
 "http://www.w3.org/TR/2001/REC-SVG-20010904/DTD/svg10.dtd">
<svg version="1.0" xmlns="http://www.w3.org/2000/svg"
 width="532.480000pt" height="532.380000pt" viewBox="0 0 532.480000 532.380000"
 preserveAspectRatio="xMidYMid meet">
<g transform="translate(10.240000,522.640000) scale(0.100000,-0.100000)"
fill="#000000" stroke="none">
<path d="M2360 5104 c-524 -84 -942 -485 -1056 -1014 -26 -119 -26 -381 0
-500 56 -259 167 -462 355 -651 153 -154 303 -247 504 -314 377 -125 790 -65
1127 166 103 70 258 227 327 329 261 389 293 880 87 1293 -68 134 -125 212
-242 330 -173 174 -386 292 -632 348 -118 27 -345 33 -470 13z m346 -165 c670
-93 1106 -759 918 -1405 -83 -287 -281 -533 -542 -672 -200 -106 -450 -152
-668 -121 -605 84 -1036 647 -953 1245 84 605 647 1036 1245 953z"/>
<path d="M2404 4671 c-245 -70 -414 -271 -438 -522 -8 -72 4 -105 45 -128 14
-8 36 -11 50 -8 50 13 61 29 75 123 18 111 49 179 111 245 87 94 189 139 313
139 124 0 226 -45 313 -139 150 -160 150 -405 0 -571 -25 -28 -65 -62 -90 -76
-56 -34 -154 -64 -205 -64 -52 0 -77 -14 -94 -55 -32 -76 -9 -172 45 -195 45
-18 95 5 110 52 10 29 17 35 63 46 210 49 387 229 439 442 19 76 16 222 -5
294 -61 209 -225 368 -431 421 -79 20 -224 18 -301 -4z"/>
<path d="M2503 3216 c-26 -23 -28 -29 -28 -99 0 -66 3 -79 24 -101 32 -34 80
-35 118 -2 26 23 28 29 28 101 0 72 -2 78 -28 101 -16 13 -41 24 -57 24 -16 0
-41 -11 -57 -24z"/>
<path d="M728 3052 c-21 -9 -186 -156 -367 -325 -344 -323 -361 -342 -361
-422 0 -81 17 -101 359 -422 194 -182 342 -313 366 -324 88 -41 198 -13 259
64 29 37 31 44 34 144 l4 106 66 -7 c155 -14 378 -98 523 -197 83 -56 227
-195 288 -278 93 -125 161 -271 203 -435 18 -71 21 -123 27 -421 7 -373 8
-377 71 -449 18 -20 52 -47 74 -59 39 -21 53 -22 286 -22 233 0 247 1 286 22
22 12 56 39 74 59 63 72 64 76 71 449 6 298 9 350 27 421 42 164 110 310 203
435 61 83 205 222 288 278 146 99 368 183 528 198 l61 6 4 -106 c3 -100 5
-107 34 -144 61 -77 171 -105 259 -64 24 11 171 141 366 324 344 323 359 341
359 424 0 76 -27 108 -360 419 -176 165 -339 309 -362 322 -71 38 -177 25
-236 -31 -47 -44 -62 -89 -62 -191 l0 -94 -72 -7 c-573 -53 -1075 -314 -1431
-745 l-37 -45 -47 55 c-376 437 -857 687 -1415 735 l-78 7 0 94 c0 102 -15
147 -62 191 -56 52 -159 68 -230 35z m122 -300 c5 -142 5 -144 33 -168 23 -20
39 -24 93 -24 433 0 903 -191 1243 -506 74 -69 231 -249 231 -266 0 -5 -27
-57 -59 -116 -65 -115 -139 -290 -167 -390 -9 -34 -20 -62 -23 -62 -4 0 -22
30 -40 68 -216 440 -690 748 -1163 756 -89 1 -99 -1 -120 -22 -21 -21 -23 -33
-28 -165 l-5 -142 -28 0 c-22 0 -85 54 -338 289 -170 159 -308 295 -307 302 2
8 142 144 313 304 253 237 315 290 335 288 l25 -3 5 -143z m3785 -143 c171
-159 310 -297 310 -305 0 -8 -139 -145 -310 -305 -256 -240 -314 -289 -335
-287 l-25 3 -5 142 c-5 132 -7 144 -28 165 -20 21 -32 23 -111 22 -547 -8
-1063 -392 -1241 -923 -59 -175 -63 -210 -69 -569 l-6 -334 -28 -24 c-28 -24
-31 -24 -227 -24 -196 0 -199 0 -227 24 l-28 24 -3 209 c-4 249 10 477 38 616
164 815 823 1416 1652 1506 54 6 124 11 157 11 49 0 65 4 88 24 28 24 28 25
31 158 1 73 5 139 7 146 14 39 57 5 360 -279z"/>
</g>
</svg>
