<?xml version="1.0" standalone="no"?>
<!DOCTYPE svg PUBLIC "-//W3C//DTD SVG 20010904//EN"
 "http://www.w3.org/TR/2001/REC-SVG-20010904/DTD/svg10.dtd">
<svg version="1.0" xmlns="http://www.w3.org/2000/svg"
 width="480.640000pt" height="231.790000pt" viewBox="59.26 55.76 480.64 231.79"
 preserveAspectRatio="xMidYMid meet">
<g transform="translate(0.000000,327.000000) scale(0.050000,-0.050000)"
fill="#000000" stroke="none">
<path d="M5207 5209 c-17 -44 25 -85 56 -54 25 25 9 85 -23 85 -12 0 -27 -14
-33 -31z"/>
<path d="M7410 5161 c-6 -21 -32 -45 -56 -53 l-44 -14 43 -19 c23 -11 50 -36
60 -55 15 -33 22 -31 70 22 51 56 51 60 15 79 -21 11 -38 34 -38 50 0 42 -35
36 -50 -10z"/>
<path d="M5786 4922 c-38 -60 20 -116 69 -67 37 37 36 38 -5 69 -39 30 -44 30
-64 -2z"/>
<path d="M7804 4895 c-37 -44 6 -93 46 -53 28 27 28 35 4 55 -22 18 -34 18
-50 -2z"/>
<path d="M4672 4842 c-55 -61 13 -137 71 -79 37 37 37 39 1 78 -37 39 -38 39
-72 1z"/>
<path d="M8795 4672 c-33 -25 -33 -28 2 -60 34 -30 40 -30 63 -2 40 48 -15 99
-65 62z"/>
<path d="M6667 4573 c-74 -74 -107 -123 -107 -158 0 -65 -103 -125 -161 -95
-105 57 -299 -22 -299 -122 0 -36 -31 -17 -63 41 -63 110 -291 96 -327 -20
-14 -42 -17 -41 -87 28 -345 336 -809 29 -811 -537 l0 -200 -75 -1 -75 -1 37
61 c49 80 70 226 42 299 -16 42 -16 76 0 125 73 222 -187 392 -343 225 -65
-70 -79 -198 -29 -265 47 -62 16 -172 -80 -275 -190 -206 -224 -481 -77 -620
71 -67 60 -78 -77 -78 -132 0 -223 -34 -270 -101 -27 -38 -28 -38 -84 3 -110
82 -432 88 -548 11 -32 -20 -47 -15 -106 41 -92 87 -200 114 -394 98 -350 -29
-363 -51 -346 -578 27 -823 41 -870 256 -849 165 16 207 74 207 286 l0 169 65
12 c36 7 101 38 144 70 96 69 96 69 99 -137 4 -253 38 -305 199 -305 86 0 203
77 203 133 0 20 21 9 62 -31 69 -70 181 -84 249 -33 27 20 70 26 139 20 55 -6
190 4 300 20 224 35 203 33 345 18 166 -17 225 53 225 271 0 141 5 162 35 162
19 0 55 6 80 13 44 11 45 7 45 -132 0 -134 4 -148 61 -205 l61 -61 209 14
c115 7 237 22 273 32 43 12 85 11 128 -5 92 -33 187 -1 242 82 37 55 48 61 58
34 31 -80 177 -113 275 -62 43 22 67 24 97 8 49 -26 163 -8 196 32 21 25 31
25 81 -1 111 -57 240 -24 279 72 l23 56 56 -63 c59 -65 147 -82 231 -44 47 21
260 32 463 24 105 -4 160 42 182 152 21 108 58 116 84 18 40 -147 147 -194
289 -125 85 41 92 42 154 10 104 -54 297 -33 390 42 l73 60 66 -66 c148 -148
371 -32 341 178 -28 195 -7 268 102 364 171 151 225 368 134 543 -119 230
-464 284 -628 97 l-61 -70 -65 40 c-214 132 -495 17 -556 -227 l-25 -97 -35
128 c-50 185 -144 247 -300 201 -100 -30 -131 -79 -174 -280 -34 -157 -73
-212 -50 -71 6 37 1 109 -12 159 -23 91 -22 92 47 158 129 121 54 320 -119
320 -129 0 -319 -219 -302 -347 15 -116 3 -130 -70 -77 -38 28 -103 47 -192
57 -75 7 -115 15 -89 16 174 11 223 317 61 384 l-57 24 39 55 c52 73 51 180
-1 247 -31 39 -34 53 -14 53 120 0 168 246 66 334 -49 43 -54 56 -35 88 72
114 -18 256 -164 257 -68 1 -92 -13 -185 -106z m242 -4 c50 -51 37 -82 -62
-158 -180 -138 -260 -57 -103 103 92 94 117 102 165 55z m-1421 -337 c195
-114 270 -513 150 -790 l-39 -89 65 -54 c59 -49 63 -60 45 -112 -28 -82 -128
-90 -201 -16 -46 45 -60 50 -102 31 -261 -119 -497 129 -493 518 5 427 289
680 575 512z m1508 -18 c10 -84 -23 -108 -167 -123 l-129 -14 0 -79 0 -78 96
0 c203 0 207 -169 4 -184 l-90 -6 -6 -95 -6 -95 137 0 c181 0 259 -93 140
-167 -60 -38 -420 -60 -452 -28 -34 34 -32 862 2 891 84 69 463 52 471 -22z
m-616 12 c6 -5 10 -164 10 -353 0 -492 -56 -593 -326 -593 -232 0 -284 107
-284 581 0 328 8 359 93 359 95 0 107 -41 107 -350 0 -356 33 -447 142 -389
65 35 78 106 78 415 0 162 7 304 15 316 29 43 125 51 165 14z m-1745 -82 c35
-44 31 -104 -8 -147 -68 -75 -187 -20 -187 85 0 104 130 145 195 62z m-6 -275
c69 -70 35 -194 -97 -349 -133 -155 -127 -300 11 -300 61 0 78 19 108 120 42
146 233 76 197 -73 -48 -199 -282 -302 -468 -207 -203 103 -202 358 0 572 72
76 100 122 100 163 0 98 83 139 149 74z m3053 -432 c40 -76 -196 -252 -256
-191 -38 38 -16 83 93 180 84 77 126 79 163 11z m1712 -136 c184 -113 170
-359 -32 -546 -74 -70 -102 -110 -102 -150 -1 -102 -71 -145 -142 -88 -77 63
-39 204 92 341 128 136 157 266 65 300 -59 23 -95 1 -134 -81 -52 -112 -181
-96 -181 22 0 188 259 308 434 202z m-646 -69 c80 -33 132 -102 132 -172 0
-106 -84 -131 -161 -49 -66 70 -146 61 -155 -18 -9 -70 30 -114 168 -193 160
-90 225 -227 187 -395 -65 -289 -559 -263 -559 29 0 124 112 147 177 36 74
-125 231 -73 183 60 -7 22 -75 81 -150 131 -201 134 -257 275 -175 439 69 137
212 191 353 132z m-682 -37 c21 -16 79 -194 157 -483 l124 -458 -46 -37 c-92
-74 -143 -44 -184 110 l-26 95 -99 -6 -99 -6 -24 -106 c-33 -148 -134 -200
-195 -102 -35 56 198 976 253 998 62 25 101 24 139 -5z m-515 -43 c36 -27 39
-60 45 -482 7 -497 5 -510 -106 -510 -90 0 -90 1 -90 507 1 444 5 477 60 498
45 18 49 17 91 -13z m-393 -59 c155 -73 188 -380 53 -492 -45 -37 -39 -64 39
-207 84 -152 90 -226 23 -256 -78 -36 -129 9 -217 192 -105 220 -138 214 -131
-23 6 -197 -50 -260 -165 -187 -48 30 -56 922 -9 961 68 56 299 63 407 12z
m-579 -32 c41 -76 52 -907 12 -947 -40 -40 -91 -44 -135 -9 -47 38 -69 888
-24 952 38 54 120 56 147 4z m-481 -14 c204 -40 284 -332 137 -499 l-59 -68
82 -139 c115 -193 104 -293 -30 -277 -47 5 -69 32 -144 176 -119 230 -148 233
-140 14 6 -191 -14 -234 -107 -234 -87 0 -97 53 -97 526 1 479 -1 471 132 493
133 22 153 23 226 8z m-479 -55 c85 -103 5 -191 -174 -192 l-105 0 0 -99 0
-99 103 12 c86 10 107 6 130 -25 68 -93 8 -169 -134 -169 l-99 0 0 -97 c0
-121 -6 -117 144 -102 174 17 225 -20 187 -138 -24 -77 -469 -121 -507 -50
-31 57 -38 881 -8 911 20 20 124 38 417 73 12 2 33 -10 46 -25z m-571 -64 c41
-106 -2 -168 -117 -168 -151 -1 -171 -14 -171 -112 l0 -88 118 0 c205 0 197
-163 -9 -189 l-112 -14 13 -166 c18 -205 -1 -251 -101 -251 -97 0 -101 20
-115 503 -13 481 -13 479 149 498 212 26 332 21 345 -13z m-2015 -39 c260
-195 144 -638 -188 -712 l-106 -24 3 -190 c3 -209 -14 -243 -123 -243 -85 0
-94 31 -107 370 -7 176 -18 415 -24 530 -13 243 1 276 124 301 143 30 360 13
421 -32z m1388 10 c41 -21 52 -107 22 -155 -10 -15 -76 -31 -160 -38 l-143
-12 0 -96 0 -96 100 12 c117 14 160 -12 160 -97 0 -66 -55 -97 -171 -97 l-69
0 0 -102 0 -103 148 14 c165 16 210 -14 183 -122 -17 -66 -68 -81 -301 -90
-260 -9 -249 -31 -250 496 0 490 -26 459 416 504 15 2 44 -6 65 -18z m4592
-11 l59 -11 -41 -88 -41 -88 -74 73 c-99 96 -57 145 97 114z m-5372 -48 c218
-60 262 -310 96 -541 -17 -25 -5 -62 60 -177 94 -164 96 -175 50 -225 -81 -90
-148 -45 -259 172 -97 188 -117 183 -124 -36 -5 -159 -10 -176 -55 -205 -66
-44 -149 5 -149 87 0 30 -6 235 -13 455 -14 453 -16 446 140 471 126 21 176
21 254 -1z m5588 -451 c67 -67 23 -189 -69 -189 -59 0 -120 60 -120 118 0 85
127 132 189 71z"/>
<path d="M5211 4029 c-136 -146 -109 -565 40 -633 65 -30 82 -9 42 53 -81 123
19 244 116 141 l46 -51 12 46 c79 293 -103 609 -256 444z"/>
<path d="M5420 3379 c0 -12 -8 -16 -19 -10 -10 7 -26 -1 -35 -16 -9 -15 -29
-31 -45 -37 -21 -6 -17 -12 15 -21 24 -6 40 -4 34 5 -10 16 47 49 74 43 8 -1
9 11 3 27 -13 35 -27 39 -27 9z"/>
<path d="M7980 2917 c0 -19 -43 -248 -52 -282 -9 -29 2 -35 61 -35 39 0 71 2
71 5 0 23 -64 306 -71 313 -5 5 -9 4 -9 -1z"/>
<path d="M6920 2801 c0 -77 5 -141 11 -141 176 0 236 262 64 276 l-75 6 0
-141z"/>
<path d="M5935 2845 c-30 -61 11 -245 55 -245 51 0 130 84 130 138 0 85 -153
173 -185 107z"/>
<path d="M2718 2732 c-4 -5 -5 -89 -2 -188 l7 -179 70 16 c221 49 214 359 -8
359 -32 0 -62 -4 -67 -8z"/>
<path d="M3442 2530 c4 -150 53 -177 149 -81 91 91 51 211 -71 211 l-80 0 2
-130z"/>
<path d="M3765 4505 c-38 -40 -40 -48 -13 -58 17 -7 39 -32 49 -55 l17 -42 13
45 c8 25 26 45 41 45 40 0 34 24 -17 71 l-45 40 -45 -46z"/>
<path d="M2756 4475 c-3 -26 -30 -56 -64 -73 l-59 -27 55 -29 c29 -15 64 -52
76 -82 23 -53 23 -53 31 -8 5 26 36 63 70 84 l63 38 -54 20 c-31 12 -58 42
-66 71 -15 63 -43 66 -52 6z"/>
<path d="M9507 4449 l-44 -49 41 -46 42 -47 47 48 c54 54 58 65 20 65 -15 0
-35 18 -45 39 -17 38 -19 38 -61 -10z"/>
<path d="M7560 4350 c0 -16 -16 -30 -35 -31 -33 0 -33 -2 0 -27 19 -14 35 -37
35 -49 0 -13 9 -23 20 -23 11 0 20 14 20 30 0 17 14 30 30 30 17 0 30 9 30 20
0 11 -13 20 -30 20 -16 0 -30 14 -30 30 0 17 -9 30 -20 30 -11 0 -20 -13 -20
-30z"/>
<path d="M8226 4205 c-33 -34 -38 -48 -18 -60 14 -8 36 -33 48 -55 23 -39 24
-39 36 5 7 25 25 45 40 45 38 0 35 11 -17 64 l-45 46 -44 -45z"/>
<path d="M10126 3942 c-33 -52 17 -101 63 -63 27 23 5 101 -29 101 -6 0 -21
-17 -34 -38z"/>
<path d="M8912 3907 c-6 -15 -25 -27 -41 -27 -42 0 -39 -10 18 -67 46 -46 50
-47 61 -13 7 21 25 40 40 44 21 4 15 18 -20 48 -37 33 -50 37 -58 15z"/>
<path d="M3375 3878 c-43 -47 -44 -58 -5 -58 17 0 30 -13 30 -30 0 -40 12 -38
60 10 l40 40 -40 40 c-47 47 -41 47 -85 -2z"/>
<path d="M3980 3889 c-32 -38 -1 -76 47 -58 40 16 42 37 6 67 -21 17 -34 15
-53 -9z"/>
<path d="M2076 3868 c-29 -30 -29 -36 0 -69 30 -36 32 -36 60 4 42 59 -10 115
-60 65z"/>
<path d="M7884 3847 c-21 -23 -21 -33 3 -56 25 -26 32 -25 60 6 29 31 28 36
-3 56 -26 16 -41 15 -60 -6z"/>
<path d="M9506 3778 c-17 -17 -17 -30 1 -48 29 -32 76 0 60 41 -14 35 -31 37
-61 7z"/>
<path d="M8364 3675 c-37 -44 6 -93 46 -53 28 27 28 35 4 55 -22 18 -34 18
-50 -2z"/>
<path d="M2564 3535 c-15 -18 -13 -36 6 -62 26 -35 27 -35 46 0 34 66 -8 115
-52 62z"/>
<path d="M3150 3420 c-32 -36 -33 -40 -3 -52 18 -7 33 -26 33 -42 0 -21 11
-16 38 16 63 78 -1 153 -68 78z"/>
<path d="M3772 3368 c-18 -47 20 -84 52 -52 19 19 17 31 -7 56 -29 28 -33 28
-45 -4z"/>
<path d="M10075 3239 c-54 -56 -55 -58 -15 -79 22 -12 40 -35 40 -51 0 -42 35
-36 49 9 7 21 32 44 57 51 l44 13 -43 21 c-23 12 -50 37 -60 57 -15 33 -22 31
-72 -21z"/>
<path d="M1850 3140 c-7 -22 -26 -40 -41 -40 -42 0 -35 -35 11 -60 22 -12 40
-35 40 -51 0 -16 9 -29 20 -29 11 0 20 13 20 29 0 16 20 40 44 53 l45 24 -45
29 c-24 17 -44 42 -44 57 0 42 -36 33 -50 -12z"/>
<path d="M9815 2557 c-33 -35 -33 -39 3 -75 36 -36 38 -36 70 1 51 60 -19 130
-73 74z"/>
<path d="M10489 2453 c-40 -43 -40 -43 0 -84 l41 -40 42 43 41 43 -42 40 -43
41 -39 -43z"/>
<path d="M2013 2418 c-52 -61 13 -132 69 -76 37 37 37 39 0 76 -36 36 -38 36
-69 0z"/>
<path d="M1410 2154 l-40 -44 45 -48 c34 -37 45 -41 45 -17 0 18 20 39 45 47
l45 14 -44 20 c-24 10 -47 31 -50 46 -4 18 -18 13 -46 -18z"/>
<path d="M9700 1836 c0 -16 -20 -39 -45 -50 l-45 -20 45 -14 c25 -8 45 -28 45
-43 0 -16 9 -29 20 -29 11 0 20 13 20 29 0 16 11 36 25 45 20 12 15 28 -20 64
-32 35 -45 40 -45 18z"/>
<path d="M8225 1827 c-29 -12 -33 -59 -7 -76 35 -21 78 11 67 50 -10 40 -17
43 -60 26z"/>
<path d="M8853 1763 c-31 -34 -31 -39 2 -68 49 -44 97 4 65 65 -26 49 -26 49
-67 3z"/>
<path d="M6447 1584 c-40 -64 12 -110 71 -62 25 21 35 38 21 38 -13 0 -35 14
-47 30 -19 27 -25 26 -45 -6z"/>
<path d="M3984 1555 c-31 -39 19 -77 62 -46 25 19 27 30 9 48 -29 29 -45 29
-71 -2z"/>
<path d="M2120 1472 c0 -17 -20 -41 -44 -54 -37 -20 -39 -26 -13 -46 16 -12
38 -37 48 -55 17 -28 25 -26 71 21 l51 53 -56 56 c-40 39 -57 46 -57 25z"/>
<path d="M3344 1456 c-34 -34 -30 -70 10 -85 56 -21 95 35 50 75 -28 26 -42
28 -60 10z"/>
<path d="M5226 1422 c-36 -58 30 -111 77 -61 30 32 29 37 -6 67 -46 40 -43 40
-71 -6z"/>
<path d="M7460 1361 c0 -23 -23 -52 -55 -69 l-55 -29 55 -21 c35 -13 55 -36
55 -62 0 -55 33 -50 48 8 6 26 32 53 57 61 l45 13 -45 22 c-25 13 -51 44 -58
69 -14 57 -47 62 -47 8z"/>
<path d="M8515 1337 c-33 -35 -33 -39 3 -75 36 -36 38 -36 70 1 51 60 -19 130
-73 74z"/>
<path d="M5921 1185 c-1 -14 -19 -43 -41 -65 -39 -39 -39 -39 9 -91 48 -51 48
-51 70 -10 12 22 38 41 57 41 29 1 28 6 -8 35 -24 19 -53 53 -65 75 -12 22
-22 29 -22 15z"/>
<path d="M4490 1134 l-40 -44 45 -48 c25 -27 45 -37 45 -22 0 14 16 38 35 52
22 17 26 27 9 27 -14 1 -32 18 -40 40 -14 37 -15 37 -54 -5z"/>
<path d="M2856 1052 c-32 -23 -31 -27 3 -57 35 -29 40 -29 71 5 44 49 -18 93
-74 52z"/>
</g>
</svg>
