<?xml version="1.0" standalone="no"?>
<!DOCTYPE svg PUBLIC "-//W3C//DTD SVG 20010904//EN"
 "http://www.w3.org/TR/2001/REC-SVG-20010904/DTD/svg10.dtd">
<svg version="1.0" xmlns="http://www.w3.org/2000/svg"
 width="600.000000pt" height="600.000000pt" viewBox="0 0 600.000000 600.000000"
 preserveAspectRatio="xMidYMid meet">
<metadata>
Created by potrace 1.16, written by Peter Selinger 2001-2019
</metadata>
<g transform="translate(0.000000,600.000000) scale(0.100000,-0.100000)"
fill="#000000" stroke="none">
<path d="M3305 4946 c-33 -13 -116 -53 -185 -89 -78 -40 -145 -68 -175 -73
-35 -5 -106 1 -240 20 -203 28 -277 32 -322 16 -15 -6 -89 -73 -163 -149 -76
-78 -157 -151 -184 -167 -48 -27 -56 -28 -235 -35 -333 -13 -488 -50 -586
-140 -61 -57 -82 -93 -100 -179 -22 -105 -40 -135 -119 -202 -228 -193 -320
-326 -392 -564 -23 -75 -27 -108 -27 -209 -1 -112 1 -127 34 -222 58 -164 151
-311 295 -463 l71 -75 28 -130 c36 -172 86 -353 125 -454 73 -189 235 -284
455 -267 141 10 267 53 337 115 l37 32 26 -50 c49 -97 128 -166 233 -202 126
-44 372 -32 514 25 32 13 58 22 58 21 0 -1 -12 -34 -26 -71 -19 -49 -28 -96
-32 -162 -5 -88 -3 -95 27 -156 33 -68 103 -141 151 -157 18 -7 30 -19 32 -32
6 -45 157 -30 437 43 l114 30 116 -14 c223 -29 367 -40 526 -40 155 -1 162 0
216 27 118 57 221 176 263 304 14 43 34 117 45 165 18 85 21 90 101 185 99
118 209 282 256 380 65 139 119 381 144 653 5 63 10 301 10 529 l0 415 39 46
c151 179 236 394 248 625 9 191 -39 327 -158 445 -83 82 -152 123 -282 168
-91 32 -116 36 -228 40 -144 5 -248 -15 -354 -68 -73 -36 -217 -55 -370 -48
-87 4 -114 10 -210 47 -248 96 -273 103 -385 107 -93 4 -112 2 -165 -20z m290
-92 c186 -47 262 -96 378 -244 64 -82 150 -135 109 -67 -27 43 -45 114 -37
144 10 42 62 55 250 63 l170 7 99 42 c117 50 185 62 287 51 234 -27 429 -184
500 -403 32 -96 34 -291 5 -377 -52 -155 -170 -283 -327 -355 -180 -82 -387
-75 -531 17 -103 65 -193 196 -219 318 -29 137 12 325 101 468 29 46 40 74 38
95 -3 29 -6 26 -77 -64 -162 -205 -185 -330 -135 -704 43 -317 148 -537 361
-756 l83 -86 -67 -45 c-115 -76 -272 -206 -395 -326 -98 -96 -120 -113 -132
-103 -39 33 -95 252 -122 481 -14 111 -18 229 -18 507 -1 409 2 402 -70 193
-51 -151 -60 -247 -53 -604 5 -333 20 -453 78 -639 l30 -99 -43 -46 c-56 -61
-127 -161 -186 -263 l-47 -81 -110 -37 c-127 -44 -199 -72 -257 -102 l-41 -21
-76 27 c-103 36 -192 87 -231 132 -115 130 -147 358 -96 683 28 176 40 232
138 665 61 266 72 327 76 431 5 136 -10 213 -53 261 l-24 28 9 -40 c18 -76 10
-156 -25 -275 -80 -269 -193 -718 -250 -1000 -36 -176 -58 -372 -50 -449 13
-126 69 -242 166 -346 33 -34 59 -68 59 -74 0 -27 -54 -114 -106 -170 -102
-110 -254 -159 -418 -133 -172 27 -250 113 -311 342 -79 296 -106 635 -86
1055 14 299 40 729 46 774 8 59 -5 27 -35 -88 -35 -134 -63 -201 -84 -201 -21
0 -53 36 -82 93 -13 26 -26 47 -27 47 -2 0 5 -48 15 -106 43 -254 52 -387 53
-794 2 -433 12 -550 63 -759 32 -128 35 -120 -57 -166 -106 -53 -276 -70 -381
-39 -41 12 -67 29 -112 75 -106 105 -153 246 -208 624 -31 208 -79 467 -101
535 -26 82 -22 402 7 560 2 14 -11 -6 -31 -44 -62 -123 -70 -184 -70 -508 0
-159 -2 -288 -5 -288 -3 0 -29 21 -58 46 -58 51 -122 150 -153 239 -60 170
-37 410 56 595 63 126 145 221 299 349 95 79 116 112 137 212 15 72 40 119 84
157 79 70 132 83 482 123 189 21 203 21 227 6 31 -20 48 -77 39 -132 l-6 -40
28 25 c34 32 51 64 60 117 13 78 186 293 268 331 40 19 56 20 315 15 337 -7
335 -6 269 -137 -19 -36 -33 -66 -31 -66 1 0 22 9 46 19 54 24 86 54 94 89 18
86 30 107 79 144 55 41 152 96 194 108 50 16 136 10 236 -16z m1188 -2094 c1
-103 -8 -141 -66 -280 -45 -111 -63 -186 -82 -348 -16 -135 -31 -184 -61 -196
-9 -3 -53 10 -101 30 -77 33 -223 77 -230 70 -2 -2 35 -25 83 -52 107 -60 175
-120 227 -199 43 -67 44 -81 11 -244 -38 -192 -95 -330 -167 -408 -83 -90
-156 -108 -392 -99 -161 6 -266 19 -364 46 l-43 11 25 27 c68 74 106 168 93
235 -10 51 -64 109 -129 138 -48 22 -65 24 -202 23 -104 0 -162 -5 -190 -15
-40 -14 -40 -14 -47 -79 -8 -87 -38 -162 -101 -255 -66 -100 -74 -104 -121
-76 -55 34 -71 72 -71 167 0 75 3 86 44 170 35 70 60 105 120 164 229 225 680
346 1120 300 52 -6 96 -8 98 -6 2 2 -20 19 -49 38 -63 42 -174 84 -259 97 -34
6 -64 13 -67 15 -9 9 81 155 162 264 157 209 325 363 590 540 l140 94 15 -39
c8 -23 14 -76 14 -133z m-1257 -1331 c134 -34 105 -194 -56 -314 -112 -81
-337 -152 -403 -126 l-29 11 29 38 c59 74 103 161 134 258 40 128 40 128 80
135 59 11 198 9 245 -2z"/>
<path d="M4623 4455 c-84 -18 -128 -41 -143 -73 -54 -116 -63 -204 -29 -282
l21 -50 27 19 c76 54 200 77 325 61 110 -15 228 -46 286 -75 l48 -24 13 32 c8
18 14 67 14 114 0 74 -3 85 -30 125 -39 55 -132 118 -218 146 -79 26 -213 29
-314 7z m245 -60 c108 -26 207 -86 237 -146 8 -15 15 -49 15 -75 0 -52 8 -50
-92 -15 -90 33 -233 54 -322 48 -60 -4 -93 -12 -139 -35 -34 -17 -65 -28 -69
-26 -12 8 -10 91 3 135 19 63 57 99 119 114 74 18 172 18 248 0z"/>
</g>
</svg>
