<svg xmlns="http://www.w3.org/2000/svg" viewBox="0 12.800000190734863 302.04998779296875 141.8719940185547" data-asc="0.974" width="302.04998779296875" height="141.8719940185547"><defs/><g fill="#000000"><g transform="translate(0, 0)"><path d="M10.85 35.55Q12.60 35.55 13.33 36.00Q14.05 36.45 14.20 37.20Q14.35 37.95 14.35 38.85L14.35 40.65Q14.35 42.05 13.80 42.87Q13.25 43.70 12.40 44.22Q11.55 44.75 10.60 45.15Q9.65 45.55 8.80 46.02Q7.95 46.50 7.40 47.25Q6.85 48.00 6.85 49.30Q6.85 51.15 7.90 52.10Q8.95 53.05 11.15 53.05Q12.20 53.05 12.93 52.75Q13.65 52.45 14.10 51.97Q14.55 51.50 14.75 51.00Q15.20 49.75 15.70 49.05Q16.20 48.35 17.03 48.25Q17.85 48.15 19.15 48.60Q20.50 49.15 21.15 49.70Q21.80 50.25 21.88 51.00Q21.95 51.75 21.55 52.95Q21.45 53.35 21.08 54.15Q20.70 54.95 19.95 55.95Q19.20 56.95 18 57.88Q16.80 58.80 15.13 59.38Q13.45 59.95 11.15 59.95Q7.90 59.95 5.38 58.57Q2.85 57.20 1.43 54.82Q0 52.45 0 49.40Q0 47.40 0.60 45.85Q1.20 44.30 2.18 43.22Q3.15 42.15 4.20 41.45Q5.25 40.75 6.18 40.37Q7.10 40.00 7.60 39.90L7.30 40.45L7.30 38.55Q7.30 37.70 7.47 37.02Q7.65 36.35 8.43 35.95Q9.20 35.55 10.85 35.55M10.95 24.15Q13.45 24.15 14.23 25.07Q15 26.00 15 28.25Q15 29.20 14.83 30.12Q14.65 31.05 13.80 31.67Q12.95 32.30 10.90 32.30Q8.40 32.30 7.63 31.35Q6.85 30.40 6.85 28.20Q6.85 27.20 7 26.27Q7.15 25.35 8.03 24.75Q8.90 24.15 10.95 24.15ZM59.40 42.10Q61.15 43.25 61.38 44.40Q61.60 45.55 60.30 47.35Q59.40 48.65 58.65 49.10Q57.90 49.55 57.05 49.30Q56.20 49.05 55.05 48.30L51.35 45.90Q49.20 47.65 46.60 48.65Q44 49.65 41.10 49.65Q37.50 49.65 34.33 48.27Q31.15 46.90 28.77 44.47Q26.40 42.05 25.02 38.82Q23.65 35.60 23.65 32.00Q23.65 28.20 24.98 24.92Q26.30 21.65 28.63 19.15Q30.95 16.65 34.05 15.25Q37.15 13.85 40.70 13.85Q44.30 13.85 47.48 15.22Q50.65 16.60 53.03 19.05Q55.40 21.50 56.75 24.75Q58.10 28.00 58.10 31.80Q58.10 33.95 57.58 36.00Q57.05 38.05 56.10 39.90L59.40 42.10M40.85 42.05Q42.85 42.05 44.60 41.25Q46.35 40.45 47.67 39.07Q49 37.70 49.73 35.80Q50.45 33.90 50.45 31.75Q50.45 29.65 49.70 27.77Q48.95 25.90 47.63 24.47Q46.30 23.05 44.58 22.25Q42.85 21.45 40.90 21.45Q38.90 21.45 37.15 22.25Q35.40 23.05 34.08 24.47Q32.75 25.90 32 27.77Q31.25 29.65 31.25 31.80Q31.25 33.90 32.02 35.77Q32.80 37.65 34.13 39.05Q35.45 40.45 37.17 41.25Q38.90 42.05 40.85 42.05ZM73.65 49.10Q71.35 49.10 69.33 48.20Q67.30 47.30 65.80 45.67Q64.30 44.05 63.48 41.82Q62.65 39.60 62.65 36.95L62.65 27.90Q62.65 26.90 62.85 26.05Q63.05 25.20 63.83 24.65Q64.60 24.10 66.45 24.10Q68.30 24.10 69.08 24.65Q69.85 25.20 70.03 26.07Q70.20 26.95 70.20 27.95L70.20 36.95Q70.20 38.40 70.72 39.47Q71.25 40.55 72.28 41.10Q73.30 41.65 74.70 41.65Q76.15 41.65 77.17 41.07Q78.20 40.50 78.78 39.45Q79.35 38.40 79.35 36.95L79.35 27.85Q79.35 26.85 79.55 26.00Q79.75 25.15 80.53 24.62Q81.30 24.10 83.15 24.10Q85 24.10 85.78 24.65Q86.55 25.20 86.72 26.07Q86.90 26.95 86.90 27.90L86.90 45.50Q86.90 46.45 86.72 47.27Q86.55 48.10 85.75 48.60Q84.95 49.10 83.15 49.10Q81.80 49.10 81.05 48.80Q80.30 48.50 79.95 48.05Q79.60 47.60 79.53 47.10Q79.45 46.60 79.45 46.20L80.10 45.65Q79.95 45.85 79.45 46.40Q78.95 46.95 78.13 47.57Q77.30 48.20 76.20 48.65Q75.10 49.10 73.65 49.10ZM94.90 49.15Q93.05 49.15 92.27 48.62Q91.50 48.10 91.32 47.22Q91.15 46.35 91.15 45.40L91.15 27.95Q91.15 26.95 91.32 26.10Q91.50 25.25 92.30 24.72Q93.10 24.20 94.95 24.20Q96.75 24.20 97.52 24.75Q98.30 25.30 98.47 26.15Q98.65 27.00 98.65 28.05L98.65 45.45Q98.65 46.40 98.47 47.27Q98.30 48.15 97.52 48.65Q96.75 49.15 94.90 49.15M94.90 20.55Q93 20.55 92.20 20.00Q91.40 19.45 91.22 18.55Q91.05 17.65 91.05 16.65Q91.05 15.60 91.25 14.72Q91.45 13.85 92.25 13.32Q93.05 12.80 94.95 12.80Q96.80 12.80 97.60 13.35Q98.40 13.90 98.57 14.80Q98.75 15.70 98.75 16.70Q98.75 17.70 98.57 18.60Q98.40 19.50 97.60 20.02Q96.80 20.55 94.90 20.55ZM115.40 49.60Q111.90 49.60 109.37 48.45Q106.85 47.30 105.25 45.42Q103.65 43.55 102.87 41.25Q102.10 38.95 102.10 36.65Q102.10 32.90 103.80 30.00Q105.50 27.10 108.50 25.42Q111.50 23.75 115.40 23.75Q118.30 23.75 120.42 24.67Q122.55 25.60 123.92 27.07Q125.30 28.55 125.97 30.25Q126.65 31.95 126.65 33.50Q126.65 36.25 125.32 37.57Q124.00 38.90 121.95 38.90L110.05 38.90Q110.15 40.20 110.97 41.10Q111.80 42.00 113.05 42.50Q114.30 43.00 115.70 43.00Q116.90 43.00 117.80 42.87Q118.70 42.75 119.35 42.52Q120.00 42.30 120.55 42.07Q121.10 41.85 121.52 41.70Q121.95 41.55 122.35 41.50Q123.10 41.45 123.72 41.92Q124.35 42.40 124.85 43.35Q125.20 43.90 125.32 44.40Q125.45 44.90 125.45 45.40Q125.45 46.60 124.22 47.55Q123.00 48.50 120.77 49.05Q118.55 49.60 115.40 49.60M110.05 34.80L117.95 34.80Q118.75 34.80 119.12 34.52Q119.50 34.25 119.50 33.45Q119.50 32.55 118.95 31.87Q118.40 31.20 117.47 30.82Q116.55 30.45 115.35 30.45Q113.80 30.45 112.60 31.05Q111.40 31.65 110.72 32.65Q110.05 33.65 110.05 34.80M112.45 22.35Q111.55 22.40 110.97 21.80Q110.40 21.20 109.95 19.85Q109.40 18.10 109.75 17.25Q110.10 16.40 111.60 15.90L120.40 13.20Q121.25 13.15 121.85 13.77Q122.45 14.40 122.85 15.75Q123.40 17.40 123.02 18.27Q122.65 19.15 121.20 19.65L112.45 22.35ZM133.60 49.10Q131.75 49.10 130.97 48.57Q130.20 48.05 130.02 47.17Q129.85 46.30 129.85 45.35L129.85 27.75Q129.85 26.80 130.05 25.97Q130.25 25.15 131.02 24.65Q131.80 24.15 133.65 24.15Q135.25 24.15 136.00 24.57Q136.75 25.00 136.97 25.60Q137.20 26.20 137.20 26.72Q137.20 27.25 137.30 27.45L137.00 28.40Q137.10 27.65 137.77 26.87Q138.45 26.10 139.47 25.47Q140.50 24.85 141.67 24.50Q142.85 24.15 144.00 24.15Q146.40 24.15 148.27 25.02Q150.15 25.90 151.45 27.55Q152.75 29.20 153.42 31.42Q154.10 33.65 154.10 36.30L154.10 45.40Q154.10 46.35 153.92 47.22Q153.75 48.10 152.97 48.60Q152.20 49.10 150.35 49.10Q148.45 49.10 147.67 48.57Q146.90 48.05 146.70 47.17Q146.50 46.30 146.50 45.35L146.50 36.30Q146.50 34.80 146.00 33.75Q145.50 32.70 144.50 32.13Q143.50 31.55 142.05 31.55Q140.60 31.55 139.55 32.15Q138.50 32.75 137.92 33.80Q137.35 34.85 137.35 36.30L137.35 45.40Q137.35 46.35 137.17 47.22Q137.00 48.10 136.22 48.60Q135.45 49.10 133.60 49.10ZM182.45 49.60Q178.95 49.60 176.43 48.45Q173.90 47.30 172.30 45.42Q170.70 43.55 169.93 41.25Q169.15 38.95 169.15 36.65Q169.15 32.90 170.85 30.00Q172.55 27.10 175.55 25.42Q178.55 23.75 182.45 23.75Q185.35 23.75 187.47 24.67Q189.60 25.60 190.97 27.07Q192.35 28.55 193.03 30.25Q193.70 31.95 193.70 33.50Q193.70 36.25 192.38 37.57Q191.05 38.90 189 38.90L177.10 38.90Q177.20 40.20 178.03 41.10Q178.85 42.00 180.10 42.50Q181.35 43.00 182.75 43.00Q183.95 43.00 184.85 42.87Q185.75 42.75 186.40 42.52Q187.05 42.30 187.60 42.07Q188.15 41.85 188.57 41.70Q189 41.55 189.40 41.50Q190.15 41.45 190.78 41.92Q191.40 42.40 191.90 43.35Q192.25 43.90 192.38 44.40Q192.50 44.90 192.50 45.40Q192.50 46.60 191.28 47.55Q190.05 48.50 187.82 49.05Q185.60 49.60 182.45 49.60M177.10 34.80L185 34.80Q185.80 34.80 186.18 34.52Q186.55 34.25 186.55 33.45Q186.55 32.55 186 31.87Q185.45 31.20 184.53 30.82Q183.60 30.45 182.40 30.45Q180.85 30.45 179.65 31.05Q178.45 31.65 177.78 32.65Q177.10 33.65 177.10 34.80ZM205.90 49.55Q204.55 49.55 202.97 49.25Q201.40 48.95 199.90 48.37Q198.40 47.80 197.40 47.02Q196.40 46.25 196.25 45.25Q196.15 44.75 196.28 44.17Q196.40 43.60 196.75 42.97Q197.10 42.35 197.60 41.65Q198 41.10 198.50 40.95Q199 40.80 199.65 41.00Q200.45 41.15 201.28 41.52Q202.10 41.90 202.92 42.32Q203.75 42.75 204.65 43.07Q205.55 43.40 206.50 43.40Q207.90 43.40 208.67 42.97Q209.45 42.55 209.45 41.80Q209.45 41.25 209.13 40.90Q208.80 40.55 208.22 40.27Q207.65 40.00 206.90 39.80Q206.15 39.60 205.28 39.37Q204.40 39.15 203.50 38.90Q202.25 38.55 201.10 38.00Q199.95 37.45 199 36.57Q198.05 35.70 197.50 34.42Q196.95 33.15 196.95 31.30Q196.95 28.85 198.10 27.20Q199.25 25.55 201.45 24.67Q203.65 23.80 206.80 23.80Q207.70 23.80 208.60 23.90Q209.50 24.00 210.38 24.25Q211.25 24.50 212.10 24.85Q212.95 25.20 213.80 25.70Q215.30 26.40 215.35 27.60Q215.40 28.80 214.50 30.05Q213.95 30.90 213.35 31.27Q212.75 31.65 212.10 31.50Q211.30 31.30 210.38 30.85Q209.45 30.40 208.42 30.00Q207.40 29.60 206.40 29.60Q205.55 29.60 204.95 29.82Q204.35 30.05 204.05 30.42Q203.75 30.80 203.75 31.30Q203.75 31.95 204.13 32.32Q204.50 32.70 205.15 32.95Q205.80 33.20 206.65 33.40Q207.50 33.60 208.50 33.80Q209.85 34.05 211.28 34.47Q212.70 34.90 213.88 35.70Q215.05 36.50 215.78 37.85Q216.50 39.20 216.50 41.40Q216.50 45.35 213.75 47.45Q211 49.55 205.90 49.55Z"/></g><g transform="translate(0, 47.586)"><path d="M3.70 49.15Q1.90 49.15 1.10 48.60Q0.30 48.05 0.15 47.20Q0 46.35 0 45.35L0 27.85Q0 26.85 0.18 26.02Q0.35 25.20 1.15 24.67Q1.95 24.15 3.80 24.15Q5.65 24.15 6.50 24.87Q7.35 25.60 7.35 27.25L6.70 27.80Q6.80 27.55 7.30 26.95Q7.80 26.35 8.60 25.70Q9.40 25.05 10.48 24.57Q11.55 24.10 12.80 24.10Q14.45 24.10 15.78 24.57Q17.10 25.05 18.18 25.97Q19.25 26.90 20.05 28.30Q20.75 27.30 21.75 26.35Q22.75 25.40 24.13 24.75Q25.50 24.10 27.20 24.10Q30.10 24.10 32.13 25.57Q34.15 27.05 35.20 29.80Q36.25 32.55 36.25 36.45L36.25 45.40Q36.25 46.35 36.08 47.22Q35.90 48.10 35.10 48.62Q34.30 49.15 32.45 49.15Q30.60 49.15 29.83 48.60Q29.05 48.05 28.88 47.17Q28.70 46.30 28.70 45.35L28.70 36.40Q28.70 34.85 28.35 33.80Q28 32.75 27.28 32.17Q26.55 31.60 25.45 31.60Q24.30 31.60 23.50 32.13Q22.70 32.65 22.30 33.72Q21.90 34.80 21.90 36.45L21.90 45.40Q21.90 46.40 21.65 47.27Q21.40 48.15 20.58 48.67Q19.75 49.20 17.95 49.15Q16.15 49.10 15.40 48.55Q14.65 48.00 14.50 47.12Q14.35 46.25 14.35 45.35L14.35 36.40Q14.35 34.85 14 33.77Q13.65 32.70 12.95 32.15Q12.25 31.60 11.10 31.60Q9.85 31.60 9.05 32.25Q8.25 32.90 7.88 33.97Q7.50 35.05 7.50 36.40L7.50 45.40Q7.50 46.40 7.33 47.25Q7.15 48.10 6.35 48.62Q5.55 49.15 3.70 49.15ZM60.60 49.10Q58.75 49.10 57.88 48.45Q57.00 47.80 57.00 46.85L57.50 46.00Q57.20 46.50 56.35 47.22Q55.50 47.95 54.15 48.52Q52.80 49.10 50.80 49.10Q48.50 49.10 46.43 48.10Q44.35 47.10 42.75 45.32Q41.15 43.55 40.23 41.30Q39.30 39.05 39.30 36.55Q39.30 34.10 40.23 31.87Q41.15 29.65 42.78 27.92Q44.40 26.20 46.45 25.20Q48.50 24.20 50.80 24.20Q52.65 24.20 53.95 24.72Q55.25 25.25 56.13 25.95Q57.00 26.65 57.45 27.30L57.05 26.60Q57.00 25.40 57.88 24.77Q58.75 24.15 60.65 24.15Q62.45 24.15 63.23 24.70Q64 25.25 64.18 26.15Q64.35 27.05 64.35 28.05L64.35 45.30Q64.35 46.25 64.18 47.15Q64 48.05 63.23 48.57Q62.45 49.10 60.60 49.10M51.90 41.65Q53.20 41.65 54.28 40.97Q55.35 40.30 55.98 39.15Q56.60 38.00 56.60 36.60Q56.60 35.15 55.95 34.02Q55.30 32.90 54.20 32.22Q53.10 31.55 51.80 31.55Q50.35 31.55 49.23 32.25Q48.10 32.95 47.43 34.10Q46.75 35.25 46.75 36.70Q46.75 38.05 47.43 39.17Q48.10 40.30 49.28 40.97Q50.45 41.65 51.90 41.65M50.15 22.35Q49.25 22.40 48.68 21.80Q48.10 21.20 47.65 19.85Q47.10 18.10 47.45 17.25Q47.80 16.40 49.30 15.90L58.10 13.20Q58.95 13.15 59.55 13.77Q60.15 14.40 60.55 15.75Q61.10 17.40 60.73 18.27Q60.35 19.15 58.90 19.65L50.15 22.35ZM77.35 49.55Q76.00 49.55 74.43 49.25Q72.85 48.95 71.35 48.37Q69.85 47.80 68.85 47.02Q67.85 46.25 67.70 45.25Q67.60 44.75 67.73 44.17Q67.85 43.60 68.20 42.97Q68.55 42.35 69.05 41.65Q69.45 41.10 69.95 40.95Q70.45 40.80 71.10 41.00Q71.90 41.15 72.73 41.52Q73.55 41.90 74.38 42.32Q75.20 42.75 76.10 43.07Q77.00 43.40 77.95 43.40Q79.35 43.40 80.13 42.97Q80.90 42.55 80.90 41.80Q80.90 41.25 80.58 40.90Q80.25 40.55 79.68 40.27Q79.10 40.00 78.35 39.80Q77.60 39.60 76.73 39.37Q75.85 39.15 74.95 38.90Q73.70 38.55 72.55 38.00Q71.40 37.45 70.45 36.57Q69.50 35.70 68.95 34.42Q68.40 33.15 68.40 31.30Q68.40 28.85 69.55 27.20Q70.70 25.55 72.90 24.67Q75.10 23.80 78.25 23.80Q79.15 23.80 80.05 23.90Q80.95 24.00 81.83 24.25Q82.70 24.50 83.55 24.85Q84.40 25.20 85.25 25.70Q86.75 26.40 86.80 27.60Q86.85 28.80 85.95 30.05Q85.40 30.90 84.80 31.27Q84.20 31.65 83.55 31.50Q82.75 31.30 81.83 30.85Q80.90 30.40 79.88 30.00Q78.85 29.60 77.85 29.60Q77.00 29.60 76.40 29.82Q75.80 30.05 75.50 30.42Q75.20 30.80 75.20 31.30Q75.20 31.95 75.58 32.32Q75.95 32.70 76.60 32.95Q77.25 33.20 78.10 33.40Q78.95 33.60 79.95 33.80Q81.30 34.05 82.73 34.47Q84.15 34.90 85.33 35.70Q86.50 36.50 87.23 37.85Q87.95 39.20 87.95 41.40Q87.95 45.35 85.20 47.45Q82.45 49.55 77.35 49.55ZM116.40 48.70Q113.95 48.70 112.08 47.72Q110.20 46.75 108.98 45.07Q107.75 43.40 107.13 41.20Q106.50 39.00 106.55 36.45Q106.55 34.00 107.20 31.77Q107.85 29.55 109.08 27.82Q110.30 26.10 112.13 25.12Q113.95 24.15 116.40 24.15Q118.60 24.15 120.68 25.15Q122.75 26.15 124.35 27.87Q125.95 29.60 126.88 31.85Q127.80 34.10 127.80 36.60Q127.80 39.10 126.88 41.32Q125.95 43.55 124.35 45.20Q122.75 46.85 120.70 47.77Q118.65 48.70 116.40 48.70M106.75 59.50Q104.95 59.50 104.18 58.97Q103.40 58.45 103.23 57.63Q103.05 56.80 103.05 55.85L103.05 27.90Q103.05 26.90 103.20 26.07Q103.35 25.25 104.13 24.70Q104.90 24.15 106.70 24.15Q108.25 24.15 109.18 24.60Q110.10 25.05 110.50 26.00L110.50 55.80Q110.55 56.75 110.35 57.60Q110.15 58.45 109.38 58.97Q108.60 59.50 106.75 59.50M115.35 41.65Q116.75 41.65 117.85 40.97Q118.95 40.30 119.63 39.15Q120.30 38.00 120.30 36.60Q120.30 35.15 119.65 34.02Q119.00 32.90 117.90 32.25Q116.80 31.60 115.40 31.60Q114.05 31.60 112.93 32.27Q111.80 32.95 111.18 34.07Q110.55 35.20 110.55 36.60Q110.55 38.00 111.20 39.15Q111.85 40.30 112.95 40.97Q114.05 41.65 115.35 41.65ZM134.65 49.15Q132.80 49.15 132.03 48.62Q131.25 48.10 131.08 47.20Q130.90 46.30 130.90 45.35L130.90 27.90Q130.90 26.90 131.10 26.05Q131.30 25.20 132.08 24.67Q132.85 24.15 134.70 24.15Q136.45 24.15 137.23 24.62Q138.00 25.10 138.20 25.72Q138.40 26.35 138.40 26.80L137.80 27.10Q137.90 26.90 138.33 26.37Q138.75 25.85 139.50 25.27Q140.25 24.70 141.33 24.30Q142.40 23.90 143.80 23.90Q144.35 23.90 145.03 23.97Q145.70 24.05 146.43 24.27Q147.15 24.50 147.75 24.87Q148.35 25.25 148.73 25.80Q149.10 26.35 149.10 27.15Q149.10 29.20 148.15 30.62Q147.20 32.05 145.75 32.05Q144.90 32.05 144.55 31.90Q144.20 31.75 143.98 31.60Q143.75 31.45 143.45 31.32Q143.15 31.20 142.35 31.20Q141.60 31.20 140.93 31.40Q140.25 31.60 139.68 32.02Q139.10 32.45 138.78 33.07Q138.45 33.70 138.45 34.45L138.45 45.45Q138.45 46.40 138.28 47.27Q138.10 48.15 137.30 48.65Q136.50 49.15 134.65 49.15ZM162.95 49.55Q160.60 49.55 158.28 48.62Q155.95 47.70 154.05 46.00Q152.15 44.30 151.05 41.92Q149.95 39.55 149.95 36.65Q149.95 33.95 150.95 31.62Q151.95 29.30 153.75 27.50Q155.55 25.70 157.88 24.67Q160.20 23.65 162.85 23.65Q166.45 23.65 169.38 25.37Q172.30 27.10 174.05 30.05Q175.80 33.00 175.80 36.60Q175.80 39.65 174.68 42.02Q173.55 44.40 171.68 46.10Q169.80 47.80 167.53 48.67Q165.25 49.55 162.95 49.55M162.85 42.00Q164.05 42.00 165.30 41.40Q166.55 40.80 167.40 39.60Q168.25 38.40 168.25 36.55Q168.25 34.95 167.55 33.75Q166.85 32.55 165.63 31.87Q164.40 31.20 162.80 31.20Q161.30 31.20 160.13 31.90Q158.95 32.60 158.23 33.82Q157.50 35.05 157.50 36.60Q157.50 38.40 158.33 39.62Q159.15 40.85 160.40 41.42Q161.65 42.00 162.85 42.00ZM192.30 49.10Q189.85 49.10 187.98 48.07Q186.10 47.05 184.88 45.30Q183.65 43.55 183.03 41.30Q182.40 39.05 182.45 36.50Q182.45 34.05 183.10 31.80Q183.75 29.55 184.98 27.85Q186.20 26.15 188.03 25.17Q189.85 24.20 192.30 24.20Q194.50 24.20 196.58 25.20Q198.65 26.20 200.25 27.92Q201.85 29.65 202.78 31.87Q203.70 34.10 203.70 36.55Q203.70 39.10 202.78 41.37Q201.85 43.65 200.25 45.40Q198.65 47.15 196.60 48.12Q194.55 49.10 192.30 49.10M191.25 41.70Q192.65 41.70 193.75 41.02Q194.85 40.35 195.53 39.20Q196.20 38.05 196.20 36.65Q196.20 35.20 195.55 34.07Q194.90 32.95 193.80 32.30Q192.70 31.65 191.30 31.65Q189.95 31.65 188.83 32.30Q187.70 32.95 187.08 34.07Q186.45 35.20 186.45 36.65Q186.45 38.05 187.10 39.20Q187.75 40.35 188.85 41.02Q189.95 41.70 191.25 41.70M182.55 49.15Q180.75 49.15 179.95 48.60Q179.15 48.05 178.98 47.17Q178.80 46.30 178.80 45.35L178.80 16.60Q178.80 15.55 179.00 14.70Q179.20 13.85 179.98 13.32Q180.75 12.80 182.60 12.80Q184.40 12.80 185.15 13.35Q185.90 13.90 186.05 14.77Q186.20 15.65 186.15 16.60L186.15 46.90Q185.90 48.05 185.10 48.60Q184.30 49.15 182.55 49.15ZM227.45 49.10Q225.60 49.10 224.73 48.45Q223.85 47.80 223.85 46.85L224.35 46.00Q224.05 46.50 223.20 47.22Q222.35 47.95 221.00 48.52Q219.65 49.10 217.65 49.10Q215.35 49.10 213.28 48.10Q211.20 47.10 209.60 45.32Q208.00 43.55 207.08 41.30Q206.15 39.05 206.15 36.55Q206.15 34.10 207.08 31.87Q208.00 29.65 209.63 27.92Q211.25 26.20 213.30 25.20Q215.35 24.20 217.65 24.20Q219.50 24.20 220.80 24.72Q222.10 25.25 222.98 25.95Q223.85 26.65 224.30 27.30L223.90 26.60Q223.85 25.40 224.73 24.77Q225.60 24.15 227.50 24.15Q229.30 24.15 230.08 24.70Q230.85 25.25 231.03 26.15Q231.20 27.05 231.20 28.05L231.20 45.30Q231.20 46.25 231.03 47.15Q230.85 48.05 230.08 48.57Q229.30 49.10 227.45 49.10M218.75 41.65Q220.05 41.65 221.13 40.97Q222.20 40.30 222.83 39.15Q223.45 38.00 223.45 36.60Q223.45 35.15 222.80 34.02Q222.15 32.90 221.05 32.22Q219.95 31.55 218.65 31.55Q217.20 31.55 216.08 32.25Q214.95 32.95 214.28 34.10Q213.60 35.25 213.60 36.70Q213.60 38.05 214.28 39.17Q214.95 40.30 216.13 40.97Q217.30 41.65 218.75 41.65ZM248.60 49.10Q246.15 49.10 244.28 48.07Q242.40 47.05 241.18 45.30Q239.95 43.55 239.33 41.30Q238.70 39.05 238.75 36.50Q238.75 34.05 239.40 31.80Q240.05 29.55 241.28 27.85Q242.50 26.15 244.33 25.17Q246.15 24.20 248.60 24.20Q250.80 24.20 252.88 25.20Q254.95 26.20 256.55 27.92Q258.15 29.65 259.08 31.87Q260.00 34.10 260.00 36.55Q260.00 39.10 259.08 41.37Q258.15 43.65 256.55 45.40Q254.95 47.15 252.90 48.12Q250.85 49.10 248.60 49.10M247.55 41.70Q248.95 41.70 250.05 41.02Q251.15 40.35 251.83 39.20Q252.50 38.05 252.50 36.65Q252.50 35.20 251.85 34.07Q251.20 32.95 250.10 32.30Q249.00 31.65 247.60 31.65Q246.25 31.65 245.13 32.30Q244.00 32.95 243.38 34.07Q242.75 35.20 242.75 36.65Q242.75 38.05 243.40 39.20Q244.05 40.35 245.15 41.02Q246.25 41.70 247.55 41.70M238.85 49.15Q237.05 49.15 236.25 48.60Q235.45 48.05 235.28 47.17Q235.10 46.30 235.10 45.35L235.10 16.60Q235.10 15.55 235.30 14.70Q235.50 13.85 236.28 13.32Q237.05 12.80 238.90 12.80Q240.70 12.80 241.45 13.35Q242.20 13.90 242.35 14.77Q242.50 15.65 242.45 16.60L242.45 46.90Q242.20 48.05 241.40 48.60Q240.60 49.15 238.85 49.15ZM272.95 49.15Q270.90 49.15 269.32 48.92Q267.75 48.70 266.63 48.10Q265.50 47.50 264.80 46.45Q264.10 45.40 263.78 43.72Q263.45 42.05 263.45 39.60L263.45 16.50Q263.45 15.50 263.63 14.65Q263.80 13.80 264.60 13.25Q265.40 12.70 267.20 12.70Q269 12.70 269.78 13.25Q270.55 13.80 270.75 14.65Q270.95 15.50 270.95 16.50L270.95 39.25Q270.95 40.05 271.03 40.57Q271.10 41.10 271.32 41.40Q271.55 41.70 271.95 41.80Q272.35 41.90 273 41.90Q273.60 41.90 274.23 42.05Q274.85 42.20 275.30 42.95Q275.75 43.70 275.75 45.45Q275.75 47.25 275.30 48.05Q274.85 48.85 274.23 49.00Q273.60 49.15 272.95 49.15ZM290.80 49.60Q287.30 49.60 284.78 48.45Q282.25 47.30 280.65 45.42Q279.05 43.55 278.28 41.25Q277.50 38.95 277.50 36.65Q277.50 32.90 279.20 30.00Q280.90 27.10 283.90 25.42Q286.90 23.75 290.80 23.75Q293.70 23.75 295.83 24.67Q297.95 25.60 299.33 27.07Q300.70 28.55 301.38 30.25Q302.05 31.95 302.05 33.50Q302.05 36.25 300.73 37.57Q299.40 38.90 297.35 38.90L285.45 38.90Q285.55 40.20 286.38 41.10Q287.20 42.00 288.45 42.50Q289.70 43.00 291.10 43.00Q292.30 43.00 293.20 42.87Q294.10 42.75 294.75 42.52Q295.40 42.30 295.95 42.07Q296.50 41.85 296.93 41.70Q297.35 41.55 297.75 41.50Q298.50 41.45 299.13 41.92Q299.75 42.40 300.25 43.35Q300.60 43.90 300.73 44.40Q300.85 44.90 300.85 45.40Q300.85 46.60 299.63 47.55Q298.40 48.50 296.18 49.05Q293.95 49.60 290.80 49.60M285.45 34.80L293.35 34.80Q294.15 34.80 294.53 34.52Q294.90 34.25 294.90 33.45Q294.90 32.55 294.35 31.87Q293.80 31.20 292.88 30.82Q291.95 30.45 290.75 30.45Q289.20 30.45 288 31.05Q286.80 31.65 286.13 32.65Q285.45 33.65 285.45 34.80Z"/></g><g transform="translate(0, 95.172)"><path d="M11.40 48.70Q9.15 48.70 7.10 47.77Q5.05 46.85 3.45 45.20Q1.85 43.55 0.92 41.32Q0 39.10 0 36.60Q0 34.10 0.92 31.85Q1.85 29.60 3.45 27.87Q5.05 26.15 7.13 25.15Q9.20 24.15 11.40 24.15Q13.85 24.15 15.68 25.12Q17.50 26.10 18.73 27.82Q19.95 29.55 20.60 31.77Q21.25 34.00 21.25 36.45Q21.30 39.00 20.68 41.20Q20.05 43.40 18.83 45.07Q17.60 46.75 15.75 47.72Q13.90 48.70 11.40 48.70M12.45 41.65Q13.75 41.65 14.85 40.97Q15.95 40.30 16.60 39.15Q17.25 38.00 17.25 36.60Q17.25 35.20 16.63 34.07Q16 32.95 14.90 32.27Q13.80 31.60 12.40 31.60Q11.05 31.60 9.93 32.25Q8.80 32.90 8.15 34.05Q7.50 35.20 7.50 36.60Q7.50 38.00 8.18 39.15Q8.85 40.30 9.98 40.97Q11.10 41.65 12.45 41.65M21.05 59.50Q19.25 59.50 18.45 58.97Q17.65 58.45 17.45 57.60Q17.25 56.75 17.30 55.80L17.30 26.00Q17.55 25.35 18.05 24.95Q18.55 24.55 19.33 24.35Q20.10 24.15 21.10 24.15Q22.90 24.15 23.68 24.70Q24.45 25.25 24.60 26.07Q24.75 26.90 24.75 27.90L24.75 55.85Q24.75 56.80 24.58 57.63Q24.40 58.45 23.63 58.97Q22.85 59.50 21.05 59.50ZM39.40 49.10Q37.10 49.10 35.08 48.20Q33.05 47.30 31.55 45.67Q30.05 44.05 29.23 41.82Q28.40 39.60 28.40 36.95L28.40 27.90Q28.40 26.90 28.60 26.05Q28.80 25.20 29.58 24.65Q30.35 24.10 32.20 24.10Q34.05 24.10 34.83 24.65Q35.60 25.20 35.78 26.07Q35.95 26.95 35.95 27.95L35.95 36.95Q35.95 38.40 36.48 39.47Q37 40.55 38.03 41.10Q39.05 41.65 40.45 41.65Q41.90 41.65 42.92 41.07Q43.95 40.50 44.53 39.45Q45.10 38.40 45.10 36.95L45.10 27.85Q45.10 26.85 45.30 26.00Q45.50 25.15 46.28 24.62Q47.05 24.10 48.90 24.10Q50.75 24.10 51.53 24.65Q52.30 25.20 52.48 26.07Q52.65 26.95 52.65 27.90L52.65 45.50Q52.65 46.45 52.48 47.27Q52.30 48.10 51.50 48.60Q50.70 49.10 48.90 49.10Q47.55 49.10 46.80 48.80Q46.05 48.50 45.70 48.05Q45.35 47.60 45.28 47.10Q45.20 46.60 45.20 46.20L45.85 45.65Q45.70 45.85 45.20 46.40Q44.70 46.95 43.88 47.57Q43.05 48.20 41.95 48.65Q40.85 49.10 39.40 49.10ZM69.05 49.60Q65.55 49.60 63.03 48.45Q60.50 47.30 58.90 45.42Q57.30 43.55 56.52 41.25Q55.75 38.95 55.75 36.65Q55.75 32.90 57.45 30.00Q59.15 27.10 62.15 25.42Q65.15 23.75 69.05 23.75Q71.95 23.75 74.08 24.67Q76.20 25.60 77.58 27.07Q78.95 28.55 79.63 30.25Q80.30 31.95 80.30 33.50Q80.30 36.25 78.97 37.57Q77.65 38.90 75.60 38.90L63.70 38.90Q63.80 40.20 64.63 41.10Q65.45 42.00 66.70 42.50Q67.95 43.00 69.35 43.00Q70.55 43.00 71.45 42.87Q72.35 42.75 73 42.52Q73.65 42.30 74.20 42.07Q74.75 41.85 75.18 41.70Q75.60 41.55 76 41.50Q76.75 41.45 77.38 41.92Q78 42.40 78.50 43.35Q78.85 43.90 78.97 44.40Q79.10 44.90 79.10 45.40Q79.10 46.60 77.88 47.55Q76.65 48.50 74.43 49.05Q72.20 49.60 69.05 49.60M63.70 34.80L71.60 34.80Q72.40 34.80 72.78 34.52Q73.15 34.25 73.15 33.45Q73.15 32.55 72.60 31.87Q72.05 31.20 71.13 30.82Q70.20 30.45 69 30.45Q67.45 30.45 66.25 31.05Q65.05 31.65 64.38 32.65Q63.70 33.65 63.70 34.80ZM86.90 49.20Q84.60 49.20 83.70 48.30Q82.80 47.40 82.80 45.20Q82.80 43.65 83.20 42.75Q83.60 41.85 84.50 41.45Q85.40 41.05 86.90 41.05Q89.20 41.05 90.08 41.95Q90.95 42.85 90.95 45.15Q90.95 46.65 90.58 47.55Q90.20 48.45 89.30 48.82Q88.40 49.20 86.90 49.20ZM97.75 49.20Q95.45 49.20 94.55 48.30Q93.65 47.40 93.65 45.20Q93.65 43.65 94.05 42.75Q94.45 41.85 95.35 41.45Q96.25 41.05 97.75 41.05Q100.05 41.05 100.93 41.95Q101.80 42.85 101.80 45.15Q101.80 46.65 101.43 47.55Q101.05 48.45 100.15 48.82Q99.25 49.20 97.75 49.20ZM108.60 49.20Q106.30 49.20 105.40 48.30Q104.50 47.40 104.50 45.20Q104.50 43.65 104.90 42.75Q105.30 41.85 106.20 41.45Q107.10 41.05 108.60 41.05Q110.90 41.05 111.78 41.95Q112.65 42.85 112.65 45.15Q112.65 46.65 112.28 47.55Q111.90 48.45 111 48.82Q110.10 49.20 108.60 49.20ZM126 37.80Q124.30 37.80 123.58 37.32Q122.85 36.85 122.67 36.10Q122.50 35.35 122.50 34.50L122.50 32.70Q122.50 31.30 123.05 30.47Q123.60 29.65 124.45 29.12Q125.30 28.60 126.25 28.20Q127.20 27.80 128.05 27.32Q128.90 26.85 129.45 26.10Q130 25.35 130 24.05Q130 22.15 128.95 21.22Q127.90 20.30 125.75 20.30Q124.75 20.30 124 20.60Q123.25 20.90 122.80 21.35Q122.35 21.80 122.10 22.35Q121.70 23.55 121.17 24.25Q120.65 24.95 119.85 25.07Q119.05 25.20 117.75 24.70Q116.35 24.15 115.70 23.62Q115.05 23.10 115 22.35Q114.95 21.60 115.30 20.40Q115.40 20.00 115.80 19.17Q116.20 18.35 116.92 17.37Q117.65 16.40 118.85 15.47Q120.05 14.55 121.75 13.95Q123.45 13.35 125.75 13.35Q129 13.35 131.50 14.75Q134 16.15 135.43 18.50Q136.85 20.85 136.85 23.90Q136.85 25.95 136.25 27.50Q135.65 29.05 134.70 30.12Q133.75 31.20 132.68 31.87Q131.60 32.55 130.70 32.92Q129.80 33.30 129.25 33.45L129.60 32.85L129.60 34.80Q129.60 35.60 129.40 36.30Q129.20 37.00 128.45 37.40Q127.70 37.80 126 37.80M125.90 49.20Q123.45 49.20 122.65 48.25Q121.85 47.30 121.85 45.10Q121.85 44.15 122.03 43.20Q122.20 42.25 123.05 41.65Q123.90 41.05 125.95 41.05Q128.50 41.05 129.28 41.97Q130.05 42.90 130.05 45.15Q130.05 46.10 129.88 47.02Q129.70 47.95 128.82 48.57Q127.95 49.20 125.90 49.20Z"/></g></g></svg>