<?xml version="1.0" standalone="no"?>
<!DOCTYPE svg PUBLIC "-//W3C//DTD SVG 20010904//EN"
 "http://www.w3.org/TR/2001/REC-SVG-20010904/DTD/svg10.dtd">
<svg version="1.0" xmlns="http://www.w3.org/2000/svg"
 width="359.180000pt" height="223.620000pt" viewBox="124.42 58.16 359.18 223.62"
 preserveAspectRatio="xMidYMid meet">
<g transform="translate(0.000000,327.000000) scale(0.100000,-0.100000)"
fill="#000000" stroke="none">
<path d="M1841 2602 c-99 -50 -105 -177 -12 -239 26 -18 48 -23 90 -23 31 0
67 -1 81 -2 22 -3 25 1 23 26 -1 16 4 41 12 57 63 120 -71 245 -194 181z m161
-41 c33 -37 38 -102 12 -139 -10 -15 -14 -32 -10 -48 6 -23 5 -25 -16 -18 -13
4 -46 7 -75 5 -47 -2 -56 1 -90 33 -34 31 -38 39 -38 84 0 40 5 56 25 77 34
37 57 45 114 41 41 -3 55 -9 78 -35z"/>
<path d="M1868 2559 c-24 -13 -23 -50 1 -56 16 -4 17 -10 10 -51 -10 -50 -2
-66 27 -60 14 2 19 12 19 34 1 17 10 39 23 52 12 12 22 30 22 40 0 41 -61 66
-102 41z m70 -11 c19 -19 14 -44 -12 -72 -13 -15 -26 -26 -30 -26 -13 0 -5 25
16 47 16 18 19 26 10 35 -9 9 -16 7 -31 -6 -23 -21 -38 -4 -15 18 18 19 45 21
62 4z m-28 -133 c0 -8 -4 -15 -10 -15 -5 0 -10 7 -10 15 0 8 5 15 10 15 6 0
10 -7 10 -15z"/>
<path d="M3035 2512 c-23 -14 -92 -89 -110 -120 -1 -1 -46 -4 -99 -7 -53 -3
-106 -9 -116 -15 -14 -8 -32 -8 -60 0 -28 7 -52 8 -77 1 -29 -8 -48 -6 -97 10
-83 28 -168 14 -228 -38 -14 -13 -22 -12 -63 1 -114 39 -221 -48 -213 -173 2
-48 -1 -61 -24 -92 -31 -40 -58 -99 -58 -127 0 -10 -28 -53 -61 -94 -58 -72
-63 -76 -90 -68 -31 9 -108 -8 -133 -29 -10 -8 -21 -7 -42 4 -37 19 -117 19
-154 0 -16 -8 -41 -31 -56 -51 -27 -35 -28 -41 -36 -222 -10 -215 -5 -278 25
-323 56 -82 196 -93 260 -21 l19 20 36 -24 c34 -24 43 -25 138 -21 66 3 113
10 136 21 28 14 41 15 57 7 24 -13 91 -14 123 -2 15 5 44 5 74 -1 l51 -10 -15
-42 c-24 -67 -22 -217 6 -303 40 -129 144 -223 246 -223 24 0 62 -11 90 -25
80 -41 161 -28 206 33 20 28 25 29 57 20 44 -12 121 -2 168 22 31 16 39 16 77
3 34 -12 61 -12 157 -3 64 6 125 10 136 9 32 -3 85 -2 170 4 136 10 134 11
179 -37 40 -43 90 -66 144 -66 36 0 94 28 129 62 46 44 57 85 49 179 l-7 78
54 59 c30 33 61 70 67 83 12 22 13 21 27 -17 9 -21 15 -50 15 -64 -2 -65 47
-110 105 -95 16 4 53 8 84 10 32 2 74 12 98 24 47 24 96 86 106 134 4 18 14
40 22 49 9 10 13 25 9 34 -7 19 19 54 41 54 21 0 63 46 63 70 0 35 -53 80 -93
80 -55 0 -90 -57 -49 -79 14 -7 25 -6 40 5 18 12 22 12 22 2 0 -11 -71 -53
-75 -45 -74 127 -256 147 -348 37 l-26 -31 -7 28 c-3 15 -10 43 -16 61 -5 18
-8 35 -6 38 3 2 19 -1 37 -7 19 -7 53 -9 83 -5 28 4 119 11 202 16 163 9 196
17 239 58 49 47 59 151 20 211 -19 29 -22 126 -5 158 16 30 15 106 -2 147 -15
36 -66 80 -105 89 -13 3 -72 2 -130 -3 -81 -7 -112 -14 -133 -30 -24 -17 -32
-19 -50 -9 -44 24 -89 28 -140 12 -27 -8 -53 -12 -56 -8 -3 3 -7 36 -8 73 -7
202 -9 216 -32 255 -32 51 -101 90 -160 90 -112 1 -291 -12 -308 -21 -14 -8
-21 -3 -38 32 -24 47 -84 86 -133 86 -18 0 -51 -7 -73 -16 -45 -18 -110 -12
-110 11 0 20 -48 73 -81 90 -39 21 -108 19 -144 -3z m162 -56 c18 -20 33 -46
33 -59 0 -22 5 -25 56 -30 39 -4 63 -2 78 7 88 55 196 -1 196 -102 l0 -46 31
30 c29 28 34 29 147 33 222 9 238 8 269 -15 15 -11 39 -42 52 -68 20 -40 23
-54 15 -84 -7 -26 -5 -49 4 -77 12 -36 11 -76 -3 -130 -5 -16 1 -22 31 -32 31
-9 42 -8 61 4 34 23 116 13 149 -18 24 -22 26 -23 35 -6 19 33 68 48 173 54
119 7 154 -6 182 -65 19 -41 14 -114 -10 -141 -12 -13 -14 -25 -7 -48 5 -16 7
-41 4 -55 -3 -15 4 -39 16 -59 24 -38 28 -117 9 -152 -29 -54 -66 -67 -216
-72 -68 -3 -128 -7 -132 -10 -15 -9 -168 -7 -186 3 -15 8 -40 4 -72 -13 -1 -1
6 -22 17 -46 30 -69 35 -129 16 -195 -13 -46 -29 -71 -81 -124 -59 -61 -65
-72 -66 -111 -1 -24 2 -61 7 -82 11 -54 -16 -120 -63 -152 -40 -27 -116 -34
-155 -14 -31 16 -77 61 -77 74 0 17 -97 27 -122 14 -11 -6 -39 -8 -62 -5 -22
4 -56 2 -73 -3 -20 -6 -45 -6 -65 0 -20 5 -56 5 -94 -1 -110 -18 -198 -16
-228 3 -26 18 -28 17 -81 -9 -47 -22 -64 -26 -117 -22 -35 3 -71 8 -80 13 -12
5 -18 3 -18 -7 0 -20 -50 -66 -87 -78 -36 -13 -103 1 -123 25 -8 9 -30 15 -59
15 -55 0 -135 35 -173 76 -15 16 -39 56 -55 89 -26 56 -28 69 -28 185 0 123 8
157 52 230 2 3 -22 3 -52 2 -30 -2 -68 0 -83 5 -19 7 -35 5 -52 -4 -34 -17
-79 -16 -115 3 -27 14 -32 14 -65 -4 -23 -13 -64 -22 -125 -26 -103 -7 -128 1
-160 51 -11 18 -22 32 -25 33 -3 0 -12 -17 -21 -38 -37 -89 -177 -95 -229 -10
-18 30 -20 50 -20 228 0 107 5 211 10 231 24 87 128 126 202 76 32 -22 38 -24
49 -11 34 41 111 54 170 30 12 -5 18 0 23 17 3 14 31 51 61 83 41 44 55 66 55
89 1 40 31 104 64 135 26 23 27 29 21 81 -8 70 11 121 57 149 43 26 107 26
141 0 l26 -20 25 25 c57 57 163 72 237 35 30 -16 44 -18 58 -10 25 13 97 13
121 0 12 -7 27 -5 48 5 16 8 54 15 83 16 30 0 75 1 102 1 27 1 47 6 47 12 0
17 90 116 114 127 42 18 99 3 133 -35z m1483 -1226 c11 -11 20 -26 20 -33 0
-20 -30 -57 -46 -57 -8 0 -23 -9 -35 -21 -13 -13 -25 -17 -30 -12 -16 16 0 39
36 56 37 18 46 43 19 54 -9 3 -25 1 -35 -5 -10 -7 -21 -12 -24 -12 -7 0 -6 36
2 43 14 15 74 6 93 -13z m-212 -11 c29 -15 54 -37 73 -67 26 -41 27 -47 14
-62 -19 -21 -19 -44 0 -60 20 -16 19 -25 -6 -78 -30 -60 -95 -102 -161 -102
-27 0 -48 5 -48 11 0 23 22 49 41 49 24 0 37 29 18 41 -8 5 -37 6 -66 3 -51
-6 -52 -6 -55 22 -2 21 -9 30 -25 32 -17 3 -22 -3 -25 -24 -5 -42 -23 -39 -36
4 -15 48 -15 66 -2 114 32 114 166 171 278 117z m130 -156 c-5 -26 -38 -29
-38 -4 0 15 6 21 21 21 14 0 19 -5 17 -17z m-334 -79 c4 -9 4 -26 0 -36 -6
-19 -2 -19 61 -13 50 6 66 5 61 -4 -4 -6 -18 -11 -32 -11 -13 0 -24 -6 -25
-12 -4 -68 -17 -82 -64 -73 -51 9 -71 58 -40 99 8 11 15 30 15 43 0 27 15 31
24 7z"/>
<path d="M3048 2388 c-30 -33 -38 -49 -35 -70 3 -21 -1 -28 -13 -28 -23 0 -40
-20 -41 -49 -1 -24 -2 -23 -10 6 -14 50 -82 60 -104 16 -11 -22 -12 -22 -28
-3 -24 29 -73 26 -93 -5 -14 -21 -15 -41 -9 -129 7 -112 1 -166 -19 -166 -18
0 -26 55 -26 173 0 117 -8 137 -55 137 -43 0 -65 -22 -65 -68 l-1 -37 -21 42
c-27 57 -71 83 -138 83 -50 0 -56 -3 -95 -44 -52 -54 -70 -116 -63 -221 5 -69
4 -73 -14 -62 -24 16 -72 -10 -76 -41 -2 -12 -10 -22 -18 -22 -24 0 -15 31 20
71 40 43 59 100 46 134 -6 15 -5 34 2 52 17 44 -7 87 -51 91 -43 4 -71 -21
-71 -64 0 -18 4 -36 10 -39 17 -11 -3 -69 -37 -108 -42 -47 -53 -75 -53 -134
0 -39 5 -50 39 -84 34 -34 44 -39 85 -39 75 0 136 45 136 100 0 27 8 25 32 -5
28 -36 74 -57 118 -54 29 2 45 -2 63 -19 28 -26 45 -28 75 -6 26 18 29 60 6
85 -13 15 -14 23 -3 59 l13 42 13 -44 c15 -52 49 -87 95 -97 74 -16 136 20
163 95 l14 39 1 -52 c0 -42 4 -55 22 -67 31 -22 55 -20 82 7 23 23 24 23 36 4
11 -18 20 -19 107 -14 53 4 102 12 109 18 10 8 17 7 29 -5 23 -22 61 -20 86 5
19 19 21 29 15 77 -8 64 -3 62 39 -16 26 -50 34 -57 63 -60 22 -2 41 3 53 14
17 16 19 33 19 201 0 179 -5 216 -34 235 -21 14 -56 8 -77 -13 -19 -19 -21
-30 -16 -80 3 -33 4 -59 2 -59 -2 0 -15 24 -28 54 -14 30 -36 62 -50 71 -29
18 -72 12 -86 -14 -9 -15 -10 -15 -16 2 -5 12 -18 17 -45 17 l-38 0 29 29 c34
35 36 54 9 81 -31 31 -58 24 -102 -22z m90 -4 c5 -35 -85 -93 -102 -66 -3 5 9
28 26 51 34 46 70 54 76 15z m320 -86 c5 -7 12 -93 14 -191 5 -191 1 -212 -42
-205 -20 2 -34 23 -75 105 -27 56 -52 102 -55 102 -3 1 -3 -44 -2 -99 4 -101
-4 -130 -34 -130 -7 0 -20 7 -28 16 -13 13 -16 45 -16 195 l0 179 25 12 c35
16 48 2 105 -111 l49 -96 0 112 c1 110 4 120 37 122 6 1 16 -5 22 -11z m-290
-17 c8 -5 12 -21 10 -37 -3 -28 -5 -29 -60 -32 l-58 -3 0 -42 0 -43 35 4 c36
4 65 -11 65 -34 0 -23 -31 -44 -66 -44 -33 0 -34 -1 -34 -40 0 -44 0 -44 72
-40 52 2 72 -18 58 -56 -7 -19 -19 -22 -96 -29 -78 -6 -89 -5 -101 11 -18 25
-19 359 0 371 6 4 44 11 82 14 39 3 72 6 75 7 3 1 11 -2 18 -7z m-689 -42 c59
-58 76 -179 41 -279 -19 -54 -19 -55 0 -82 35 -48 -4 -86 -47 -46 -19 17 -36
23 -73 23 -97 0 -145 68 -144 205 0 137 51 210 145 210 40 0 52 -5 78 -31z
m452 -44 c4 -38 7 -123 8 -187 1 -102 -1 -118 -16 -126 -20 -10 -44 -5 -55 12
-10 14 -10 360 -1 370 4 4 19 6 33 4 23 -3 25 -7 31 -73z m-297 49 c13 -12 16
-39 16 -129 0 -63 4 -125 10 -140 13 -33 37 -42 58 -21 14 13 18 44 22 159 l5
142 30 0 c28 0 30 -3 37 -50 10 -79 9 -197 -3 -239 -17 -61 -58 -96 -112 -96
-93 0 -127 68 -127 251 0 84 3 111 16 123 8 9 19 16 24 16 5 0 16 -7 24 -16z
m-466 -48 c5 -45 -47 -65 -68 -26 -16 31 4 62 38 58 21 -2 28 -9 30 -32z
m1032 -103 l0 -108 -60 -1 c-52 -1 -60 1 -60 17 0 15 7 19 32 19 42 0 68 25
68 66 0 41 -34 68 -74 58 -19 -4 -26 -2 -26 9 0 18 21 27 65 27 19 0 37 5 40
10 13 21 15 7 15 -97z m-1042 25 c20 -20 13 -63 -17 -106 -16 -22 -34 -43 -40
-47 -6 -3 -11 -21 -11 -40 0 -25 5 -35 21 -40 23 -8 35 1 53 37 16 32 60 32
64 0 12 -85 -102 -146 -171 -92 -31 25 -51 80 -42 119 3 16 24 50 46 74 21 25
39 50 39 57 0 20 20 50 33 50 7 0 18 -5 25 -12z"/>
<path d="M2353 2173 c-26 -40 -30 -157 -6 -203 22 -42 61 -58 42 -16 -6 13 -9
32 -6 40 8 21 44 20 56 -1 8 -14 11 -11 16 21 10 50 0 133 -20 162 -21 33 -60
31 -82 -3z m68 -30 c6 -16 13 -49 16 -74 5 -46 5 -47 -21 -42 -18 4 -34 -1
-48 -13 l-21 -19 6 60 c6 74 22 115 42 115 9 0 20 -12 26 -27z"/>
<path d="M3695 2223 c-27 -3 -55 -9 -62 -15 -10 -8 -13 -51 -13 -158 0 -183 2
-186 112 -175 40 4 78 11 84 16 7 5 24 3 43 -7 41 -20 94 -11 126 21 46 45 41
135 -8 170 -12 8 -19 16 -16 17 2 2 13 8 24 14 32 18 31 60 -4 94 -24 24 -38
30 -73 30 -24 0 -54 -7 -66 -16 -20 -14 -24 -14 -38 0 -8 9 -25 15 -37 14 -12
-1 -44 -3 -72 -5z m268 -31 c20 -17 23 -58 5 -65 -7 -2 -23 5 -35 16 -24 21
-53 17 -53 -7 0 -8 20 -29 45 -46 53 -36 65 -56 65 -104 0 -50 -28 -76 -82
-76 -49 0 -88 30 -88 67 0 33 26 40 54 14 12 -11 30 -21 40 -21 32 0 13 42
-34 75 -58 41 -74 91 -43 132 32 44 86 50 126 15z m-168 -12 c0 -22 -5 -26
-45 -30 -40 -4 -45 -8 -48 -32 -3 -24 0 -27 35 -30 33 -3 38 -6 38 -28 0 -21
-6 -26 -35 -30 -30 -4 -35 -9 -37 -32 -2 -27 0 -28 47 -28 49 0 50 -1 50 -30
0 -30 -1 -30 -57 -31 -73 -2 -86 0 -95 14 -10 16 -10 249 0 264 8 12 57 21
112 19 30 -1 35 -4 35 -26z m14 -96 c7 -19 19 -38 27 -41 21 -8 17 -23 -7 -23
-11 0 -23 -8 -25 -17 -4 -13 -15 -18 -39 -18 -18 0 -37 3 -41 8 -4 4 4 7 19 7
32 0 57 24 57 55 0 30 -28 58 -51 52 -11 -3 -22 -1 -25 4 -3 5 12 9 33 9 36 0
40 -3 52 -36z"/>
<path d="M4435 1840 c-45 -18 -48 -32 -42 -183 l7 -142 -49 -2 -48 -2 -7 76
c-3 42 -6 107 -6 144 0 79 -13 99 -65 99 -41 0 -71 -36 -62 -73 6 -22 6 -22
-8 -2 -48 66 -92 83 -184 70 -79 -11 -84 -22 -79 -175 2 -71 1 -124 -3 -117
-3 6 -21 62 -39 122 -41 141 -50 155 -98 155 -60 0 -70 -14 -97 -134 -14 -60
-25 -117 -25 -127 0 -28 -13 -23 -28 11 -10 21 -10 34 -3 49 28 51 4 131 -47
163 -30 18 -50 23 -104 22 -93 -2 -118 -19 -118 -82 l0 -47 -23 39 c-32 57
-65 78 -122 78 -59 0 -92 -22 -121 -80 l-22 -42 -20 34 c-31 53 -72 69 -158
64 -78 -5 -104 -18 -104 -52 0 -19 -2 -19 -26 7 -34 36 -63 47 -130 47 -64 0
-120 -20 -128 -47 -3 -10 1 -108 8 -217 11 -173 15 -201 31 -212 28 -20 72
-17 96 7 17 17 20 31 17 76 l-3 55 38 13 c43 15 76 41 88 70 5 14 8 4 9 -35 2
-88 15 -161 31 -171 8 -5 29 -9 46 -9 44 0 67 34 57 84 -9 50 1 45 31 -14 28
-55 59 -71 100 -52 39 18 40 52 5 121 -27 55 -29 64 -17 82 13 18 15 16 20
-26 14 -99 69 -165 144 -172 61 -6 109 24 140 87 l22 45 1 -41 c0 -43 17 -66
57 -78 31 -10 144 11 173 32 24 17 26 17 43 0 20 -21 79 -24 96 -5 6 8 14 31
19 53 6 29 13 40 29 42 17 3 23 -5 34 -40 18 -54 55 -71 100 -46 16 10 31 13
34 7 4 -5 38 -9 76 -9 81 0 140 24 163 68 l15 27 1 -27 c0 -45 33 -59 120 -52
41 3 85 12 97 20 16 10 24 11 29 2 5 -7 38 -9 108 -5 89 6 103 9 119 29 13 15
17 31 13 52 -10 49 -24 59 -83 54 -40 -4 -53 -1 -53 9 0 7 0 16 0 21 -1 4 16
9 37 12 27 4 41 12 53 33 13 24 13 30 0 55 -13 22 -24 28 -58 30 -61 5 -55 28
9 35 62 8 79 20 79 59 0 61 -12 68 -108 67 -48 0 -96 -4 -107 -9z m169 -6 c10
-4 16 -18 16 -39 0 -33 0 -33 -60 -40 l-60 -7 0 -38 0 -39 48 -3 c45 -3 47 -4
47 -33 0 -28 -3 -30 -45 -35 l-45 -5 0 -40 0 -40 65 -5 65 -5 0 -35 0 -35 -94
-9 c-124 -12 -121 -16 -121 173 0 80 -3 155 -6 166 -10 40 18 60 98 66 40 3
74 6 75 7 1 1 8 -1 17 -4z m-340 -47 c3 -12 6 -70 6 -128 0 -59 3 -121 6 -139
7 -32 8 -32 50 -26 58 7 74 0 74 -35 0 -39 -24 -49 -114 -49 l-75 0 -10 38
c-6 20 -11 108 -11 194 0 135 2 158 16 166 24 14 51 3 58 -21z m-179 9 c18 -8
38 -23 44 -34 17 -31 13 -103 -5 -124 -16 -16 -15 -19 6 -36 35 -28 40 -117 9
-156 -29 -37 -76 -56 -137 -56 -80 0 -80 -1 -84 210 l-3 184 25 13 c33 17 103
16 145 -1z m-243 -186 c32 -96 58 -183 58 -193 0 -9 -11 -22 -25 -29 -32 -14
-51 1 -67 53 -10 34 -15 39 -42 39 -42 0 -52 -9 -60 -51 -4 -21 -13 -42 -21
-49 -22 -18 -65 -4 -65 20 0 24 77 368 86 382 3 5 22 8 42 6 l37 -3 57 -175z
m-330 160 c21 -6 44 -21 53 -33 20 -28 19 -106 -1 -135 -8 -12 -10 -22 -5 -22
17 0 41 -56 41 -95 0 -81 -58 -125 -165 -125 -42 0 -56 4 -63 18 -12 22 -25
353 -15 369 21 30 91 40 155 23z m-262 -29 c51 -37 65 -77 65 -191 0 -119 -13
-157 -68 -191 -38 -24 -98 -20 -129 8 -82 74 -91 290 -14 362 45 42 97 46 146
12z m-560 -16 c39 -20 60 -63 60 -122 0 -78 -41 -127 -122 -147 -27 -6 -28 -8
-28 -76 0 -67 -1 -70 -26 -76 -46 -12 -52 7 -63 186 -15 230 -15 229 12 240
36 14 135 11 167 -5z m292 -14 c27 -24 32 -36 36 -88 4 -52 1 -63 -21 -89
l-25 -29 34 -67 c34 -67 36 -91 7 -102 -31 -12 -51 5 -84 74 -45 92 -59 91
-59 -5 0 -72 -1 -75 -26 -81 -47 -12 -52 5 -60 208 l-7 188 24 9 c13 5 52 10
86 10 55 1 66 -2 95 -28z m1188 -87 c0 -31 -2 -35 -14 -24 -12 9 -13 17 -4 36
15 32 18 30 18 -12z"/>
<path d="M3990 1694 c0 -45 0 -45 33 -42 27 2 33 8 35 31 4 35 -13 57 -44 57
-22 0 -24 -4 -24 -46z m46 1 c8 -21 -6 -41 -17 -24 -12 19 -11 39 1 39 6 0 13
-7 16 -15z"/>
<path d="M4000 1520 c0 -48 1 -50 28 -50 35 0 52 16 52 50 0 34 -17 50 -52 50
-27 0 -28 -2 -28 -50z m56 5 c6 -16 -12 -45 -27 -45 -5 0 -9 14 -9 30 0 32 26
43 36 15z"/>
<path d="M3734 1615 l-9 -65 28 0 c22 0 27 4 23 18 -3 9 -10 36 -15 60 -5 24
-11 45 -13 47 -2 3 -8 -25 -14 -60z"/>
<path d="M3443 1703 c-18 -7 -17 -82 1 -89 21 -8 53 12 62 38 5 16 1 27 -16
40 -23 19 -27 20 -47 11z m37 -54 c0 -10 -4 -19 -9 -19 -10 0 -21 36 -14 44
10 10 23 -5 23 -25z"/>
<path d="M3440 1490 c0 -48 1 -50 28 -50 35 0 52 16 52 52 0 29 -23 48 -59 48
-18 0 -21 -6 -21 -50z m58 -4 c4 -17 -12 -35 -30 -36 -5 0 -8 14 -8 31 0 24 4
30 17 27 10 -2 19 -12 21 -22z"/>
<path d="M3161 1672 c-48 -38 -35 -227 16 -247 10 -3 25 2 37 15 30 29 35 160
9 209 -22 43 -34 47 -62 23z m54 -96 c7 -57 -5 -128 -22 -133 -6 -2 -17 5 -23
17 -17 31 -17 150 -1 179 13 23 14 24 27 7 7 -10 16 -41 19 -70z"/>
<path d="M2585 1659 c-10 -15 5 -129 17 -129 14 0 52 21 60 34 14 21 8 66 -12
86 -22 22 -55 26 -65 9z m53 -31 c22 -22 8 -78 -20 -78 -4 0 -8 20 -8 45 0 46
7 54 28 33z"/>
<path d="M2862 1613 c3 -55 4 -58 28 -55 35 5 50 20 50 49 0 41 -18 63 -51 63
l-30 0 3 -57z m55 11 c7 -18 -7 -46 -25 -52 -8 -2 -12 9 -12 32 0 38 25 51 37
20z"/>
<path d="M1909 1798 c-45 -49 -55 -73 -40 -92 8 -9 8 -22 1 -42 -6 -16 -21
-85 -34 -152 -14 -68 -26 -125 -28 -128 -2 -2 -10 56 -17 129 -14 151 -25 177
-74 177 -48 0 -63 -17 -88 -99 l-22 -74 -29 64 c-16 35 -36 71 -45 81 -19 22
-62 23 -89 4 -18 -13 -19 -30 -22 -221 -3 -184 -1 -209 14 -226 23 -25 69 -24
95 2 18 18 21 30 17 75 l-5 53 23 -24 c13 -14 31 -25 41 -25 26 0 63 28 64 48
1 9 5 -10 10 -43 5 -37 15 -65 26 -72 20 -16 57 -17 83 -3 11 6 28 6 42 1 42
-15 77 6 89 55 6 24 15 44 19 44 5 0 15 2 23 6 10 3 16 -5 21 -27 3 -18 14
-41 23 -51 22 -24 75 -23 98 2 17 18 19 18 49 3 42 -22 114 -21 152 1 89 53
90 206 2 254 -55 31 -91 57 -96 70 -6 19 22 14 41 -8 24 -29 72 -26 93 5 22
33 4 87 -39 117 -43 31 -124 32 -164 2 -42 -31 -65 -81 -60 -133 6 -56 31 -89
98 -126 30 -17 55 -38 57 -48 5 -24 -25 -22 -38 3 -18 33 -47 43 -80 27 l-29
-15 -41 129 c-23 72 -49 138 -59 148 -17 17 -17 19 10 49 31 35 30 63 -4 87
-33 23 -46 19 -88 -27z m85 -1 c9 -16 5 -24 -29 -53 -43 -37 -63 -42 -71 -20
-7 19 55 98 74 94 8 -2 20 -11 26 -21z m286 -102 c36 -19 54 -49 46 -81 -8
-30 -45 -32 -69 -3 -23 27 -61 22 -65 -9 -5 -30 9 -45 74 -81 66 -38 88 -76
81 -140 -7 -63 -49 -101 -113 -101 -55 0 -96 20 -112 55 -18 38 -15 63 9 76
19 10 26 7 51 -20 31 -34 59 -39 78 -16 20 25 1 54 -64 95 -68 43 -86 70 -86
129 0 86 91 137 170 96z m-296 -34 c15 -30 116 -343 116 -359 0 -17 -38 -34
-61 -27 -13 4 -24 22 -32 52 l-12 45 -40 -7 c-41 -6 -55 -18 -55 -48 0 -32
-20 -57 -44 -57 -49 0 -49 16 -7 212 22 102 43 192 47 201 13 34 69 27 88 -12z
m-239 0 c8 -13 45 -306 45 -358 0 -38 -3 -43 -26 -49 -43 -11 -54 11 -61 124
-3 56 -8 100 -11 97 -3 -2 -14 -33 -26 -67 -19 -58 -24 -63 -52 -66 -29 -3
-32 1 -62 65 l-32 68 0 -100 c1 -55 1 -108 1 -117 -1 -22 -35 -32 -61 -18 -19
10 -20 19 -19 138 1 70 4 161 8 202 l6 75 30 0 c28 0 33 -6 75 -92 25 -51 47
-92 50 -93 3 0 15 34 28 75 37 123 38 125 71 125 16 0 32 -4 36 -9z"/>
<path d="M1937 1545 c-21 -102 -21 -105 7 -105 30 0 32 11 12 85 -12 48 -13
49 -19 20z"/>
<path d="M3816 1320 c-34 -10 -91 -63 -112 -102 -20 -38 -18 -101 4 -120 47
-42 119 -26 138 32 14 43 36 59 58 41 31 -26 19 -61 -38 -115 -30 -28 -61 -65
-70 -83 -21 -43 -21 -121 1 -145 15 -17 15 -20 -5 -38 -29 -28 -37 -64 -21
-101 15 -36 66 -63 104 -53 59 15 84 97 45 147 -17 21 -18 26 -5 37 8 7 17 28
21 49 5 26 24 54 69 101 81 84 101 149 74 231 -33 97 -153 152 -263 119z m168
-33 c49 -28 76 -77 76 -140 0 -62 -28 -116 -84 -161 -44 -36 -62 -68 -68 -116
-4 -30 -49 -50 -75 -34 -29 18 -36 39 -28 89 6 42 16 58 71 115 55 57 64 72
64 103 0 41 -21 67 -54 67 -27 0 -50 -23 -63 -65 -8 -25 -16 -31 -45 -33 -69
-6 -85 47 -37 125 44 71 163 96 243 50z m-84 -514 c35 -45 11 -103 -43 -103
-61 0 -90 67 -47 110 28 28 64 25 90 -7z"/>
<path d="M3167 1250 c-107 -10 -116 -20 -119 -124 -2 -70 -2 -73 -5 -21 -4 78
-10 100 -29 119 -23 23 -61 19 -90 -9 l-24 -25 6 -148 c8 -166 3 -202 -25
-202 -27 0 -41 73 -41 220 0 107 -2 122 -20 140 -27 27 -71 26 -98 -3 -18 -19
-22 -36 -22 -88 l-1 -64 -18 53 c-10 29 -28 64 -41 77 -67 71 -182 74 -253 7
-123 -116 -105 -410 30 -488 33 -20 54 -25 96 -23 44 2 58 -2 78 -20 30 -28
62 -36 89 -21 43 23 46 95 4 118 -16 9 -16 13 0 57 9 27 16 58 17 69 0 12 9
-8 19 -44 21 -75 57 -113 120 -130 67 -18 151 16 182 73 6 12 17 58 24 102
l12 80 1 -93 c2 -148 14 -158 164 -142 80 8 106 15 118 30 17 19 17 19 30 -1
19 -28 77 -29 99 -1 17 21 18 21 35 2 24 -27 61 -25 88 4 22 24 23 24 35 5 28
-45 112 -8 112 49 0 67 -68 96 -117 50 -13 -12 -23 -17 -23 -11 0 6 -13 16
-30 23 -25 10 -34 10 -55 -4 -14 -9 -25 -22 -25 -28 0 -6 -10 -2 -23 10 -29
28 -57 28 -91 1 -14 -11 -26 -16 -26 -10 0 25 -44 39 -97 32 l-53 -7 0 33 c0
32 1 33 44 33 48 0 63 12 72 58 5 25 1 36 -20 57 -23 23 -32 26 -66 20 -38 -6
-40 -5 -40 18 0 22 4 25 62 30 49 4 67 11 81 28 36 45 -3 121 -62 118 -14 -1
-61 -5 -104 -9z m142 -24 c7 -8 11 -27 9 -43 -3 -27 -6 -28 -75 -37 l-73 -9 0
-49 0 -49 45 7 c51 7 75 -5 75 -40 0 -29 -18 -46 -49 -46 -68 0 -83 -21 -65
-88 6 -21 11 -23 76 -21 74 2 88 -5 88 -47 0 -35 -22 -44 -132 -50 -97 -6
-107 -5 -116 12 -5 10 -13 111 -17 224 -9 239 -11 231 89 241 107 10 133 10
145 -5z m-298 -33 c6 -16 12 -98 12 -183 2 -140 0 -160 -20 -202 -25 -54 -62
-78 -123 -78 -88 0 -131 51 -151 181 -6 40 -9 117 -7 172 4 104 10 117 56 117
34 0 42 -35 42 -178 0 -101 4 -134 18 -162 20 -41 50 -49 77 -20 17 18 18 37
17 187 -2 176 1 193 44 193 17 0 28 -8 35 -27z m-420 -6 c71 -48 111 -177 89
-289 -6 -33 -19 -76 -28 -94 -15 -33 -15 -35 12 -63 21 -22 27 -36 22 -54 -9
-37 -42 -40 -80 -7 -27 24 -38 28 -73 23 -129 -17 -212 99 -201 282 7 109 41
174 113 213 35 20 109 14 146 -11z m980 -337 c28 -16 26 -68 -3 -79 -47 -18
-87 38 -53 73 19 19 29 20 56 6z m141 -15 c10 -22 9 -29 -10 -47 -18 -19 -25
-20 -47 -10 -44 20 -28 82 22 82 15 0 27 -9 35 -25z m-259 -6 c19 -27 10 -58
-19 -65 -43 -11 -73 29 -48 64 19 28 49 28 67 1z"/>
<path d="M2468 1103 c-41 -47 -55 -124 -38 -206 11 -57 46 -107 74 -107 14 0
14 4 -1 34 -28 59 8 97 52 56 l24 -22 7 37 c10 55 -2 150 -23 187 -23 40 -70
50 -95 21z m65 -31 c16 -18 37 -101 37 -149 0 -20 -3 -22 -18 -14 -29 16 -63
1 -77 -33 l-13 -31 -7 28 c-12 47 -1 161 18 190 20 32 38 34 60 9z"/>
<path d="M4267 1183 c-15 -14 -5 -18 43 -19 50 0 65 8 34 20 -21 8 -69 8 -77
-1z"/>
<path d="M4290 1120 c-9 -16 -9 -25 0 -35 17 -21 42 -6 38 23 -4 33 -24 39
-38 12z"/>
<path d="M4420 1131 c0 -8 80 -22 89 -15 1 1 0 7 -4 13 -8 13 -85 15 -85 2z"/>
<path d="M4427 1104 c-4 -4 -7 -18 -7 -31 0 -18 5 -24 18 -21 10 2 17 12 17
27 0 24 -15 37 -28 25z"/>
<path d="M4310 1012 c0 -4 19 -13 43 -20 23 -7 48 -15 55 -18 29 -13 9 15 -22
30 -36 17 -76 21 -76 8z"/>
<path d="M4365 2393 c-11 -3 -27 -11 -36 -19 -8 -7 -32 -13 -52 -12 -40 1 -77
-23 -77 -52 0 -10 -11 -25 -24 -34 -38 -24 -42 -52 -12 -95 14 -20 26 -42 26
-49 0 -15 44 -44 62 -40 7 1 27 -12 45 -30 33 -33 68 -41 104 -22 14 8 25 6
43 -6 33 -21 81 -10 102 22 9 13 25 24 35 24 33 0 59 36 59 80 0 28 -6 45 -20
57 -11 10 -20 26 -20 36 0 53 -68 109 -113 91 -10 -4 -25 3 -39 19 -25 28 -52
37 -83 30z m77 -54 c17 -22 25 -26 39 -18 43 22 99 -18 99 -72 0 -15 7 -29 15
-33 24 -9 37 -53 22 -76 -6 -11 -18 -20 -25 -20 -7 0 -10 -4 -7 -10 4 -6 -6
-10 -22 -9 -25 0 -26 1 -8 9 19 8 19 9 -3 9 -19 1 -22 -3 -17 -19 4 -11 2 -20
-4 -20 -6 0 -11 -7 -11 -16 0 -14 -3 -14 -15 -4 -9 7 -18 10 -22 6 -3 -3 0 -6
7 -6 11 0 11 -3 2 -12 -9 -9 -18 -7 -41 10 -28 20 -31 21 -62 5 -29 -14 -36
-14 -58 -2 -14 8 -30 23 -35 34 -10 22 -76 70 -76 55 0 -5 10 -16 22 -24 12
-9 18 -16 12 -16 -25 0 -47 27 -42 54 4 20 0 29 -16 37 -20 10 -20 10 -2 -5
11 -9 15 -16 9 -16 -30 0 -45 75 -16 84 10 3 24 19 30 36 13 34 49 52 76 38
14 -7 24 -5 40 10 42 38 77 35 109 -9z"/>
<path d="M4343 2324 c-15 -15 -21 -21 -12 -15 9 6 20 7 24 3 5 -4 4 -1 0 7 -6
11 -4 13 9 8 10 -4 15 -3 11 3 -12 20 13 9 39 -16 14 -15 26 -22 26 -16 0 15
-40 52 -56 52 -7 0 -26 -12 -41 -26z"/>
<path d="M4261 2317 c2 -1 12 -9 22 -16 14 -12 17 -11 17 3 0 10 -8 16 -22 16
-12 0 -19 -1 -17 -3z"/>
<path d="M4470 2290 c-11 -8 -8 -9 12 -4 21 5 33 0 53 -21 18 -20 25 -24 25
-12 0 18 -37 47 -60 47 -8 0 -22 -5 -30 -10z"/>
<path d="M1528 2185 c-100 -106 -97 -98 -57 -206 19 -51 41 -101 49 -111 19
-24 183 -51 215 -36 36 18 135 140 135 168 0 14 -16 66 -36 117 -39 101 -42
104 -149 118 -27 3 -60 9 -72 12 -18 4 -35 -8 -85 -62z m222 17 c16 -6 11 -15
-44 -76 l-62 -69 -87 13 c-48 7 -87 15 -87 18 0 2 26 33 58 68 l57 64 73 -5
c40 -3 81 -9 92 -13z m90 -160 c12 -38 12 -47 -1 -67 -26 -43 -101 -117 -109
-108 -5 4 -22 46 -39 92 l-31 84 62 69 62 70 21 -48 c11 -27 27 -68 35 -92z
m-280 7 c36 -5 70 -15 77 -22 10 -11 73 -163 73 -178 0 -6 -142 16 -167 25
-10 4 -73 154 -73 176 0 12 9 12 90 -1z"/>
<path d="M1593 2145 c-3 -9 -3 -19 1 -22 9 -10 58 16 51 27 -10 16 -45 12 -52
-5z"/>
<path d="M1764 2115 c-8 -20 3 -48 16 -40 13 8 13 55 0 55 -6 0 -13 -7 -16
-15z"/>
<path d="M1706 2053 c-12 -12 -6 -43 9 -43 8 0 15 9 15 19 0 21 -13 34 -24 24z"/>
<path d="M1793 2014 c-8 -21 13 -42 28 -27 13 13 5 43 -11 43 -6 0 -13 -7 -17
-16z"/>
<path d="M1733 1944 c-8 -21 13 -42 28 -27 13 13 5 43 -11 43 -6 0 -13 -7 -17
-16z"/>
<path d="M1502 2014 c2 -11 11 -20 22 -22 13 -3 17 1 14 14 -2 11 -11 20 -22
22 -13 3 -17 -1 -14 -14z"/>
<path d="M1564 1969 c-10 -17 23 -46 38 -31 8 8 8 15 -2 27 -15 18 -26 19 -36
4z"/>
<path d="M1625 1911 c-3 -5 2 -17 11 -26 22 -21 44 -4 24 20 -14 17 -26 19
-35 6z"/>
<path d="M4206 2054 c-21 -20 -20 -37 2 -57 33 -30 72 -15 72 28 0 42 -44 59
-74 29z m51 -20 c3 -8 1 -20 -6 -27 -14 -14 -47 15 -37 32 10 16 36 13 43 -5z"/>
<path d="M4142 2001 c-8 -4 -12 -19 -10 -32 2 -18 9 -24 28 -24 28 0 39 27 20
50 -14 17 -20 18 -38 6z m28 -32 c0 -5 -7 -9 -15 -9 -15 0 -20 12 -9 23 8 8
24 -1 24 -14z"/>
<path d="M1881 1084 c-34 -28 -40 -51 -16 -60 9 -4 20 -15 26 -27 9 -16 8 -22
-5 -29 -18 -10 -21 -34 -6 -43 17 -11 101 7 107 22 3 8 -4 23 -16 34 -30 28
-26 36 21 37 42 2 62 17 50 37 -4 5 -7 16 -7 24 0 27 -33 37 -64 19 -25 -14
-30 -14 -35 -2 -8 20 -20 17 -55 -12z m133 -6 c1 -7 5 -19 9 -25 5 -8 3 -13
-6 -13 -16 0 -26 27 -19 48 5 15 13 10 16 -10z m-78 -48 c4 -41 11 -60 20 -60
8 0 14 -7 14 -15 0 -11 -11 -15 -40 -15 -22 0 -40 5 -40 10 0 6 6 10 13 10 9
0 11 12 9 40 -4 35 -7 40 -23 35 -23 -8 -24 -2 -3 30 27 42 42 31 50 -35z m39
40 c-3 -5 -1 -10 4 -10 6 0 11 -7 11 -15 0 -8 -7 -15 -16 -15 -8 0 -13 4 -9 9
3 5 1 12 -5 16 -12 7 -4 25 11 25 6 0 7 -4 4 -10z"/>
<path d="M1918 908 c-66 -10 -68 -11 -68 -39 0 -25 -5 -29 -37 -35 -116 -20
-108 -15 -106 -70 2 -27 5 -64 8 -81 7 -41 9 -41 215 -9 85 13 180 27 211 31
31 4 61 10 67 13 11 8 -3 110 -17 125 -5 5 -36 3 -71 -3 -34 -6 -65 -9 -68 -6
-3 3 -8 23 -11 43 -7 44 -17 47 -123 31z m106 -50 c3 -24 8 -66 12 -94 l6 -51
-73 -11 c-40 -6 -74 -10 -76 -9 -6 6 -26 177 -21 182 7 7 84 22 119 24 24 1
27 -3 33 -41z m160 -50 c3 -13 6 -35 6 -49 0 -24 -4 -26 -65 -35 l-65 -10 0
25 c0 14 -3 36 -6 47 -5 19 0 22 53 31 32 6 61 11 64 12 4 0 9 -9 13 -21z
m-331 5 c3 -5 8 -33 11 -65 8 -63 10 -61 -76 -73 l-47 -6 -6 38 c-4 21 -9 50
-11 64 -5 25 -2 27 53 37 32 5 61 10 65 11 4 0 9 -2 11 -6z"/>
</g>
</svg>
