<?xml version="1.0" standalone="no"?>
<!DOCTYPE svg PUBLIC "-//W3C//DTD SVG 20010904//EN"
 "http://www.w3.org/TR/2001/REC-SVG-20010904/DTD/svg10.dtd">
<svg version="1.0" xmlns="http://www.w3.org/2000/svg"
 width="807.144000pt" height="243.044000pt" viewBox="0 0 807.144000 243.044000"
 preserveAspectRatio="xMidYMid meet">

<g transform="translate(14.622000,270.322000) scale(0.100000,-0.100000)"
fill="#000000" stroke="none">
<path d="M1830 2523 c-54 -38 -138 -78 -215 -104 -69 -23 -80 -23 -625 -29
l-555 -6 -82 -27 c-185 -62 -304 -210 -331 -413 -13 -94 -8 -101 42 -58 110
95 225 124 489 124 l187 0 0 -122 c-1 -68 -5 -280 -10 -472 -9 -373 -5 -435
34 -548 48 -137 129 -242 246 -317 102 -66 215 -101 379 -116 l73 -7 -88 88
c-98 98 -146 180 -180 309 -21 78 -22 147 -9 813 l7 372 112 0 c199 0 318 41
421 145 90 89 151 239 143 350 l-3 43 -35 -25z"/>
<path d="M3614 2414 c-301 -159 -486 -382 -564 -681 -73 -280 -36 -625 89
-815 184 -282 551 -396 908 -283 199 63 383 233 452 418 130 350 -99 745 -496
859 -108 31 -302 31 -417 -1 -44 -11 -84 -21 -89 -21 -16 0 -1 149 23 220 27
83 89 210 135 279 19 29 34 55 32 58 -2 2 -35 -13 -73 -33z m310 -860 c162
-57 255 -251 189 -396 -29 -64 -105 -143 -167 -173 -150 -72 -354 -25 -446
103 -139 192 -25 439 221 481 62 10 147 4 203 -15z"/>
<path d="M2060 1974 c-186 -27 -283 -60 -386 -133 -133 -93 -229 -216 -276
-351 -33 -94 -33 -275 0 -375 78 -234 294 -418 553 -471 120 -24 319 -15 414
18 93 33 159 67 224 116 l53 40 64 -54 c82 -69 163 -110 267 -133 109 -25 210
-35 182 -18 -11 6 -52 44 -90 82 -131 132 -180 273 -194 565 -10 186 -17 222
-75 340 -43 90 -185 232 -281 282 -133 69 -333 109 -455 92z m182 -380 c131
-42 221 -159 222 -289 1 -114 -77 -229 -193 -284 -49 -23 -69 -26 -156 -26
-89 0 -106 3 -157 28 -72 35 -147 116 -172 186 -61 172 74 375 267 400 65 9
129 4 189 -15z"/>
<path d="M5203 1875 c-208 -54 -395 -201 -481 -378 -84 -173 -82 -380 5 -557
54 -110 187 -241 303 -298 234 -115 518 -117 740 -7 192 96 319 250 370 451
37 142 20 278 -51 424 -69 141 -215 270 -379 337 -147 59 -345 70 -507 28z
m372 -367 c201 -105 241 -345 81 -496 -71 -67 -140 -92 -256 -92 -73 0 -100 5
-143 24 -73 32 -127 83 -163 153 -38 76 -41 184 -7 249 45 85 112 143 206 176
78 28 214 21 282 -14z"/>
<path d="M6860 1846 c-80 -18 -127 -35 -200 -71 -401 -201 -512 -661 -239
-993 190 -231 538 -324 850 -226 151 47 264 123 358 241 95 120 141 247 141
393 0 152 -44 273 -141 396 -101 128 -262 224 -431 258 -90 19 -258 19 -338 2z
m302 -371 c65 -23 141 -93 174 -162 74 -151 -1 -332 -170 -410 -53 -24 -73
-28 -156 -28 -87 1 -100 3 -156 32 -227 118 -236 411 -16 540 91 53 219 64
324 28z"/>
</g>
</svg>
