<?xml version="1.0" encoding="UTF-8"?>
<svg xmlns="http://www.w3.org/2000/svg" xmlns:xlink="http://www.w3.org/1999/xlink" width="701.43pt" height="162.14pt" viewBox="0 0 701.43 162.14" version="1.1">
<defs>
<clipPath id="clip1">
  <path d="M 695 44 L 701.429688 44 L 701.429688 52 L 695 52 Z M 695 44 "/>
</clipPath>
<clipPath id="clip2">
  <path d="M 332 19 L 436 19 L 436 162.140625 L 332 162.140625 Z M 332 19 "/>
</clipPath>
</defs>
<g id="surface1">
<g clip-path="url(#clip1)" clip-rule="nonzero">
<path style=" stroke:none;fill-rule:nonzero;fill:rgb(0%,0%,0%);fill-opacity:1;" d="M 697.714844 47.828125 L 698.324219 47.828125 C 698.714844 47.828125 699 47.769531 699 47.339844 C 699 46.964844 698.609375 46.90625 698.296875 46.90625 L 697.714844 46.90625 Z M 697.035156 46.355469 L 698.339844 46.355469 C 699.203125 46.355469 699.691406 46.632813 699.691406 47.402344 C 699.691406 48.046875 699.292969 48.300781 698.78125 48.34375 L 699.707031 49.878906 L 698.992188 49.878906 L 698.144531 48.375 L 697.714844 48.375 L 697.714844 49.878906 L 697.035156 49.878906 Z M 698.261719 50.601563 C 699.539063 50.601563 700.589844 49.558594 700.589844 48.121094 C 700.589844 46.695313 699.539063 45.660156 698.261719 45.660156 C 696.96875 45.660156 695.933594 46.695313 695.933594 48.121094 C 695.933594 49.558594 696.96875 50.601563 698.261719 50.601563 Z M 698.261719 44.988281 C 699.9375 44.988281 701.433594 46.214844 701.433594 48.121094 C 701.433594 50.039063 699.9375 51.277344 698.261719 51.277344 C 696.585938 51.277344 695.089844 50.039063 695.089844 48.121094 C 695.089844 46.214844 696.585938 44.988281 698.261719 44.988281 "/>
</g>
<path style=" stroke:none;fill-rule:nonzero;fill:rgb(0%,0%,0%);fill-opacity:1;" d="M 647.34375 70.347656 C 651.546875 72.320313 656.472656 69.171875 658.347656 63.324219 C 660.222656 57.457031 658.335938 51.101563 654.125 49.121094 C 649.921875 47.148438 644.984375 50.296875 643.113281 56.152344 C 641.246094 62.019531 643.136719 68.363281 647.34375 70.347656 "/>
<path style=" stroke:none;fill-rule:nonzero;fill:rgb(0%,0%,0%);fill-opacity:1;" d="M 678.496094 76.101563 L 690.75 76.09375 L 691.769531 72.816406 L 679.453125 72.816406 C 682.96875 60.84375 686.601563 49.429688 689.152344 41.242188 C 683.507813 41.476563 681.757813 41.699219 676.871094 41.699219 C 674.246094 50.398438 670.902344 61.539063 667.722656 72.828125 L 661.75 72.828125 L 660.722656 76.113281 L 666.804688 76.109375 C 663.519531 87.917969 660.523438 99.65625 658.847656 108.628906 C 649.4375 130.089844 644.019531 131.144531 644.1875 121.257813 C 644.382813 109.960938 654.828125 76.679688 654.828125 76.679688 L 640.433594 76.808594 C 640.433594 76.808594 630.03125 111.632813 629.191406 114.40625 C 627.804688 119.058594 626.261719 121.136719 623.84375 124.167969 C 619.625 129.464844 617.3125 127.652344 617.71875 121.277344 C 618.382813 110.636719 622.515625 94.839844 628.195313 76.703125 L 613.964844 76.824219 C 610.710938 87.636719 608.496094 96.042969 607.054688 102.65625 C 604.71875 113.234375 604.320313 114.882813 601.882813 119.113281 C 595.574219 130.101563 591.910156 129.183594 592.402344 121.292969 C 593.0625 110.660156 597.1875 94.863281 602.867188 76.714844 C 597.984375 76.902344 595.058594 76.832031 589.402344 76.84375 C 582.480469 100.113281 576.964844 112.246094 572.804688 118.777344 C 573.011719 117.695313 573.164063 116.59375 573.191406 115.40625 C 573.640625 97.058594 555.628906 93.828125 556.128906 85.335938 C 556.488281 79.226563 561.394531 79.308594 561.964844 79.308594 C 567.339844 79.308594 567.25 85.839844 569.59375 88.605469 C 573.0625 92.726563 580.453125 86.992188 576.164063 80.53125 C 574.074219 77.367188 569.347656 75.632813 564.894531 75.632813 C 559.339844 75.640625 552.484375 77.289063 548.75 83.015625 C 548.34375 83.503906 547.921875 84.097656 547.441406 84.835938 C 545.101563 89.433594 541.644531 88.390625 540.527344 84.738281 C 543.011719 81.601563 547.039063 78.28125 547.183594 72.351563 C 547.316406 67.222656 540.226563 67.363281 537.230469 74.828125 C 535.894531 78.148438 535.839844 81.953125 536.648438 84.804688 C 534.1875 88.558594 531.679688 94.097656 529.726563 98.4375 C 530.214844 95.226563 530.445313 93.0625 530.496094 90.949219 C 530.761719 81.730469 527.660156 76.890625 520.964844 76.890625 C 516.847656 76.898438 513.453125 80.191406 510.535156 85.113281 C 504.8125 94.765625 499.398438 111.695313 493.496094 122.570313 C 490.542969 128.003906 487.816406 129.136719 488.304688 121.355469 C 488.96875 110.71875 493.273438 94.605469 498.949219 76.457031 C 493.316406 76.679688 489.445313 76.902344 484.550781 76.902344 C 481.1875 88.0625 478.949219 96.652344 477.492188 103.367188 C 475.390625 113.089844 473.6875 117.472656 471.144531 121.445313 C 465.667969 130.007813 462.558594 128.679688 463.015625 121.371094 C 463.695313 110.730469 467.996094 94.617188 473.667969 76.46875 C 468.023438 76.691406 464.164063 76.914063 459.261719 76.917969 C 454.394531 93.105469 451.375 105.558594 450.203125 113.015625 C 447.796875 128.46875 450.921875 133.824219 459.386719 133.824219 C 463.871094 133.824219 469.535156 130.007813 475.152344 119.480469 C 475.152344 119.578125 475.136719 119.667969 475.136719 119.757813 C 474.867188 128.972656 477.980469 133.8125 484.664063 133.8125 C 489.121094 133.800781 492.804688 129.890625 495.898438 124.257813 C 502.171875 112.882813 507.082031 96.097656 512.890625 87.023438 C 516.328125 81.648438 517.726563 83.175781 517.335938 89.351563 C 516.671875 99.972656 512.367188 116.105469 506.691406 134.246094 C 512.324219 134.023438 516.199219 133.800781 521.09375 133.800781 C 525.027344 120.015625 528.90625 102.980469 538.320313 87.484375 C 540.15625 90.371094 543.398438 92.089844 546.230469 90.105469 C 546.113281 90.972656 546.03125 91.878906 545.996094 92.839844 C 545.589844 109.628906 562.863281 110.578125 562.550781 123.464844 C 562.476563 126.976563 558.988281 131.207031 554.34375 131.214844 C 547.78125 131.214844 548.769531 124.449219 547.621094 120.234375 C 546.078125 114.496094 538.121094 115.847656 537.691406 122.898438 C 537.460938 126.882813 540.785156 134.046875 553.035156 134.042969 C 556.902344 134.035156 560.910156 132.945313 564.347656 130.828125 C 570.394531 127.503906 577.058594 119.152344 581.480469 107.605469 C 580.492188 112.84375 580.0625 116.734375 579.988281 119.691406 C 579.722656 128.910156 582.085938 133.746094 588.761719 133.742188 C 593.261719 133.742188 598.945313 129.910156 604.570313 119.335938 C 604.570313 119.441406 604.554688 119.5625 604.554688 119.683594 C 604.277344 128.890625 607.394531 133.730469 614.082031 133.730469 C 618.902344 133.730469 626.058594 129.855469 631.191406 116.910156 C 631.105469 117.894531 631.050781 118.824219 631.03125 119.664063 C 630.753906 128.878906 633.867188 133.71875 640.558594 133.710938 C 645.378906 133.707031 651.582031 129.308594 657.605469 116.851563 C 657.515625 117.867188 657.441406 118.800781 657.417969 119.648438 C 657.148438 128.859375 660.253906 133.703125 666.945313 133.695313 C 672.769531 133.695313 680.585938 127.320313 687.695313 108.070313 C 688.417969 106.042969 686.914063 104.71875 685.9375 106.996094 C 675.972656 129.917969 667.824219 131.34375 668.46875 121.242188 C 669.136719 110.683594 673.585938 93.101563 678.496094 76.101563 "/>
<path style=" stroke:none;fill-rule:nonzero;fill:rgb(0%,0%,0%);fill-opacity:1;" d="M 223.421875 84.300781 C 223.238281 91.519531 225.417969 92.890625 225.25 99.726563 C 224.796875 118.058594 204 135.375 204.886719 121.183594 C 205.5625 110.566406 209.539063 94.074219 215.210938 75.914063 C 209.578125 76.144531 206.027344 76.738281 201.140625 76.738281 C 197.210938 94.921875 190.410156 111.566406 189.582031 114.335938 C 188.183594 118.988281 186.644531 121.074219 184.226563 124.105469 C 180.007813 129.402344 177.707031 127.574219 178.097656 121.207031 C 178.734375 111.058594 182.6875 95.910156 187.988281 78.757813 C 188.242188 77.949219 188.925781 75.679688 189.183594 74.871094 C 183.851563 76.046875 178.410156 76.75 174.347656 76.753906 C 169.90625 91.738281 162.089844 90.785156 159.871094 85.195313 C 163.59375 80.5625 166.125 78.253906 166.277344 72.25 C 166.40625 67.113281 159.691406 67.257813 156.699219 74.722656 C 155.304688 78.195313 155.382813 81.707031 156.382813 84.640625 C 154.390625 87.578125 151.953125 91.082031 149.082031 97.742188 C 149.394531 95.390625 149.539063 92.519531 149.59375 90.84375 C 149.855469 81.628906 146.75 76.796875 140.058594 76.796875 C 134.234375 76.796875 126.386719 82.835938 119.308594 102.414063 C 118.371094 105.035156 120.144531 105.714844 121.074219 103.484375 C 130.695313 80.363281 137.058594 79.132813 136.425781 89.242188 C 135.753906 99.878906 131.449219 116 125.769531 134.140625 C 131.414063 133.917969 135.289063 133.707031 140.171875 133.703125 C 142.449219 126.152344 144.207031 119.792969 145.5625 114.382813 C 149.925781 100.148438 154.3125 92.613281 157.917969 87.703125 C 160.832031 91.925781 166.054688 93.539063 170.800781 89.070313 C 166.5 104.847656 165.078125 113.902344 164.9375 119.613281 C 164.667969 128.820313 167.78125 133.660156 174.46875 133.652344 C 179.414063 133.648438 186.820313 129.601563 191.980469 115.804688 C 191.84375 117.214844 191.753906 118.476563 191.726563 119.59375 C 191.453125 128.796875 194.566406 133.640625 201.25 133.636719 C 219.359375 133.628906 233.992188 95.078125 234.265625 84.308594 C 234.597656 70.839844 223.746094 71.429688 223.421875 84.300781 "/>
<path style=" stroke:none;fill-rule:nonzero;fill:rgb(0%,0%,0%);fill-opacity:1;" d="M 187.917969 49.402344 C 183.714844 47.425781 178.785156 50.578125 176.917969 56.429688 C 175.035156 62.296875 176.917969 68.644531 181.136719 70.628906 C 185.339844 72.601563 190.261719 69.453125 192.140625 63.605469 C 194.011719 57.738281 192.125 51.382813 187.917969 49.402344 "/>
<path style=" stroke:none;fill-rule:nonzero;fill:rgb(0%,0%,0%);fill-opacity:1;" d="M 251.882813 70.589844 C 256.089844 72.554688 261.015625 69.414063 262.882813 63.558594 C 264.769531 57.695313 262.871094 51.34375 258.660156 49.363281 C 254.460938 47.382813 249.539063 50.53125 247.65625 56.394531 C 245.785156 62.253906 247.679688 68.609375 251.882813 70.589844 "/>
<path style=" stroke:none;fill-rule:nonzero;fill:rgb(0%,0%,0%);fill-opacity:1;" d="M 293.335938 91.976563 C 289.652344 105.925781 288.394531 114.195313 288.273438 119.535156 C 288.273438 119.558594 288.273438 119.578125 288.273438 119.597656 C 284.820313 125.390625 280.835938 130.1875 277.386719 130.195313 C 270.390625 130.195313 275.980469 100.199219 285.105469 83.945313 C 290.054688 75.128906 294.050781 80.496094 293.335938 91.976563 Z M 444.074219 14.742188 C 430.917969 4.710938 409.667969 -0.0117188 390.296875 0 C 324.25 0.0351563 307.535156 47.097656 324.886719 72.039063 C 321.296875 85.101563 317.921875 98.429688 315.863281 108.992188 C 306.589844 129.984375 300.8125 130.910156 301.433594 121.125 C 302.097656 110.507813 306.402344 94.378906 312.078125 76.226563 C 306.445313 76.457031 302.574219 76.679688 297.675781 76.679688 C 296.816406 79.542969 296.023438 82.246094 295.304688 84.789063 C 293.347656 73.320313 284.40625 75.308594 277.324219 80.195313 C 268.1875 86.511719 262.050781 100.515625 261.316406 112.609375 C 253.011719 130.089844 247.941406 130.359375 248.523438 121.160156 C 249.160156 110.941406 253.164063 95.648438 258.519531 78.335938 C 258.738281 77.652344 259.390625 75.523438 259.601563 74.824219 C 254.585938 75.785156 249.65625 76.707031 244.765625 76.714844 C 237.648438 100.359375 235.527344 112.515625 235.351563 119.5625 C 235.085938 128.773438 238.199219 133.613281 244.886719 133.613281 C 249.550781 133.605469 255.507813 129.488281 261.351563 117.945313 C 262.101563 126.816406 266.441406 133.601563 275.539063 133.59375 C 280.386719 133.589844 284.773438 129.253906 288.433594 123.757813 C 289.144531 130.210938 292.226563 133.582031 297.796875 133.578125 C 302.554688 133.578125 308.644531 129.308594 314.589844 117.257813 C 314.515625 118.078125 314.457031 118.847656 314.429688 119.515625 C 314.160156 128.726563 317.277344 133.566406 323.96875 133.566406 C 329.789063 133.558594 337.605469 127.199219 344.710938 107.941406 C 345.6875 105.234375 344.050781 104.339844 342.957031 106.867188 C 333.007813 129.820313 324.316406 131.214844 324.949219 121.113281 C 325.507813 112.152344 329.121094 96.730469 333.3125 81.472656 C 338.871094 85.101563 348.8125 86.199219 354.902344 86.050781 C 369.292969 85.710938 385.027344 78.265625 389.964844 59.898438 C 395.238281 40.277344 385.167969 30.851563 377.214844 28.578125 C 369.886719 26.476563 354.226563 28.988281 355.414063 41.734375 C 355.414063 41.734375 355.859375 43.402344 356.847656 41.734375 C 355.972656 32.089844 371.542969 25.324219 381.238281 34.851563 C 386.742188 40.253906 391.308594 52.375 383.546875 66.671875 C 377.363281 78.058594 363.136719 84.136719 351.320313 82.878906 C 346.746094 82.394531 338.207031 80.882813 334.28125 78.125 C 338.515625 63.082031 343.4375 47.277344 346.457031 37.644531 C 340.820313 37.871094 339.605469 38.085938 334.707031 38.085938 C 332.421875 45.664063 329.496094 55.511719 326.6875 65.484375 C 316.1875 42.132813 333.929688 2.019531 389.957031 1.984375 C 408.777344 1.972656 426.800781 7.753906 438.363281 17.84375 C 459.261719 36.085938 448.019531 76.660156 433.984375 87.917969 C 429.09375 92.699219 422.128906 93.699219 417.324219 92.59375 C 404.070313 89.539063 409.835938 69.855469 419.253906 69.84375 C 421.347656 69.539063 421.890625 67.976563 419.269531 67.84375 C 404.246094 68.761719 397.90625 96.601563 423.210938 96.582031 C 455.550781 96.566406 482.003906 43.65625 444.074219 14.742188 "/>
<path style=" stroke:none;fill-rule:nonzero;fill:rgb(0%,0%,0%);fill-opacity:1;" d="M 70.457031 75.339844 C 67.511719 81.214844 61.414063 85.769531 51.359375 86.605469 C 49.015625 86.804688 44.921875 86.835938 40.058594 85.816406 C 34.699219 84.683594 28.816406 80.601563 25.515625 75.902344 C 31.347656 72.492188 37.78125 70.300781 46.429688 69.503906 C 57.300781 68.503906 65.171875 71.019531 70.457031 75.339844 Z M 72.441406 77.160156 C 80.976563 86.027344 80.78125 100.394531 74.304688 109.628906 C 69.992188 115.769531 62.628906 120.144531 53.4375 118.988281 C 46.460938 118.109375 45.175781 114.394531 45.597656 113.222656 C 45.917969 112.339844 45.160156 111.695313 44.503906 112.445313 C 43.742188 113.332031 44.429688 115.570313 45.273438 116.886719 C 46.90625 119.433594 51.980469 120.75 55.292969 120.867188 C 64.332031 121.199219 72.226563 117.53125 77.652344 111.253906 C 87.113281 100.3125 88.382813 82.328125 74.726563 72.867188 C 76.996094 67.160156 76.8125 60.679688 73.554688 54.773438 C 71.046875 50.226563 65.921875 46.90625 62.007813 45.867188 C 55.507813 44.140625 51.511719 45.527344 48.933594 47.019531 C 47.410156 47.914063 46.367188 48.945313 45.886719 49.691406 C 44.582031 51.683594 46.300781 51.289063 47.035156 50.355469 C 47.472656 49.792969 48.199219 48.921875 48.828125 48.574219 C 53.066406 46.246094 57.753906 47.125 60.800781 48.019531 C 66.84375 49.769531 71.175781 55.683594 72.25 61.761719 C 72.808594 64.921875 72.726563 68.152344 71.980469 71.210938 C 65.882813 67.9375 57.46875 66.117188 46.273438 66.695313 C 39.734375 67.035156 30.234375 69.84375 23.992188 73.496094 C 17.570313 62.113281 17.976563 45.324219 28.953125 33.054688 C 40.507813 20.109375 58.070313 16.550781 79.25 21.625 C 91.761719 24.613281 107.265625 29.839844 123.839844 33.570313 C 128.382813 34.605469 133.128906 35.375 137.910156 35.871094 C 98.488281 44.621094 102.761719 93.28125 87.808594 119.386719 C 78.394531 135.816406 63.210938 144.324219 48.992188 144.929688 C 38.53125 145.386719 29.5 143.058594 22.117188 137.652344 C 1.292969 123.59375 0.75 92.796875 23.339844 77.289063 C 27.011719 82.269531 33.832031 86.921875 41.222656 88.0625 C 41.222656 88.0625 47.105469 88.941406 52.011719 88.496094 C 61.261719 87.648438 68.382813 83.175781 72.441406 77.160156 Z M 188.71875 25.03125 C 168.128906 30.695313 123.304688 14.964844 91.027344 9.460938 C 64.203125 4.898438 41.363281 10.558594 28.765625 24.03125 C 10.046875 44.011719 13.871094 64.898438 21.605469 75.210938 C -8.425781 95.707031 -5.511719 128.785156 20.226563 142.726563 C 28.035156 146.96875 36.589844 148.59375 48.121094 148.476563 C 65.066406 148.324219 85.039063 138.703125 97.519531 125.273438 C 119.609375 101.460938 117.226563 58.171875 134.644531 41.875 C 137.398438 39.285156 142.550781 37.046875 147.636719 36.519531 C 165.941406 37.011719 184.3125 32.671875 194.597656 26.6875 C 201.457031 22.679688 205.050781 21.691406 205.050781 18.359375 L 188.71875 25.03125 "/>
<g clip-path="url(#clip2)" clip-rule="nonzero">
<path style=" stroke:none;fill-rule:nonzero;fill:rgb(0%,0%,0%);fill-opacity:1;" d="M 431.472656 20.070313 C 406.730469 25.382813 399.121094 45.644531 394.058594 67.199219 C 394.058594 67.199219 392.859375 72.671875 390.792969 80.871094 C 390.792969 80.871094 380.070313 136.867188 360.800781 152.636719 C 350.367188 161.167969 342.605469 158.644531 339.015625 153.535156 C 335.984375 149.210938 336.203125 143.019531 337.847656 140.097656 C 341.6875 133.308594 350.273438 134.800781 353.195313 135.386719 C 353.75 135.46875 354.273438 135.097656 354.351563 134.519531 C 354.4375 133.929688 354.046875 133.390625 353.488281 133.308594 C 353.488281 133.308594 339.460938 129.453125 334.507813 139.273438 C 329.542969 149.082031 336.855469 165.433594 354.960938 161.558594 C 373.070313 157.679688 393.789063 130.011719 400.785156 101.15625 C 402.695313 94.4375 404.339844 87.753906 405.3125 81.660156 C 405.3125 81.660156 407.867188 71.324219 408.277344 69.761719 C 414.144531 46.914063 417.621094 33.019531 426.335938 26.476563 C 429.265625 24.28125 430.570313 23.398438 432.863281 22.457031 C 436.914063 20.804688 436.679688 18.957031 431.472656 20.070313 "/>
</g>
</g>
</svg>
