<?xml version="1.0" standalone="no"?>
<!DOCTYPE svg PUBLIC "-//W3C//DTD SVG 20010904//EN"
 "http://www.w3.org/TR/2001/REC-SVG-20010904/DTD/svg10.dtd">
<svg version="1.0" xmlns="http://www.w3.org/2000/svg"
 width="447.000000pt" height="447.000000pt" viewBox="0 0 447.000000 447.000000"
 preserveAspectRatio="xMidYMid meet">
<metadata>
Created by potrace 1.16, written by Peter Selinger 2001-2019
</metadata>
<g transform="translate(0.000000,447.000000) scale(0.100000,-0.100000)"
fill="#000000" stroke="none">
<path d="M2191 4126 c-49 -27 -50 -36 -51 -418 l0 -356 25 -30 c30 -36 69 -45
113 -26 61 25 63 42 60 435 l-3 351 -33 29 c-35 32 -72 37 -111 15z"/>
<path d="M1553 3925 c-12 -8 -27 -31 -33 -50 -10 -31 -8 -42 28 -122 99 -217
164 -343 189 -363 60 -47 153 -3 153 73 0 45 -188 438 -221 461 -29 20 -88 21
-116 1z"/>
<path d="M2787 3929 c-17 -10 -182 -337 -212 -420 -17 -48 -9 -84 27 -114 39
-33 90 -33 123 -1 13 13 49 77 81 143 154 323 153 319 108 372 -21 26 -33 31
-67 31 -23 0 -50 -5 -60 -11z"/>
<path d="M1665 3220 c-27 -4 -72 -17 -98 -29 -47 -20 -51 -20 -105 -5 -79 23
-184 15 -256 -20 -108 -53 -143 -101 -256 -352 l-28 -62 -54 19 c-141 49 -316
-5 -393 -121 -47 -70 -453 -958 -466 -1018 -29 -138 42 -295 168 -369 30 -17
42 -30 38 -41 -52 -136 -21 -293 77 -389 48 -46 79 -63 418 -218 129 -59 303
-139 385 -177 195 -91 231 -101 325 -96 80 5 134 26 203 80 46 37 69 76 158
269 168 366 346 753 395 858 24 51 44 97 44 102 0 27 24 2 47 -48 14 -32 109
-238 210 -458 102 -220 210 -456 241 -524 67 -145 121 -213 206 -254 67 -33
164 -45 229 -29 40 10 487 213 912 412 83 40 136 88 175 161 42 80 53 188 26
270 -10 28 -16 52 -14 53 2 1 24 14 49 29 59 33 99 79 135 153 24 51 28 71 28
144 0 95 19 47 -234 595 -56 121 -126 274 -156 340 -84 185 -153 251 -292 280
-57 12 -77 12 -132 0 -36 -7 -72 -16 -81 -20 -21 -8 -25 -1 -94 150 -73 159
-133 228 -230 264 -74 28 -192 31 -250 7 -36 -16 -41 -15 -81 4 -139 65 -304
50 -442 -39 -66 -43 -142 -135 -162 -197 -15 -44 -47 -58 -98 -44 -32 9 -40
17 -61 66 -52 120 -180 220 -318 249 -74 16 -93 16 -168 5z m172 -211 c48 -20
123 -84 122 -104 0 -5 -32 -25 -70 -43 -54 -26 -74 -42 -86 -67 -19 -40 -12
-77 22 -111 30 -30 90 -32 138 -4 58 34 136 45 198 26 106 -30 189 -135 189
-238 0 -72 -12 -93 -65 -113 l-46 -18 -127 58 c-70 32 -163 75 -207 96 -134
62 -586 269 -657 301 -38 17 -68 36 -68 42 0 6 15 38 33 70 53 97 136 122 237
71 62 -32 86 -31 133 1 84 57 172 68 254 33z m1029 -29 c43 -22 84 -40 89 -40
6 0 33 12 60 27 70 38 139 37 189 -1 41 -31 96 -130 81 -145 -6 -5 -104 -53
-220 -107 -115 -53 -277 -127 -358 -165 -81 -38 -149 -69 -151 -69 -2 0 -6 18
-10 41 -4 23 -15 66 -26 97 -24 69 -25 66 2 48 47 -33 118 -13 143 39 19 42
19 53 -4 92 -13 20 -43 42 -85 63 -36 18 -66 36 -66 40 0 4 18 26 41 48 48 48
103 70 180 71 47 1 70 -6 135 -39z m-1116 -637 c280 -129 465 -215 468 -218 2
-2 -59 -140 -136 -307 -77 -167 -219 -476 -317 -688 -258 -563 -249 -545 -292
-572 -69 -42 -86 -37 -484 147 -539 249 -542 250 -567 278 -33 35 -43 89 -28
141 7 22 67 158 134 301 66 143 200 433 297 645 97 212 197 428 222 481 l45
96 236 -109 c131 -60 320 -148 422 -195z m1652 250 c11 -27 77 -169 146 -318
68 -148 146 -317 172 -375 26 -58 63 -139 83 -180 226 -486 279 -607 280 -647
0 -59 -37 -113 -100 -143 -57 -27 -481 -222 -710 -326 -169 -77 -210 -86 -261
-60 -47 24 -67 57 -147 231 -42 94 -101 222 -131 285 -237 512 -384 836 -384
850 0 17 125 296 141 316 5 6 84 45 176 87 93 42 290 133 438 201 149 69 271
126 273 126 2 0 13 -21 24 -47z m-2594 -9 c12 -4 22 -12 22 -19 0 -7 -19 -52
-41 -101 -61 -131 -85 -184 -209 -454 -62 -135 -146 -316 -186 -403 -41 -87
-74 -162 -74 -167 0 -40 -83 11 -106 66 -29 69 -42 36 343 869 35 77 70 149
78 161 27 42 109 65 173 48z m2998 -30 c17 -13 42 -45 54 -71 198 -419 403
-877 407 -909 8 -64 -49 -154 -97 -154 -6 0 -28 37 -49 83 -21 45 -138 299
-260 565 -123 265 -221 489 -218 497 13 31 115 25 163 -11z"/>
<path d="M1154 2342 c-17 -13 -337 -690 -501 -1060 -31 -70 -30 -112 3 -146
37 -36 105 -37 137 -2 12 13 69 127 126 253 58 125 169 367 248 537 156 337
164 366 118 411 -30 31 -98 34 -131 7z"/>
<path d="M1493 2210 c-30 -12 -39 -29 -141 -250 -50 -107 -109 -235 -132 -285
-23 -49 -73 -157 -110 -240 -38 -82 -89 -194 -114 -248 -55 -118 -58 -156 -17
-198 21 -20 39 -29 63 -29 68 0 67 -2 263 425 45 99 137 298 204 443 141 305
147 338 71 377 -32 17 -54 18 -87 5z"/>
<path d="M1793 2044 c-20 -19 -59 -91 -108 -199 -43 -93 -153 -335 -246 -536
-182 -395 -189 -415 -145 -466 20 -23 32 -28 70 -28 32 0 51 6 65 20 30 31
512 1084 518 1131 7 54 -25 93 -83 101 -36 5 -45 1 -71 -23z"/>
<path d="M3214 2351 c-31 -14 -54 -51 -54 -88 0 -21 45 -130 121 -295 67 -145
125 -272 129 -283 4 -11 32 -72 62 -135 30 -63 85 -182 123 -263 78 -168 98
-192 160 -184 50 7 85 45 85 91 0 22 -55 152 -159 377 -165 360 -168 365 -275
599 -37 80 -75 153 -85 163 -21 21 -77 30 -107 18z"/>
<path d="M2869 2181 c-21 -21 -29 -39 -29 -63 0 -23 44 -130 129 -314 71 -153
183 -398 250 -543 67 -146 129 -273 138 -283 24 -26 75 -33 111 -14 74 38 69
77 -31 298 -445 975 -431 948 -503 948 -26 0 -43 -8 -65 -29z"/>
<path d="M2562 2053 c-18 -7 -42 -57 -42 -88 0 -14 52 -139 116 -278 64 -139
140 -304 169 -367 29 -63 89 -194 133 -290 44 -96 90 -185 102 -197 32 -33
102 -32 135 2 42 41 34 82 -46 256 -40 85 -152 330 -251 544 -98 215 -188 398
-199 408 -20 16 -87 22 -117 10z"/>
</g>
</svg>
