<?xml version="1.0" standalone="no"?>
<!DOCTYPE svg PUBLIC "-//W3C//DTD SVG 20010904//EN"
 "http://www.w3.org/TR/2001/REC-SVG-20010904/DTD/svg10.dtd">
<svg version="1.0" xmlns="http://www.w3.org/2000/svg"
 width="338.500000pt" height="280.760000pt" viewBox="180.500000 125.070000 338.500000 280.760000"
 preserveAspectRatio="xMidYMid meet">
<g transform="translate(0.000000,600.000000) scale(0.050000,-0.050000)"
fill="#000000" stroke="none">
<path d="M8150 9430 c-533 -99 -1030 -553 -1191 -1090 -260 -866 -88 -1753
441 -2275 954 -944 2419 -377 2670 1033 250 1402 -702 2559 -1920 2332z m521
-821 c500 -130 788 -810 619 -1459 -246 -946 -1339 -944 -1592 2 -226 844 300
1632 973 1457z"/>
<path d="M3760 9379 c0 -12 270 -532 600 -1156 l600 -1135 0 -724 0 -724 420
0 420 0 0 713 0 713 168 322 c92 177 241 466 332 642 91 176 208 401 260 500
211 400 440 846 440 858 0 6 -184 12 -409 12 l-409 0 -161 -305 c-88 -168
-262 -501 -386 -740 -188 -364 -229 -430 -249 -403 -13 17 -86 155 -164 305
-77 150 -242 467 -367 703 l-226 430 -435 5 c-303 4 -434 -1 -434 -16z"/>
<path d="M8105 5279 c-557 -278 -490 -1154 103 -1329 247 -74 557 12 688 190
60 80 60 80 -77 200 l-122 105 -63 -60 c-238 -225 -555 -56 -527 281 25 307
319 432 526 225 l65 -65 125 127 126 127 -89 90 c-178 182 -513 230 -755 109z
m487 -8 c117 -35 268 -141 267 -188 -1 -62 -158 -199 -181 -158 -33 58 -168
115 -272 115 -417 -2 -491 -681 -87 -802 120 -36 201 -12 366 107 30 21 46 13
119 -59 l84 -85 -83 -78 c-275 -262 -777 -163 -955 189 -266 526 194 1121 742
959z"/>
<path d="M3656 4630 l5 -690 180 0 179 0 0 330 c0 182 7 330 15 329 8 0 123
-147 255 -325 l240 -324 155 -6 155 -6 0 691 0 691 -180 0 -179 0 -6 -335 -5
-335 -249 335 -249 335 -161 0 -161 0 6 -690z m572 256 l292 -394 0 395 0 395
135 -6 135 -6 5 -635 6 -635 -126 1 -125 0 -112 155 c-62 85 -188 257 -280
382 l-168 228 -5 -383 -6 -383 -139 0 -140 0 0 640 0 640 118 0 118 0 292
-394z"/>
<path d="M5040 4851 c0 -731 118 -918 580 -920 462 -2 580 188 580 933 l0 456
-189 0 -189 0 -6 -472 -6 -472 -56 -48 c-60 -51 -167 -64 -235 -27 -94 50
-108 122 -116 584 l-6 435 -179 0 -178 0 0 -469z m324 -20 c6 -418 9 -452 48
-505 98 -132 318 -133 412 0 44 61 46 82 52 510 l7 446 133 -6 134 -6 -1 -430
c-2 -698 -97 -850 -531 -850 -431 0 -538 179 -538 903 l0 387 139 0 139 0 6
-449z"/>
<path d="M6400 4630 l0 -690 180 0 179 0 6 340 5 341 250 -336 250 -335 155
-6 155 -6 0 691 0 691 -188 0 -188 0 3 -320 c2 -176 -3 -320 -9 -320 -7 0
-118 144 -247 320 l-235 320 -158 0 -158 0 0 -690z m568 256 l292 -393 0 394
0 395 135 -6 135 -6 5 -635 6 -635 -121 0 -120 0 -285 382 -285 382 -5 -382
-6 -382 -139 0 -140 0 0 640 0 640 118 0 119 0 291 -394z"/>
<path d="M9153 4641 c-150 -374 -273 -685 -273 -691 0 -6 87 -9 193 -6 l194 6
52 130 51 130 239 0 238 0 51 -130 52 -130 195 -6 c120 -3 195 2 195 14 0 11
-118 311 -262 666 -144 355 -267 657 -272 671 -7 17 -66 25 -196 25 l-185 0
-272 -679z m607 633 c0 -4 113 -284 250 -624 295 -727 281 -650 113 -650
l-137 0 -49 125 -49 125 -281 6 -282 5 -46 -130 -46 -131 -139 0 c-123 0 -137
4 -125 35 7 19 122 307 256 640 l243 605 146 0 c80 0 146 -3 146 -6z"/>
<path d="M9513 4754 c-51 -135 -93 -253 -93 -260 0 -8 86 -14 190 -14 105 0
190 7 190 15 0 17 -178 490 -188 500 -4 3 -48 -105 -99 -241z m143 -19 c78
-210 81 -195 -46 -195 -108 0 -112 2 -99 45 28 89 92 255 99 255 4 0 25 -47
46 -105z"/>
</g>
</svg>
